<?xml version="1.0" encoding="UTF-8"?><svg xmlns="http://www.w3.org/2000/svg" viewBox="0 0 23.94 14.97"><defs><style>.cls-1{fill:#f9fbfb;opacity:.05;}.cls-2{fill:#f4f6f8;opacity:.1;}.cls-3{fill:#e9f2f5;}.cls-4,.cls-5{fill:#fff;}.cls-6{fill:#8ba3b5;}.cls-7{mix-blend-mode:multiply;}.cls-8{fill:#eef2f4;opacity:.14;}.cls-9{fill:#e9edf1;opacity:.19;}.cls-5{opacity:0;}.cls-10{isolation:isolate;}.cls-11{fill:#bdcad5;opacity:.57;}.cls-12{fill:#b7c6d1;opacity:.62;}.cls-13{fill:#c2cfd8;opacity:.52;}.cls-14{fill:#c8d3dc;opacity:.48;}.cls-15{fill:#96acbc;opacity:.9;}.cls-16{fill:#9cb0c0;opacity:.86;}.cls-17{fill:#a7b9c7;opacity:.76;}.cls-18{fill:#a1b5c3;opacity:.81;}.cls-19{fill:#acbdca;opacity:.71;}.cls-20{fill:#d8e0e6;opacity:.33;}.cls-21{fill:#dee5ea;opacity:.29;}.cls-22{fill:#e3e9ed;opacity:.24;}.cls-23{fill:#cdd8df;opacity:.43;}.cls-24{fill:#d3dce3;opacity:.38;}.cls-25{fill:#b2c2ce;opacity:.67;}.cls-26{fill:#91a7b9;opacity:.95;}</style></defs><g class="cls-10"><g id="Layer_2"><g id="_ÎÓÈ_4"><g><g><g class="cls-7"><path class="cls-5" d="m22.76,12.12c1.64-1.38,1.34-5.68.51-6.82-1.1-1.51-2.26-2.43-3.27-2.93-1.01-.5-3.83-.94-5.12-.94-1.8,0-3.56.44-5.01.82-1.57.42-4.65,1.55-6.11,3.15-1.71,1.87-.2,5.6.23,6.15.82,1.02,1.8,2.04,3.05,2.63,1.19.57,2.22.54,3.11.6.67.05,3.66.38,5.42.02,1.24-.26,3.35-.64,3.94-.94.56-.28,1.94-.64,3.25-1.74Z"/><path class="cls-1" d="m22.49,11.98c1.61-1.34,1.34-5.49.52-6.65-1.08-1.51-2.24-2.38-3.23-2.87-.98-.49-3.69-.93-4.95-.94-1.75-.01-3.51.41-4.95.79-1.56.42-4.6,1.55-6.01,3.09-1.65,1.81-.24,5.43.22,6.01.79.99,1.73,2,2.97,2.58,1.17.55,2.19.5,3.05.57.66.05,3.55.42,5.3.06,1.25-.26,3.27-.67,3.86-.96.56-.28,1.92-.6,3.22-1.68Z"/><path class="cls-2" d="m22.23,11.84c1.59-1.3,1.34-5.31.53-6.48-1.06-1.52-2.21-2.33-3.19-2.82-.96-.48-3.54-.92-4.79-.94-1.71-.03-3.46.38-4.88.76-1.55.42-4.56,1.55-5.91,3.03-1.59,1.74-.27,5.26.21,5.87.77.96,1.65,1.95,2.89,2.52,1.16.53,2.16.46,3,.54.66.06,3.44.47,5.19.11,1.26-.25,3.21-.71,3.77-.99.55-.28,1.91-.56,3.19-1.61Z"/><path class="cls-8" d="m21.96,11.7c1.57-1.25,1.34-5.12.54-6.31-1.04-1.52-2.18-2.28-3.15-2.76-.94-.46-3.39-.9-4.63-.94-1.66-.04-3.4.35-4.82.73-1.54.42-4.51,1.55-5.82,2.98-1.53,1.67-.31,5.09.2,5.73.74.92,1.57,1.91,2.82,2.46,1.15.51,2.13.42,2.94.5.65.06,3.33.51,5.08.16,1.27-.25,3.13-.74,3.68-1.01.55-.28,1.89-.53,3.16-1.55Z"/><path class="cls-9" d="m21.7,11.56c1.54-1.21,1.34-4.94.55-6.13-1.02-1.53-2.15-2.24-3.11-2.71-.92-.45-3.25-.89-4.47-.94-1.62-.06-3.35.32-4.75.7-1.53.42-4.46,1.55-5.72,2.92-1.47,1.6-.35,4.92.19,5.59.72.89,1.49,1.87,2.74,2.41,1.14.49,2.1.39,2.88.47.64.07,3.21.56,4.96.21,1.27-.25,3.07-.77,3.6-1.04.54-.28,1.87-.49,3.14-1.48Z"/><path class="cls-22" d="m21.44,11.42c1.52-1.17,1.34-4.75.56-5.96-1-1.53-2.12-2.19-3.08-2.65-.9-.44-3.1-.88-4.31-.93-1.57-.07-3.3.29-4.68.67-1.51.42-4.42,1.55-5.63,2.86-1.41,1.53-.39,4.75.18,5.45.7.86,1.41,1.82,2.66,2.35,1.12.47,2.08.35,2.83.44.63.08,3.1.6,4.85.26,1.28-.25,2.99-.8,3.51-1.06.54-.28,1.85-.45,3.11-1.42Z"/><path class="cls-21" d="m21.17,11.28c1.5-1.12,1.34-4.57.57-5.79-.98-1.53-2.09-2.14-3.04-2.6-.88-.43-2.95-.87-4.15-.93-1.52-.08-3.25.26-4.62.64-1.5.42-4.37,1.55-5.53,2.8-1.35,1.46-.42,4.58.17,5.31.67.82,1.33,1.78,2.59,2.29,1.11.45,2.05.31,2.77.41.62.08,2.99.65,4.74.31,1.29-.25,2.92-.83,3.42-1.08.54-.27,1.83-.42,3.08-1.36Z"/><path class="cls-20" d="m20.91,11.14c1.47-1.08,1.34-4.38.58-5.62-.96-1.54-2.06-2.09-3-2.54-.86-.41-2.81-.86-3.99-.93-1.48-.1-3.2.23-4.55.61-1.49.42-4.33,1.55-5.43,2.74-1.29,1.39-.46,4.41.16,5.17.65.79,1.25,1.74,2.51,2.24,1.1.44,2.02.27,2.72.37.61.09,2.87.69,4.63.36,1.3-.24,2.85-.86,3.34-1.11.54-.27,1.81-.38,3.05-1.29Z"/><path class="cls-24" d="m20.64,11c1.45-1.04,1.34-4.19.59-5.44-.94-1.54-2.04-2.05-2.96-2.49-.83-.4-2.66-.84-3.83-.93-1.43-.11-3.15.2-4.49.58-1.48.42-4.28,1.55-5.34,2.68-1.23,1.32-.5,4.24.15,5.03.62.76,1.17,1.69,2.44,2.18,1.08.42,1.99.23,2.66.34.6.1,2.76.74,4.51.41,1.3-.24,2.79-.89,3.25-1.13.53-.27,1.79-.34,3.02-1.23Z"/><path class="cls-23" d="m20.38,10.85c1.43-1,1.34-4.01.6-5.27-.92-1.54-2.01-2-2.92-2.43-.81-.39-2.51-.83-3.67-.93-1.39-.12-3.09.17-4.42.55-1.47.42-4.24,1.55-5.24,2.62-1.17,1.25-.53,4.07.13,4.89.6.73,1.1,1.65,2.36,2.12,1.07.4,1.96.2,2.61.31.59.1,2.65.78,4.4.46,1.31-.24,2.72-.92,3.17-1.16.53-.27,1.77-.31,2.99-1.16Z"/><path class="cls-14" d="m20.11,10.71c1.4-.95,1.34-3.82.61-5.1-.9-1.55-1.98-1.95-2.88-2.38-.79-.38-2.37-.82-3.51-.93-1.34-.13-3.04.14-4.36.52-1.46.42-4.19,1.56-5.14,2.57-1.11,1.18-.57,3.9.12,4.75.57.69,1.02,1.61,2.28,2.07,1.06.38,1.93.16,2.55.28.58.11,2.54.83,4.29.51,1.32-.24,2.65-.95,3.08-1.18.53-.27,1.75-.27,2.96-1.1Z"/><path class="cls-13" d="m19.85,10.57c1.38-.91,1.34-3.64.62-4.93-.88-1.55-1.95-1.9-2.85-2.32-.77-.36-2.22-.8-3.35-.93-1.3-.15-2.99.11-4.29.49-1.45.42-4.15,1.56-5.05,2.51-1.05,1.12-.61,3.73.11,4.61.55.66.94,1.57,2.21,2.01,1.04.36,1.91.12,2.5.24.57.12,2.42.87,4.18.56,1.33-.23,2.57-.99,2.99-1.2.52-.27,1.73-.24,2.94-1.03Z"/><path class="cls-11" d="m19.58,10.43c1.36-.87,1.34-3.45.63-4.75-.86-1.56-1.92-1.85-2.81-2.27-.75-.35-2.07-.79-3.19-.93-1.25-.16-2.94.08-4.23.46-1.44.42-4.1,1.56-4.95,2.45-.99,1.04-.65,3.56.1,4.47.52.63.86,1.53,2.13,1.96,1.03.35,1.88.09,2.44.21.56.12,2.31.92,4.06.61,1.34-.23,2.5-1.02,2.9-1.23.52-.27,1.71-.2,2.91-.97Z"/><path class="cls-12" d="m19.32,10.29c1.33-.83,1.34-3.27.64-4.58-.84-1.56-1.89-1.81-2.77-2.21-.73-.34-1.93-.77-3.03-.93-1.21-.17-2.89.05-4.16.42-1.43.42-4.05,1.56-4.85,2.39-.93.98-.68,3.39.09,4.33.5.6.78,1.49,2.05,1.9,1.01.33,1.85.05,2.39.18.56.13,2.2.96,3.95.66,1.34-.23,2.43-1.05,2.82-1.25.51-.27,1.69-.16,2.88-.9Z"/><path class="cls-25" d="m19.06,10.15c1.31-.79,1.34-3.08.65-4.41-.82-1.56-1.87-1.76-2.73-2.16-.71-.32-1.78-.76-2.86-.93-1.16-.18-2.84.02-4.1.39-1.42.42-4.01,1.56-4.76,2.33-.87.91-.72,3.22.08,4.19.47.57.7,1.44,1.98,1.84,1,.31,1.82.01,2.33.14.55.14,2.09,1.01,3.84.71,1.35-.23,2.36-1.08,2.73-1.28.51-.27,1.67-.13,2.85-.84Z"/><path class="cls-19" d="m18.79,10.01c1.28-.74,1.34-2.9.66-4.23-.8-1.57-1.84-1.71-2.69-2.1-.68-.31-1.63-.75-2.7-.93-1.12-.19-2.78,0-4.03.36-1.41.42-3.96,1.56-4.66,2.28-.81.84-.76,3.06.07,4.05.45.53.62,1.4,1.9,1.79.99.29,1.79-.02,2.27.11.54.15,1.97,1.05,3.72.76,1.36-.23,2.29-1.11,2.65-1.3.51-.27,1.65-.09,2.82-.78Z"/><path class="cls-17" d="m18.53,9.87c1.26-.7,1.34-2.71.67-4.06-.78-1.57-1.81-1.67-2.66-2.05-.66-.3-1.49-.73-2.54-.93-1.07-.2-2.73-.04-3.97.33-1.4.42-3.92,1.56-4.56,2.22-.76.77-.8,2.89.06,3.91.42.5.54,1.36,1.83,1.73.97.28,1.76-.06,2.22.08.53.16,1.86,1.1,3.61.81,1.37-.22,2.22-1.14,2.56-1.32.5-.27,1.62-.06,2.79-.71Z"/><path class="cls-18" d="m18.26,9.73c1.23-.66,1.34-2.52.67-3.89-.76-1.57-1.78-1.62-2.62-1.99-.64-.29-1.34-.71-2.38-.93-1.03-.21-2.68-.06-3.9.3-1.39.42-3.87,1.56-4.47,2.16-.7.7-.83,2.72.05,3.77.39.47.46,1.32,1.75,1.67.96.26,1.73-.09,2.16.05.52.17,1.75,1.14,3.5.86,1.38-.22,2.15-1.17,2.47-1.35.5-.27,1.6-.02,2.76-.65Z"/><path class="cls-16" d="m18,9.59c1.21-.62,1.34-2.34.69-3.72-.75-1.58-1.75-1.57-2.58-1.94-.62-.28-1.2-.7-2.22-.93-.98-.22-2.63-.09-3.83.27-1.38.42-3.83,1.56-4.37,2.1-.64.63-.87,2.55.03,3.63.37.44.38,1.28,1.67,1.62.95.24,1.7-.13,2.11.01.51.18,1.63,1.19,3.39.91,1.38-.22,2.08-1.21,2.39-1.37.5-.27,1.58.01,2.73-.58Z"/><path class="cls-15" d="m17.73,9.45c1.18-.58,1.34-2.15.69-3.54-.73-1.58-1.72-1.52-2.54-1.88-.6-.26-1.05-.68-2.06-.92-.94-.23-2.58-.12-3.77.24-1.37.42-3.78,1.56-4.27,2.04-.58.56-.91,2.38.02,3.49.34.41.3,1.24,1.6,1.56.93.23,1.67-.16,2.05-.02.5.19,1.52,1.23,3.27.96,1.39-.22,2.01-1.24,2.3-1.39.49-.27,1.56.04,2.7-.52Z"/><path class="cls-26" d="m17.47,9.3c1.16-.54,1.33-1.96.7-3.37-.71-1.58-1.69-1.48-2.5-1.83-.58-.25-.91-.66-1.9-.92-.89-.23-2.52-.15-3.7.21-1.35.42-3.74,1.56-4.18,1.98-.52.49-.95,2.21.01,3.35.32.38.22,1.21,1.52,1.5.92.21,1.64-.2,2-.05.49.2,1.41,1.28,3.16,1.01,1.4-.21,1.94-1.27,2.21-1.42.49-.27,1.54.08,2.68-.45Z"/><path class="cls-6" d="m17.21,9.16c1.13-.5,1.33-1.78.71-3.2-.69-1.58-1.67-1.43-2.46-1.77-.56-.24-.76-.65-1.74-.92-.85-.24-2.47-.18-3.64.18-1.34.42-3.69,1.56-4.08,1.92-.46.42-.99,2.04,0,3.21.29.34.14,1.16,1.44,1.45.9.2,1.61-.23,1.94-.09.48.21,1.3,1.32,3.05,1.05,1.41-.21,1.87-1.3,2.13-1.44.48-.28,1.52.11,2.65-.39Z"/></g><path class="cls-4" d="m15.69,3.83c-.06,0-.12,0-.18,0-.33-.93-1.21-1.59-2.25-1.59-.31,0-.61.06-.88.17-.32-.89-1.17-1.53-2.17-1.53s-1.81.6-2.15,1.46c-.11-.02-.23-.03-.35-.03-1.05,0-1.92.8-2.02,1.82-.15-.03-.3-.04-.45-.04-1.27,0-2.29,1.03-2.29,2.29s1.03,2.29,2.29,2.29c.02,0,.04,0,.06,0,.22.93,1.06,1.62,2.05,1.62.77,0,1.45-.41,1.81-1.03.5.86,1.44,1.44,2.51,1.44,1.18,0,2.2-.71,2.65-1.72.4.23.87.37,1.37.37,1.52,0,2.75-1.23,2.75-2.75s-1.23-2.75-2.75-2.75Z"/><path class="cls-3" d="m15.79,3.93c-.06,0-.12,0-.18,0-.33-.93-1.21-1.59-2.25-1.59-.31,0-.61.06-.88.17-.32-.89-1.17-1.53-2.17-1.53s-1.81.6-2.15,1.46c-.11-.02-.23-.03-.35-.03-1.05,0-1.92.8-2.02,1.82-.15-.03-.3-.05-.45-.05-1.27,0-2.29,1.03-2.29,2.29s1.03,2.29,2.29,2.29c.02,0,.04,0,.06,0,.22.93,1.06,1.62,2.05,1.62.77,0,1.44-.41,1.81-1.03.5.86,1.44,1.44,2.51,1.44,1.18,0,2.2-.71,2.65-1.72.4.23.87.37,1.37.37,1.52,0,2.75-1.23,2.75-2.75s-1.23-2.75-2.75-2.75Z"/></g><g><g class="cls-7"><path class="cls-5" d="m14.9,7.93c.92-1.37.48-3.91-.17-4.79-.85-1.16-2.17-1.32-2.95-1.71-.78-.39-2.25-1.43-3.24-1.43-1.39,0-2.09.51-3.21.81-1.21.32-3.26,2.21-4.39,3.45C-.37,5.71-.03,7.88.3,8.3c.63.79,1.39,1.57,2.35,2.03.92.44,1.71.42,2.4.46.52.04,1.12.29,2.48.01.96-.2,1.42-.28,1.91-.43,1.04-.32,4.35-.78,5.47-2.44Z"/><path class="cls-1" d="m14.72,7.89c.92-1.33.5-3.8-.13-4.68-.84-1.16-2.15-1.3-2.92-1.68-.76-.38-2.18-1.43-3.16-1.44-1.35,0-2.08.48-3.19.78-1.2.32-3.21,2.19-4.3,3.38C-.25,5.63,0,7.76.36,8.2c.61.76,1.35,1.54,2.31,1.97.92.42,1.7.37,2.36.42.51.04,1.12.31,2.48.04.96-.2,1.43-.29,1.9-.43,1.01-.3,4.2-.71,5.31-2.31Z"/><path class="cls-2" d="m14.54,7.84c.92-1.28.52-3.7-.1-4.57-.83-1.16-2.13-1.28-2.89-1.66-.74-.37-2.12-1.44-3.09-1.46-1.32-.02-2.07.45-3.17.75-1.19.32-3.16,2.17-4.21,3.32C-.14,5.56.04,7.63.41,8.1c.59.74,1.31,1.5,2.27,1.92.93.4,1.69.33,2.33.38.5.04,1.12.33,2.48.06.97-.2,1.44-.31,1.9-.44.98-.27,4.05-.64,5.15-2.18Z"/><path class="cls-8" d="m14.37,7.79c.91-1.24.55-3.6-.06-4.46-.82-1.16-2.11-1.26-2.86-1.63-.73-.36-2.06-1.44-3.02-1.47-1.28-.03-2.06.42-3.15.72-1.18.32-3.11,2.15-4.12,3.25C-.03,5.49.07,7.51.47,8c.57.71,1.27,1.46,2.23,1.86.94.38,1.68.28,2.3.34.5.05,1.12.35,2.48.08.98-.19,1.45-.32,1.9-.44.95-.24,3.9-.57,4.99-2.05Z"/><path class="cls-9" d="m14.19,7.74c.91-1.19.57-3.5-.03-4.35-.81-1.16-2.08-1.24-2.83-1.6-.71-.35-2-1.45-2.95-1.48-1.25-.04-2.06.39-3.13.68-1.18.32-3.06,2.13-4.03,3.19C.09,5.42.11,7.38.52,7.9c.56.69,1.22,1.42,2.2,1.8.94.36,1.66.23,2.26.3.49.05,1.12.37,2.48.11.98-.19,1.46-.34,1.9-.44.92-.22,3.75-.5,4.83-1.91Z"/><path class="cls-22" d="m14.01,7.7c.9-1.14.59-3.4,0-4.24-.81-1.16-2.06-1.22-2.8-1.57-.69-.34-1.94-1.45-2.87-1.49-1.21-.05-2.05.36-3.11.65-1.17.32-3,2.11-3.94,3.12C.2,5.34.14,7.26.58,7.79c.54.66,1.18,1.39,2.16,1.74.95.34,1.65.19,2.23.26.48.06,1.12.39,2.48.13.99-.19,1.47-.36,1.89-.44.89-.19,3.61-.43,4.67-1.78Z"/><path class="cls-21" d="m13.83,7.65c.9-1.1.61-3.3.04-4.13-.8-1.16-2.04-1.2-2.77-1.55-.68-.33-1.88-1.45-2.8-1.5-1.18-.07-2.04.33-3.1.62-1.16.32-2.95,2.09-3.84,3.06C.32,5.27.17,7.13.63,7.69c.52.64,1.14,1.35,2.12,1.68.96.32,1.64.14,2.2.22.48.06,1.12.42,2.48.16.99-.19,1.48-.37,1.89-.45.86-.16,3.46-.36,4.51-1.65Z"/><path class="cls-20" d="m13.65,7.6c.9-1.05.64-3.2.08-4.02-.79-1.16-2.02-1.17-2.74-1.52-.66-.32-1.81-1.46-2.73-1.52-1.14-.08-2.03.29-3.08.59-1.15.32-2.9,2.07-3.75,2.99-1,1.07-1.22,2.88-.74,3.46.5.61,1.1,1.32,2.08,1.62.96.3,1.63.09,2.17.17.47.07,1.12.44,2.48.18,1-.19,1.49-.39,1.89-.45.83-.14,3.31-.29,4.35-1.52Z"/><path class="cls-24" d="m13.47,7.55c.89-1,.66-3.09.11-3.91-.78-1.16-2-1.15-2.71-1.49-.64-.31-1.75-1.46-2.66-1.53-1.11-.08-2.02.26-3.06.55-1.14.32-2.85,2.05-3.66,2.93-.95,1.02-1.25,2.78-.76,3.38.48.58,1.06,1.28,2.05,1.57.97.28,1.61.05,2.13.13.46.07,1.12.46,2.48.2,1.01-.19,1.51-.4,1.88-.45.8-.11,3.16-.22,4.2-1.38Z"/><path class="cls-23" d="m13.29,7.5c.89-.96.68-2.99.15-3.8-.78-1.16-1.98-1.13-2.68-1.47-.63-.3-1.69-1.46-2.58-1.54-1.07-.1-2.01.23-3.04.52-1.14.32-2.8,2.04-3.57,2.86-.9.97-1.29,2.67-.77,3.3.46.56,1.02,1.24,2.01,1.51.98.26,1.6,0,2.1.09.46.08,1.12.47,2.48.23,1.01-.19,1.52-.42,1.88-.46.77-.08,3.01-.15,4.04-1.25Z"/><path class="cls-14" d="m13.11,7.46c.89-.91.71-2.89.18-3.69-.77-1.16-1.95-1.11-2.65-1.44-.61-.29-1.63-1.46-2.51-1.55-1.04-.1-2,.2-3.02.49-1.13.32-2.75,2.01-3.48,2.79-.86.91-1.32,2.57-.79,3.22.44.54.98,1.2,1.97,1.45.98.25,1.59-.04,2.07.05.45.08,1.12.5,2.48.25,1.02-.18,1.53-.43,1.88-.46.73-.05,2.86-.08,3.88-1.12Z"/><path class="cls-13" d="m12.94,7.41c.89-.87.73-2.79.21-3.58-.76-1.16-1.93-1.09-2.62-1.41-.59-.28-1.57-1.47-2.44-1.56-1-.11-1.99.17-3,.46-1.12.32-2.69,2-3.39,2.73-.81.86-1.36,2.46-.8,3.13.42.51.94,1.17,1.93,1.39.99.23,1.58-.08,2.03,0,.44.09,1.12.52,2.48.28,1.03-.18,1.54-.45,1.87-.46.7-.03,2.72,0,3.72-.98Z"/><path class="cls-11" d="m12.76,7.36c.88-.82.75-2.69.25-3.46-.75-1.16-1.91-1.07-2.59-1.39-.58-.27-1.51-1.47-2.36-1.58-.97-.12-1.99.14-2.98.43-1.11.32-2.64,1.98-3.3,2.66-.77.81-1.39,2.36-.81,3.05.4.49.89,1.13,1.89,1.33,1,.21,1.56-.13,2-.03.44.1,1.12.54,2.48.3,1.03-.18,1.55-.46,1.87-.46.67,0,2.57.07,3.56-.85Z"/><path class="cls-12" d="m12.58,7.32c.88-.77.78-2.59.28-3.35-.74-1.15-1.89-1.04-2.56-1.36-.56-.26-1.44-1.47-2.29-1.59-.93-.13-1.98.11-2.96.39-1.1.32-2.59,1.96-3.21,2.6-.72.75-1.42,2.25-.83,2.97.38.46.85,1.09,1.86,1.27,1.01.18,1.55-.17,1.97-.07.43.1,1.12.56,2.48.32,1.04-.18,1.56-.48,1.87-.47.64.03,2.42.14,3.4-.72Z"/><path class="cls-25" d="m12.4,7.27c.88-.73.8-2.49.32-3.24-.74-1.15-1.87-1.03-2.53-1.33-.55-.25-1.38-1.47-2.22-1.6-.9-.14-1.97.08-2.94.36-1.09.32-2.54,1.94-3.11,2.53-.67.7-1.46,2.14-.84,2.89.36.44.81,1.05,1.82,1.22,1.01.16,1.54-.22,1.93-.12.42.11,1.12.58,2.48.35,1.04-.18,1.57-.5,1.87-.47.61.05,2.27.21,3.24-.59Z"/><path class="cls-19" d="m12.22,7.22c.88-.68.82-2.39.35-3.13-.73-1.15-1.84-1-2.5-1.3-.53-.24-1.32-1.47-2.15-1.61-.86-.15-1.96.05-2.92.33-1.09.32-2.49,1.92-3.02,2.47-.63.65-1.49,2.04-.86,2.8.34.41.77,1.01,1.78,1.16,1.02.14,1.53-.26,1.9-.16.41.11,1.12.6,2.48.37,1.05-.17,1.58-.51,1.86-.47.58.08,2.13.28,3.08-.45Z"/><path class="cls-17" d="m12.04,7.17c.88-.63.85-2.29.39-3.02-.72-1.15-1.82-.98-2.48-1.28-.51-.23-1.26-1.47-2.07-1.62-.83-.15-1.95.01-2.9.3-1.08.32-2.43,1.9-2.93,2.4-.58.59-1.53,1.94-.87,2.72.32.39.73.98,1.74,1.1,1.03.12,1.51-.3,1.87-.2.41.12,1.12.62,2.48.39,1.06-.17,1.6-.53,1.86-.47.55.11,1.98.35,2.92-.32Z"/><path class="cls-18" d="m11.86,7.12c.88-.58.87-2.19.42-2.91-.71-1.15-1.8-.96-2.45-1.25-.5-.22-1.2-1.47-2-1.64-.79-.16-1.94-.02-2.88.27-1.07.32-2.38,1.88-2.84,2.34-.54.54-1.56,1.83-.88,2.64.3.36.69.94,1.7,1.04,1.03.1,1.5-.35,1.83-.24.4.13,1.12.64,2.48.42,1.06-.17,1.61-.54,1.86-.48.52.13,1.84.43,2.76-.19Z"/><path class="cls-16" d="m11.68,7.08c.88-.54.89-2.09.46-2.8-.7-1.15-1.78-.94-2.42-1.22-.48-.21-1.14-1.47-1.93-1.65-.76-.17-1.93-.05-2.86.23-1.06.32-2.33,1.86-2.75,2.27-.49.49-1.6,1.73-.9,2.56.28.34.65.9,1.67.98,1.04.08,1.49-.39,1.8-.28.39.13,1.12.66,2.48.44,1.07-.17,1.62-.56,1.85-.48.49.16,1.69.5,2.6-.05Z"/><path class="cls-15" d="m11.51,7.03c.88-.49.92-1.98.49-2.69-.69-1.15-1.76-.92-2.39-1.2-.46-.2-1.08-1.47-1.86-1.66-.72-.17-1.93-.08-2.85.2-1.05.32-2.28,1.84-2.66,2.21-.44.43-1.63,1.62-.91,2.47.27.31.61.86,1.63.92,1.05.06,1.47-.43,1.77-.32.38.14,1.12.68,2.48.47,1.07-.17,1.63-.57,1.85-.48.46.18,1.54.58,2.44.08Z"/><path class="cls-26" d="m11.33,6.98c.88-.44.94-1.88.53-2.58-.68-1.15-1.73-.9-2.36-1.17-.44-.19-1.02-1.47-1.78-1.67-.69-.18-1.92-.11-2.83.17-1.04.32-2.23,1.82-2.57,2.14-.4.38-1.67,1.52-.93,2.39.25.29.56.82,1.59.87,1.05.04,1.46-.47,1.73-.36.38.15,1.12.7,2.48.49,1.08-.16,1.64-.59,1.85-.49.43.21,1.4.65,2.28.21Z"/><path class="cls-6" d="m11.15,6.93c.87-.39.96-1.78.56-2.47-.67-1.15-1.71-.88-2.33-1.14-.43-.18-.95-1.47-1.71-1.68-.66-.19-1.91-.14-2.81.14-1.04.32-2.17,1.8-2.48,2.08-.35.33-1.7,1.41-.94,2.31.23.26.52.79,1.55.81,1.06.02,1.45-.52,1.7-.41.37.16,1.12.72,2.48.51,1.09-.16,1.65-.6,1.84-.49.4.24,1.25.73,2.12.34Z"/></g><path class="cls-4" d="m10.32,2.96c-.24-.01-.48.02-.7.09-.29-1.45-1.53-2.59-3.08-2.67-1.5-.08-2.82.86-3.3,2.21h0c-1.27-.07-2.35.91-2.42,2.18-.07,1.27.91,2.35,2.18,2.42.65.03,1.26-.21,1.7-.63.44.26.95.42,1.49.44.97.05,1.87-.32,2.51-.96.33.42.83.71,1.41.74,1.06.06,1.96-.76,2.01-1.81.05-1.06-.76-1.96-1.81-2.01Z"/></g></g></g></g></g></svg>