<?xml version="1.0" encoding="UTF-8"?><svg xmlns="http://www.w3.org/2000/svg" xmlns:xlink="http://www.w3.org/1999/xlink" viewBox="0 0 25.37 18.09"><defs><style>.cls-1{fill:#fbfcfc;opacity:.03;}.cls-2{fill:#f9fbfb;opacity:.05;}.cls-3{fill:#f7f9fa;opacity:.06;}.cls-4{fill:#f4f6f8;opacity:.1;}.cls-5{fill:#f3f6f7;opacity:.1;}.cls-6{fill:url(#linear-gradient);}.cls-7{fill:#008dd4;}.cls-8{fill:#008cde;}.cls-9{fill:#007fc9;}.cls-10{fill:#63ccff;}.cls-11{fill:#b3edff;}.cls-12{fill:#8ba3b5;}.cls-13{fill:#86a2b0;}.cls-14{fill:#61d7ff;}.cls-15{fill:#6ed8ff;}.cls-16{fill:#4fc5ff;}.cls-17{mix-blend-mode:multiply;}.cls-18{fill:#eef2f4;opacity:.14;}.cls-19{fill:#eff3f5;opacity:.13;}.cls-20{fill:#e4eaed;opacity:.23;}.cls-21{fill:#e8edf0;opacity:.19;}.cls-22{fill:#e9edf1;opacity:.19;}.cls-23{fill:#d8e1e6;opacity:.32;}.cls-24{fill:#ebf0f2;opacity:.16;}.cls-25{fill:url(#linear-gradient-3);}.cls-26{fill:url(#linear-gradient-2);}.cls-27{fill:#fff;opacity:0;}.cls-28{isolation:isolate;}.cls-29{fill:#bdcad5;opacity:.57;}.cls-30{fill:#b9c9d1;opacity:.58;}.cls-31{fill:#b7c6d1;opacity:.62;}.cls-32{fill:#c1cfd6;opacity:.52;}.cls-33{fill:#c2cfd8;opacity:.52;}.cls-34{fill:#bdccd4;opacity:.55;}.cls-35{fill:#c4d2d9;opacity:.48;}.cls-36{fill:#c8d3dc;opacity:.48;}.cls-37{fill:#96acbc;opacity:.9;}.cls-38{fill:#92abb8;opacity:.9;}.cls-39{fill:#8ea8b5;opacity:.94;}.cls-40{fill:#9ab1bd;opacity:.84;}.cls-41{fill:#9cb0c0;opacity:.86;}.cls-42{fill:#96aeba;opacity:.87;}.cls-43{fill:#a7b9c7;opacity:.76;}.cls-44{fill:#a1b7c2;opacity:.77;}.cls-45{fill:#a1b5c3;opacity:.81;}.cls-46{fill:#9db4bf;opacity:.81;}.cls-47{fill:#adc0c9;opacity:.68;}.cls-48{fill:#acbdca;opacity:.71;}.cls-49{fill:#a9bdc7;opacity:.71;}.cls-50{fill:#a5bac4;opacity:.74;}.cls-51{fill:#d8e0e6;opacity:.33;}.cls-52{fill:#dce4e8;opacity:.29;}.cls-53{fill:#dee5ea;opacity:.29;}.cls-54{fill:#e0e7eb;opacity:.26;}.cls-55{fill:#e3e9ed;opacity:.24;}.cls-56{fill:#c8d5db;opacity:.45;}.cls-57{fill:#ccd8de;opacity:.42;}.cls-58{fill:#cdd8df;opacity:.43;}.cls-59{fill:#d0dbe0;opacity:.39;}.cls-60{fill:#d3dce3;opacity:.38;}.cls-61{fill:#d4dee3;opacity:.35;}.cls-62{fill:#b5c6cf;opacity:.61;}.cls-63{fill:#b1c3cc;opacity:.65;}.cls-64{fill:#b2c2ce;opacity:.67;}.cls-65{fill:#91a7b9;opacity:.95;}.cls-66{fill:#8aa5b3;opacity:.97;}</style><linearGradient id="linear-gradient" x1="5.94" y1="4.33" x2="16.09" y2="14.49" gradientUnits="userSpaceOnUse"><stop offset="0" stop-color="#1062a1"/><stop offset="1" stop-color="#0a4d80"/></linearGradient><linearGradient id="linear-gradient-2" x1="1.96" y1="5.74" x2="14.33" y2="5.74" gradientUnits="userSpaceOnUse"><stop offset="0" stop-color="#076bba"/><stop offset="1" stop-color="#0060ab"/></linearGradient><linearGradient id="linear-gradient-3" x1="10.51" y1="7.42" x2="20.68" y2="7.42" xlink:href="#linear-gradient-2"/></defs><g class="cls-28"><g id="Layer_2"><g id="_ÎÓÈ_4"><g><g><g class="cls-17"><path class="cls-27" d="m23.8,12.68c1.88-1.89,1.79-3.41,1.16-5.03-.47-1.22-.69-2.03-1.48-3.16-.71-1.01-2.21-2.31-4.46-2.63-2.18-.31-7.34,3.24-9.12,3.72-1.92.51-4.27,1.87-6.73,2.87C1.9,8.96.04,10.57,0,11.43c-.05,1.39.41,1.96,1.03,2.52.62.56,1.9,1.53,2.66,1.89.72.35,2.6.85,3.23.92,1.39.15,1.89-.28,3-.16,1.44.16,1.92.26,2.58.24.6-.02,1.09-.14,1.42-.16.48-.02,1.79.32,2.38.19,1.52-.32,1.17-.48,1.95-.72,1.66-.51,4.01-1.92,5.55-3.47Z"/><path class="cls-2" d="m23.58,12.61c1.83-1.81,1.75-3.3,1.12-4.88-.48-1.19-.72-1.98-1.5-3.08-.7-.99-2.12-2.27-4.36-2.63-2.15-.34-7.18,3.16-8.95,3.64-1.91.51-4.17,1.86-6.58,2.84C2.09,9,.09,10.53.08,11.41c-.03,1.34.44,1.88,1.06,2.43.62.55,1.87,1.51,2.62,1.85.74.33,2.53.78,3.18.84,1.37.14,1.88-.22,2.98-.1,1.43.15,1.89.23,2.54.21.59-.01,1.07-.12,1.42-.13.51-.02,1.78.28,2.36.16,1.48-.31,1.15-.44,1.95-.7,1.63-.51,3.88-1.86,5.4-3.35Z"/><path class="cls-4" d="m23.37,12.54c1.78-1.72,1.7-3.2,1.08-4.73-.48-1.17-.75-1.92-1.51-2.99-.69-.97-2.03-2.23-4.25-2.63-2.13-.38-7.02,3.08-8.77,3.56-1.9.51-4.07,1.86-6.43,2.81-1.21.49-3.33,1.93-3.33,2.83,0,1.3.47,1.8,1.09,2.34.63.54,1.84,1.49,2.59,1.81.77.32,2.46.7,3.12.76,1.36.13,1.86-.16,2.96-.05,1.43.14,1.85.2,2.51.19.57-.01,1.04-.1,1.42-.11.54-.02,1.76.24,2.33.12,1.44-.29,1.14-.41,1.96-.67,1.61-.51,3.75-1.79,5.24-3.23Z"/><path class="cls-18" d="m23.15,12.47c1.73-1.64,1.66-3.1,1.04-4.57-.48-1.14-.78-1.87-1.53-2.91-.68-.94-1.94-2.2-4.15-2.64-2.1-.42-6.86,3.01-8.59,3.48-1.88.51-3.98,1.85-6.28,2.78-1.18.48-3.43,1.84-3.41,2.75.02,1.25.51,1.72,1.13,2.25.63.53,1.82,1.47,2.56,1.76.79.31,2.39.62,3.07.68,1.34.13,1.85-.1,2.94,0,1.42.13,1.82.17,2.47.16.56,0,1.02-.08,1.42-.09.56-.01,1.75.2,2.31.08,1.4-.28,1.13-.38,1.96-.65,1.58-.51,3.62-1.73,5.08-3.1Z"/><path class="cls-22" d="m22.93,12.39c1.68-1.56,1.62-3,.99-4.42-.49-1.12-.81-1.82-1.54-2.83-.67-.92-1.85-2.16-4.04-2.64-2.08-.46-6.7,2.93-8.41,3.4-1.87.51-3.88,1.85-6.13,2.76-1.15.47-3.53,1.74-3.5,2.68.04,1.2.54,1.65,1.16,2.16.64.53,1.79,1.45,2.52,1.72.81.3,2.32.54,3.01.6,1.33.12,1.83-.04,2.91.06,1.42.12,1.79.14,2.43.13.55,0,.99-.06,1.42-.06.59-.01,1.74.16,2.29.05,1.37-.27,1.12-.35,1.96-.62,1.56-.51,3.5-1.67,4.92-2.98Z"/><path class="cls-55" d="m22.72,12.32c1.63-1.47,1.57-2.9.95-4.27-.49-1.09-.83-1.76-1.55-2.74-.66-.9-1.76-2.12-3.94-2.65-2.05-.49-6.54,2.85-8.24,3.32-1.86.51-3.78,1.84-5.98,2.73-1.13.46-3.63,1.64-3.59,2.6.06,1.15.57,1.57,1.19,2.07.64.52,1.77,1.43,2.49,1.68.83.28,2.26.46,2.96.52,1.31.12,1.82.02,2.89.11,1.41.12,1.76.11,2.4.11.53,0,.97-.03,1.42-.04.62,0,1.72.11,2.27,0,1.33-.26,1.1-.32,1.96-.6,1.53-.51,3.37-1.6,4.76-2.86Z"/><path class="cls-53" d="m22.5,12.25c1.58-1.39,1.53-2.79.91-4.12-.5-1.06-.86-1.71-1.57-2.66-.65-.88-1.67-2.08-3.83-2.65-2.03-.53-6.38,2.78-8.06,3.24-1.84.51-3.69,1.84-5.83,2.7-1.1.45-3.74,1.55-3.67,2.53.07,1.11.61,1.49,1.23,1.98.65.51,1.74,1.41,2.46,1.63.86.27,2.19.38,2.9.44,1.3.11,1.8.08,2.87.17,1.4.11,1.72.09,2.36.09.52,0,.94-.01,1.42-.02.65,0,1.71.08,2.25-.03,1.29-.25,1.09-.28,1.97-.58,1.51-.5,3.24-1.54,4.6-2.74Z"/><path class="cls-51" d="m22.29,12.18c1.53-1.31,1.48-2.69.86-3.97-.5-1.04-.89-1.66-1.58-2.57-.64-.85-1.58-2.04-3.73-2.65-2-.57-6.22,2.7-7.88,3.16-1.83.51-3.59,1.83-5.68,2.68-1.08.43-3.84,1.45-3.76,2.46.08,1.06.64,1.41,1.26,1.89.65.5,1.72,1.39,2.43,1.59.88.26,2.12.3,2.84.36,1.28.1,1.78.14,2.85.22,1.4.1,1.69.06,2.33.06.5,0,.92,0,1.42,0,.68,0,1.7.04,2.22-.06,1.25-.23,1.08-.25,1.97-.55,1.49-.5,3.11-1.48,4.44-2.61Z"/><path class="cls-60" d="m22.07,12.11c1.48-1.22,1.44-2.59.82-3.82-.5-1.01-.92-1.6-1.6-2.49-.63-.83-1.48-2.01-3.62-2.66-1.98-.6-6.06,2.62-7.7,3.08-1.82.51-3.49,1.83-5.53,2.65-1.05.42-3.95,1.35-3.85,2.38.1,1.01.67,1.33,1.3,1.8.65.49,1.69,1.36,2.39,1.55.9.24,2.05.23,2.79.28,1.27.1,1.77.2,2.83.28,1.39.1,1.66.03,2.29.03.49,0,.89.03,1.43.03.71,0,1.68,0,2.2-.1,1.21-.22,1.06-.22,1.97-.53,1.46-.5,2.98-1.41,4.28-2.49Z"/><path class="cls-58" d="m21.86,12.03c1.43-1.14,1.39-2.49.78-3.66-.51-.98-.95-1.55-1.61-2.41-.63-.81-1.39-1.97-3.52-2.66-1.95-.64-5.9,2.54-7.52,3-1.8.51-3.4,1.82-5.38,2.62-1.02.41-4.05,1.25-3.93,2.31.11.96.71,1.25,1.33,1.71.66.48,1.67,1.34,2.36,1.51.93.22,1.98.15,2.73.2,1.25.09,1.75.26,2.81.33,1.39.09,1.63,0,2.26,0,.48,0,.87.05,1.43.05.74,0,1.67-.04,2.18-.14,1.17-.21,1.05-.18,1.97-.5,1.44-.5,2.85-1.35,4.12-2.37Z"/><path class="cls-36" d="m21.64,11.96c1.38-1.06,1.34-2.38.74-3.51-.51-.96-.97-1.5-1.62-2.32-.62-.78-1.3-1.93-3.41-2.67-1.93-.67-5.73,2.46-7.35,2.92-1.79.51-3.3,1.82-5.23,2.59-1,.4-4.16,1.16-4.02,2.23.12.91.74,1.17,1.36,1.62.67.48,1.65,1.31,2.33,1.46.95.21,1.91.07,2.67.12,1.24.09,1.74.32,2.79.38,1.38.08,1.59-.03,2.22-.02.46,0,.84.07,1.43.08.77,0,1.65-.09,2.16-.17,1.13-.2,1.04-.15,1.98-.48,1.41-.49,2.72-1.29,3.96-2.24Z"/><path class="cls-33" d="m21.42,11.89c1.32-.97,1.3-2.28.69-3.36-.52-.93-1-1.44-1.64-2.24-.61-.76-1.21-1.89-3.31-2.67-1.9-.71-5.57,2.39-7.17,2.85-1.78.51-3.2,1.81-5.08,2.57-.97.39-4.27,1.06-4.11,2.16.13.87.78,1.1,1.4,1.53.67.47,1.62,1.29,2.29,1.42.98.19,1.84,0,2.62.04,1.22.08,1.72.38,2.77.44,1.37.07,1.56-.06,2.19-.04.45.01.81.1,1.43.1.8,0,1.64-.13,2.13-.21,1.09-.19,1.03-.12,1.98-.45,1.39-.49,2.59-1.23,3.8-2.12Z"/><path class="cls-29" d="m21.21,11.82c1.27-.89,1.25-2.18.65-3.21-.52-.9-1.03-1.39-1.65-2.16-.6-.74-1.12-1.85-3.2-2.67-1.88-.74-5.41,2.31-6.99,2.77-1.76.51-3.11,1.81-4.93,2.54-.94.38-4.37.96-4.19,2.08.13.82.81,1.02,1.43,1.44.67.46,1.6,1.26,2.26,1.38,1,.17,1.77-.09,2.56-.04,1.21.08,1.71.44,2.75.49,1.37.07,1.53-.09,2.15-.07.44.01.79.12,1.43.12.83,0,1.63-.17,2.11-.25,1.05-.18,1.01-.09,1.98-.43,1.37-.49,2.46-1.17,3.64-2Z"/><path class="cls-31" d="m20.99,11.75c1.22-.81,1.2-2.08.61-3.06-.53-.87-1.06-1.34-1.67-2.07-.59-.71-1.03-1.81-3.1-2.68-1.85-.77-5.25,2.23-6.81,2.69-1.75.51-3.01,1.8-4.78,2.51-.92.37-4.48.86-4.28,2.01.14.77.84.94,1.46,1.35.68.45,1.58,1.24,2.23,1.33,1.03.15,1.7-.16,2.51-.12,1.19.07,1.69.5,2.73.54,1.36.06,1.5-.12,2.11-.09.42.02.76.14,1.43.15.86,0,1.61-.21,2.09-.29,1.01-.17,1-.05,1.99-.41,1.34-.48,2.33-1.11,3.48-1.87Z"/><path class="cls-64" d="m20.78,11.67c1.16-.73,1.16-1.97.57-2.91-.54-.85-1.09-1.28-1.68-1.99-.58-.69-.94-1.77-2.99-2.68-1.83-.81-5.09,2.15-6.64,2.61-1.74.51-2.91,1.8-4.63,2.49-.89.36-4.6.77-4.36,1.93.14.72.88.86,1.5,1.26.68.44,1.55,1.21,2.19,1.29,1.05.13,1.63-.24,2.45-.19,1.18.07,1.68.56,2.71.6,1.36.05,1.46-.14,2.08-.12.41.02.74.16,1.43.17.89,0,1.6-.25,2.07-.32.97-.16.99-.02,1.99-.38,1.32-.48,2.2-1.05,3.32-1.75Z"/><path class="cls-48" d="m20.56,11.6c1.11-.65,1.11-1.87.52-2.75-.54-.82-1.12-1.23-1.69-1.91-.57-.67-.85-1.73-2.89-2.68-1.8-.84-4.93,2.08-6.46,2.53-1.73.51-2.82,1.79-4.48,2.46-.87.35-4.71.67-4.45,1.86.15.68.91.78,1.53,1.17.69.43,1.53,1.18,2.16,1.25,1.08.11,1.56-.32,2.4-.27,1.16.06,1.66.62,2.69.65,1.35.04,1.43-.17,2.04-.14.39.02.71.18,1.43.19.91,0,1.58-.29,2.04-.36.93-.15.98.02,1.99-.36,1.29-.48,2.07-.99,3.16-1.63Z"/><path class="cls-43" d="m20.34,11.53c1.05-.57,1.06-1.76.48-2.6-.55-.79-1.14-1.17-1.71-1.82-.56-.64-.76-1.69-2.79-2.69-1.78-.88-4.77,2-6.28,2.45-1.71.51-2.72,1.79-4.33,2.43-.84.34-4.83.57-4.54,1.78.15.63.94.7,1.57,1.08.69.42,1.51,1.15,2.13,1.2,1.1.09,1.49-.4,2.34-.35,1.15.06,1.64.68,2.66.71,1.34.04,1.4-.2,2.01-.17.38.02.69.21,1.43.21.94,0,1.57-.33,2.02-.4.89-.13.96.05,1.99-.33,1.27-.47,1.94-.93,3-1.51Z"/><path class="cls-45" d="m20.13,11.46c1-.49,1.01-1.66.44-2.45-.56-.76-1.17-1.12-1.72-1.74-.55-.62-.67-1.65-2.68-2.69-1.75-.91-4.61,1.92-6.1,2.37-1.7.51-2.62,1.78-4.18,2.41-.81.33-4.95.48-4.62,1.71.15.58.98.62,1.6.99.7.41,1.48,1.12,2.09,1.16,1.13.07,1.42-.47,2.28-.43,1.13.05,1.63.74,2.64.76,1.34.03,1.37-.23,1.97-.19.37.03.66.23,1.43.24.97.01,1.56-.37,2-.43.86-.12.95.08,2-.31,1.25-.47,1.8-.87,2.84-1.38Z"/><path class="cls-41" d="m19.91,11.39c.94-.42.96-1.55.39-2.3-.56-.74-1.2-1.07-1.74-1.65-.54-.6-.58-1.61-2.58-2.7-1.73-.94-4.45,1.84-5.92,2.29-1.69.51-2.53,1.78-4.03,2.38-.79.32-5.07.39-4.71,1.63.15.54,1.01.54,1.63.9.7.41,1.46,1.1,2.06,1.12,1.15.04,1.35-.55,2.23-.51,1.12.05,1.61.8,2.62.81,1.33.02,1.33-.26,1.94-.22.35.03.64.25,1.43.26,1,.01,1.54-.41,1.98-.47.82-.11.94.12,2-.29,1.22-.46,1.67-.81,2.68-1.26Z"/><path class="cls-37" d="m19.7,11.31c.88-.34.91-1.45.35-2.15-.57-.71-1.23-1.01-1.75-1.57-.54-.57-.49-1.57-2.47-2.7-1.7-.97-4.28,1.77-5.75,2.21-1.67.51-2.43,1.77-3.88,2.35-.76.31-5.2.3-4.8,1.56.16.49,1.05.46,1.67.81.71.39,1.44,1.09,2.03,1.08,1.18-.02,1.28-.63,2.17-.59,1.1.04,1.6.86,2.6.87,1.33.01,1.3-.29,1.9-.24.34.03.61.27,1.43.28,1.03.02,1.53-.45,1.96-.51.78-.1.93.15,2-.26,1.2-.46,1.54-.76,2.53-1.14Z"/><path class="cls-65" d="m19.48,11.24c.83-.27.86-1.34.31-1.99-.58-.68-1.26-.96-1.76-1.49-.53-.55-.4-1.52-2.37-2.7-1.68-1.01-4.12,1.69-5.57,2.13-1.66.51-2.33,1.77-3.73,2.32-.74.29-5.33.21-4.88,1.49.16.45,1.08.38,1.7.72.72.39,1.41,1.04,2,1.03,1.2-.01,1.21-.7,2.12-.67,1.09.04,1.58.92,2.58.92,1.32,0,1.27-.32,1.87-.27.33.03.59.29,1.43.31,1.06.02,1.51-.49,1.93-.54.74-.09.91.19,2-.24,1.18-.46,1.4-.71,2.37-1.02Z"/><path class="cls-12" d="m19.26,11.17c.77-.2.81-1.24.27-1.84-.59-.65-1.29-.9-1.78-1.4-.52-.53-.31-1.48-2.26-2.71-1.66-1.04-3.96,1.61-5.39,2.05-1.65.51-2.24,1.76-3.58,2.3-.71.28-5.47.12-4.97,1.41.16.4,1.11.3,1.74.63.72.38,1.39,1.01,1.96.99,1.23-.04,1.15-.78,2.06-.75,1.07.04,1.57.98,2.56.98,1.31,0,1.23-.35,1.83-.29.31.03.56.31,1.43.33,1.09.02,1.5-.53,1.91-.58.7-.08.9.22,2.01-.21,1.15-.45,1.27-.65,2.21-.89Z"/></g><path class="cls-7" d="m18.77,8.55c-.17-.59-.53-1.11-1.01-1.48.12-.33.2-.67.21-1.04.08-1.87-1.37-3.44-3.23-3.52-1.43-.06-2.68.77-3.23,2-.1-.01-.2-.02-.3-.03-1.18-.05-2.24.5-2.9,1.38-.19-.07-.39-.12-.6-.13-1.01-.04-1.87.74-1.92,1.76,0,.17.01.33.05.49-.37.06-.69.28-.88.59-.31-.41-.79-.69-1.35-.71-.77-.03-1.44.43-1.72,1.11-.03,0-.07,0-.1,0-.7-.03-1.3.51-1.33,1.22-.03.7.51,1.3,1.22,1.33.36.02.69-.12.93-.35.24.15.53.24.83.25.28.61.88,1.05,1.6,1.08.74.03,1.4-.38,1.72-1.01.21.1.44.15.69.17.08,0,.15,0,.23,0,.43.58,1.11.96,1.88.99.76.03,1.45-.28,1.92-.79.29.56.87.96,1.55.99.72.03,1.36-.36,1.69-.96.36.18.76.3,1.18.32.93.04,1.78-.37,2.32-1.04.13.05.27.08.41.08.74.03,1.36-.54,1.39-1.28.03-.73-.54-1.35-1.27-1.39Z"/><path class="cls-6" d="m18.82,8.61c-.17-.59-.53-1.11-1.01-1.48.12-.33.2-.67.21-1.04.08-1.87-1.37-3.44-3.23-3.52-1.43-.06-2.68.77-3.23,2-.1-.01-.2-.02-.3-.03-1.18-.05-2.24.5-2.9,1.38-.19-.07-.39-.12-.6-.13-1.01-.04-1.87.74-1.92,1.76,0,.17.01.33.05.49-.37.06-.69.28-.88.59-.31-.41-.79-.69-1.35-.71-.77-.03-1.44.43-1.72,1.11-.03,0-.07,0-.1,0-.7-.03-1.3.51-1.33,1.22-.03.7.51,1.3,1.22,1.33.36.02.69-.12.93-.35.24.15.53.24.83.25.28.61.88,1.05,1.6,1.08.74.03,1.4-.38,1.72-1.01.21.1.44.15.69.17.08,0,.15,0,.23,0,.43.58,1.11.96,1.88.99.76.03,1.45-.28,1.92-.79.29.56.87.96,1.55.99.72.03,1.36-.36,1.69-.96.36.18.76.3,1.18.32.93.04,1.78-.37,2.32-1.04.13.05.27.08.41.08.74.03,1.36-.54,1.39-1.28.03-.73-.54-1.35-1.27-1.39Z"/></g><g><g class="cls-17"><path class="cls-27" d="m16.69,10.42c.87-1.52-.02-3.59-.44-4.67-.32-.82-1.36-1.93-2.18-2.34-.82-.41-1.13-.84-2.25-.96-1.46-.15-3.4.97-4.58,1.29-1.28.34-3.48,1.39-4.67,2.7-1.4,1.53-1.43,2.75-1.05,3.64.4.95,1.07,1.47,1.48,1.85.41.37.87.7,1.37.94.97.47,1.81.44,2.54.49.55.04,1.97.15,3.4-.14,1.01-.21,1.93-.36,2.45-.53,1.1-.34,3.21-1,3.93-2.27Z"/><path class="cls-2" d="m16.53,10.35c.87-1.47.03-3.48-.39-4.53-.32-.8-1.32-1.86-2.13-2.26-.8-.4-1.07-.92-2.2-1.06-1.44-.18-3.39.99-4.56,1.31-1.27.34-3.45,1.37-4.6,2.63-1.35,1.47-1.45,2.69-1.06,3.58.4.93,1.07,1.41,1.5,1.77.42.36.88.67,1.38.9.98.45,1.79.38,2.5.44.54.04,1.93.18,3.36-.12,1.02-.21,1.89-.37,2.4-.52,1.07-.32,3.1-.92,3.81-2.15Z"/><path class="cls-4" d="m16.38,10.28c.86-1.43.08-3.36-.34-4.38-.32-.78-1.28-1.79-2.08-2.19-.79-.39-1.01-1-2.15-1.17-1.42-.21-3.38,1.01-4.54,1.33-1.26.34-3.41,1.34-4.52,2.56-1.3,1.42-1.48,2.63-1.07,3.53.4.9,1.07,1.35,1.51,1.7.43.34.89.64,1.39.85.98.43,1.77.32,2.45.38.53.05,1.89.2,3.32-.09,1.03-.21,1.85-.38,2.35-.51,1.04-.29,2.98-.85,3.69-2.03Z"/><path class="cls-18" d="m16.22,10.21c.86-1.38.12-3.24-.29-4.23-.32-.76-1.24-1.72-2.03-2.11-.77-.38-.95-1.07-2.09-1.27-1.41-.24-3.37,1.04-4.52,1.35-1.25.34-3.38,1.32-4.45,2.48-1.25,1.36-1.5,2.57-1.08,3.48.4.88,1.07,1.29,1.52,1.62.43.32.9.6,1.4.81.99.41,1.75.26,2.41.33.53.05,1.85.23,3.28-.06,1.03-.21,1.82-.39,2.29-.51,1.01-.26,2.86-.78,3.57-1.91Z"/><path class="cls-22" d="m16.06,10.14c.86-1.33.17-3.13-.25-4.08-.32-.74-1.19-1.65-1.98-2.03-.75-.37-.88-1.15-2.04-1.37-1.39-.27-3.36,1.06-4.5,1.38-1.25.34-3.35,1.3-4.38,2.41-1.2,1.3-1.53,2.51-1.1,3.42.4.85,1.07,1.22,1.54,1.55.44.31.92.57,1.41.76,1,.39,1.74.21,2.37.28.52.06,1.81.26,3.24-.03,1.04-.2,1.78-.39,2.24-.5.97-.23,2.75-.71,3.45-1.79Z"/><path class="cls-55" d="m15.9,10.07c.86-1.29.21-3.01-.2-3.93-.33-.73-1.15-1.58-1.93-1.96-.73-.36-.82-1.22-1.99-1.48-1.37-.3-3.35,1.09-4.48,1.4-1.24.34-3.32,1.27-4.31,2.34-1.15,1.25-1.56,2.45-1.11,3.37.4.83,1.07,1.16,1.55,1.48.44.29.93.54,1.42.72,1,.37,1.72.15,2.33.22.51.06,1.77.28,3.2,0,1.05-.2,1.74-.4,2.19-.49.94-.2,2.64-.63,3.33-1.67Z"/><path class="cls-53" d="m15.75,10c.86-1.24.26-2.9-.15-3.78-.33-.71-1.11-1.51-1.88-1.88-.72-.35-.76-1.29-1.94-1.58-1.35-.33-3.34,1.11-4.46,1.42-1.23.34-3.29,1.25-4.24,2.27-1.1,1.19-1.58,2.39-1.12,3.32.4.8,1.06,1.1,1.57,1.4.45.27.94.5,1.43.67,1.01.35,1.7.09,2.29.17.5.07,1.73.31,3.16.03,1.05-.2,1.7-.41,2.13-.49.91-.17,2.52-.56,3.21-1.55Z"/><path class="cls-51" d="m15.59,9.94c.85-1.2.3-2.78-.11-3.63-.33-.69-1.07-1.44-1.83-1.81-.7-.34-.7-1.37-1.89-1.69-1.33-.36-3.33,1.13-4.44,1.44-1.22.34-3.26,1.22-4.16,2.19-1.05,1.14-1.61,2.33-1.13,3.27.4.78,1.06,1.03,1.58,1.33.45.26.95.47,1.44.63,1.02.33,1.68.03,2.25.11.5.07,1.69.33,3.12.06,1.06-.2,1.67-.41,2.08-.48.88-.14,2.41-.48,3.09-1.43Z"/><path class="cls-60" d="m15.43,9.87c.85-1.15.35-2.66-.06-3.48-.34-.67-1.03-1.37-1.78-1.73-.68-.33-.64-1.44-1.83-1.79-1.32-.39-3.32,1.16-4.42,1.46-1.21.34-3.23,1.2-4.09,2.12-1.01,1.08-1.64,2.27-1.14,3.21.4.76,1.06.97,1.6,1.26.46.24.97.44,1.45.59,1.02.31,1.66-.03,2.21.06.49.08,1.65.36,3.08.09,1.07-.2,1.63-.42,2.03-.48.84-.12,2.3-.41,2.97-1.31Z"/><path class="cls-58" d="m15.28,9.8c.85-1.1.39-2.55-.01-3.33-.34-.66-.98-1.3-1.73-1.66-.66-.32-.58-1.51-1.78-1.89-1.3-.41-3.31,1.18-4.4,1.49-1.2.34-3.2,1.18-4.02,2.05-.96,1.02-1.66,2.21-1.15,3.16.39.73,1.06.91,1.61,1.18.46.23.98.41,1.46.54,1.03.29,1.64-.08,2.17,0,.48.08,1.61.38,3.04.12,1.07-.19,1.59-.43,1.98-.47.81-.09,2.18-.34,2.84-1.19Z"/><path class="cls-36" d="m15.12,9.73c.85-1.06.44-2.43.03-3.18-.34-.64-.94-1.23-1.68-1.58-.65-.31-.51-1.58-1.73-2-1.28-.44-3.3,1.2-4.38,1.51-1.19.34-3.17,1.15-3.95,1.98-.91.97-1.69,2.15-1.16,3.11.39.71,1.06.85,1.63,1.11.47.21.99.37,1.47.5,1.04.27,1.62-.14,2.13-.05.48.09,1.57.41,3,.15,1.08-.19,1.55-.43,1.92-.46.78-.06,2.07-.26,2.72-1.08Z"/><path class="cls-33" d="m14.96,9.66c.85-1.01.48-2.31.08-3.03-.35-.62-.9-1.16-1.63-1.5-.63-.3-.45-1.65-1.68-2.1-1.26-.46-3.3,1.23-4.36,1.53-1.18.34-3.14,1.13-3.88,1.91-.86.91-1.72,2.09-1.18,3.05.39.69,1.06.79,1.64,1.03.47.2,1.01.34,1.48.45,1.05.25,1.6-.2,2.09-.1.47.1,1.53.44,2.96.18,1.09-.19,1.52-.44,1.87-.46.74-.03,1.96-.19,2.6-.96Z"/><path class="cls-29" d="m14.8,9.59c.85-.96.53-2.2.13-2.88-.35-.6-.86-1.09-1.58-1.43-.61-.29-.39-1.72-1.63-2.21-1.25-.49-3.29,1.25-4.34,1.55-1.18.34-3.11,1.1-3.8,1.83-.81.85-1.75,2.03-1.19,3,.39.66,1.05.73,1.66.96.48.18,1.02.31,1.49.41,1.05.23,1.58-.26,2.04-.16.46.1,1.49.46,2.92.21,1.09-.19,1.48-.45,1.82-.45.71,0,1.84-.12,2.48-.84Z"/><path class="cls-31" d="m14.65,9.52c.85-.92.57-2.08.17-2.73-.35-.58-.82-1.02-1.53-1.35-.59-.28-.33-1.79-1.57-2.31-1.23-.51-3.28,1.27-4.32,1.57-1.17.34-3.08,1.08-3.73,1.76-.76.8-1.78,1.97-1.2,2.95.38.64,1.05.67,1.67.89.48.17,1.03.27,1.5.36,1.06.21,1.56-.31,2-.21.45.11,1.45.49,2.88.24,1.1-.19,1.44-.46,1.76-.45.68.03,1.73-.04,2.36-.72Z"/><path class="cls-64" d="m14.49,9.46c.85-.87.61-1.96.22-2.59-.36-.56-.77-.95-1.48-1.28-.58-.26-.27-1.86-1.52-2.42-1.21-.54-3.27,1.3-4.3,1.6-1.16.34-3.05,1.06-3.66,1.69-.71.74-1.81,1.92-1.21,2.9.38.62,1.05.61,1.69.81.49.16,1.04.24,1.51.32,1.07.18,1.55-.37,1.96-.26.45.11,1.41.51,2.84.27,1.1-.19,1.4-.46,1.71-.44.65.05,1.62.03,2.24-.6Z"/><path class="cls-48" d="m14.33,9.39c.86-.82.66-1.85.27-2.44-.36-.55-.73-.88-1.43-1.2-.56-.25-.21-1.93-1.47-2.52-1.19-.56-3.26,1.32-4.28,1.62-1.15.34-3.02,1.03-3.59,1.62-.67.68-1.84,1.86-1.22,2.84.37.59,1.04.55,1.7.74.49.14,1.06.2,1.52.27,1.08.16,1.53-.43,1.92-.32.44.12,1.37.54,2.8.3,1.11-.18,1.36-.47,1.66-.43.61.08,1.51.11,2.12-.48Z"/><path class="cls-43" d="m14.18,9.32c.86-.77.7-1.73.31-2.29-.37-.53-.69-.81-1.38-1.12-.54-.25-.15-2-1.42-2.62-1.18-.58-3.25,1.34-4.26,1.64-1.14.34-2.99,1.01-3.52,1.54-.62.63-1.87,1.8-1.23,2.79.37.57,1.04.49,1.71.66.5.13,1.07.17,1.53.23,1.09.14,1.51-.48,1.88-.37.43.13,1.33.56,2.76.33,1.12-.18,1.33-.48,1.61-.42.58.11,1.4.18,2-.36Z"/><path class="cls-45" d="m14.02,9.25c.86-.72.74-1.61.36-2.14-.37-.51-.65-.74-1.33-1.05-.52-.23-.09-2.07-1.37-2.73-1.16-.61-3.24,1.37-4.24,1.67-1.13.34-2.96.98-3.44,1.47-.57.57-1.9,1.75-1.24,2.74.36.55,1.04.43,1.73.59.5.12,1.08.13,1.54.18,1.09.12,1.49-.54,1.84-.43.42.13,1.29.59,2.72.36,1.12-.18,1.29-.49,1.55-.42.55.14,1.28.26,1.88-.24Z"/><path class="cls-41" d="m13.86,9.18c.86-.67.79-1.49.41-1.99-.38-.49-.6-.67-1.28-.97-.51-.22-.03-2.13-1.31-2.83-1.15-.63-3.23,1.39-4.22,1.69-1.12.34-2.93.96-3.37,1.4-.52.51-1.93,1.69-1.25,2.68.36.53,1.04.37,1.74.52.5.1,1.1.1,1.55.14,1.1.09,1.47-.6,1.8-.48.42.14,1.25.61,2.68.39,1.13-.18,1.25-.49,1.5-.41.52.17,1.17.33,1.76-.12Z"/><path class="cls-37" d="m13.7,9.11c.86-.62.83-1.38.45-1.84-.38-.47-.56-.6-1.23-.9-.49-.21.03-2.2-1.26-2.94-1.13-.65-3.22,1.41-4.2,1.71-1.11.34-2.9.94-3.3,1.33-.47.46-1.96,1.63-1.27,2.63.36.51,1.03.32,1.76.44.51.09,1.11.07,1.56.09,1.11.07,1.45-.65,1.76-.54.41.15,1.21.64,2.64.41,1.14-.18,1.21-.5,1.45-.41.48.19,1.06.41,1.64,0Z"/><path class="cls-65" d="m13.55,9.04c.87-.57.87-1.26.5-1.69-.39-.45-.52-.54-1.18-.82-.47-.2.09-2.26-1.21-3.04-1.12-.67-3.21,1.44-4.17,1.73-1.11.34-2.87.91-3.23,1.25-.42.4-2,1.58-1.28,2.58.35.48,1.03.26,1.77.37.51.08,1.12.03,1.57.05,1.12.05,1.43-.71,1.72-.59.4.16,1.17.66,2.6.44,1.14-.18,1.18-.51,1.39-.4.45.22.95.49,1.51.12Z"/><path class="cls-12" d="m13.39,8.98c.87-.52.91-1.14.55-1.54-.39-.43-.48-.47-1.13-.75-.45-.2.14-2.33-1.16-3.15-1.1-.69-3.2,1.46-4.15,1.75-1.1.34-2.84.89-3.16,1.18-.37.35-2.03,1.52-1.29,2.52.34.46,1.03.2,1.79.3.52.07,1.14,0,1.58,0,1.12.02,1.41-.76,1.68-.64.39.17,1.13.69,2.56.47,1.15-.17,1.14-.52,1.34-.39.42.25.84.57,1.39.24Z"/></g><path class="cls-16" d="m13.43,6.67c.09-.31.13-.64.13-.98,0-2.02-1.64-3.65-3.65-3.65-1.71,0-3.14,1.17-3.54,2.76-.04,0-.07,0-.11,0-.8,0-1.5.41-1.91,1.03-.21-.09-.44-.13-.68-.13-.98,0-1.77.79-1.77,1.77s.79,1.77,1.77,1.77c.43,0,.82-.15,1.13-.41.39.33.9.52,1.45.52.62,0,1.17-.25,1.58-.64.59.41,1.3.64,2.07.64.7,0,1.36-.2,1.91-.54.25.32.64.52,1.08.52.76,0,1.38-.62,1.38-1.38,0-.57-.35-1.07-.85-1.27Z"/><path class="cls-26" d="m13.48,6.72c.09-.31.13-.64.13-.98,0-2.02-1.63-3.65-3.65-3.65-1.71,0-3.14,1.17-3.54,2.76-.04,0-.07,0-.11,0-.8,0-1.5.41-1.91,1.03-.21-.09-.44-.13-.68-.13-.98,0-1.77.79-1.77,1.77s.79,1.77,1.77,1.77c.43,0,.82-.15,1.13-.41.39.33.9.52,1.45.52.62,0,1.17-.25,1.58-.64.59.41,1.3.64,2.07.64.7,0,1.36-.2,1.91-.54.25.32.64.52,1.08.52.76,0,1.38-.62,1.38-1.38,0-.57-.35-1.07-.85-1.27Z"/></g><g><g class="cls-17"><path class="cls-27" d="m23.45,11.5c1.07-.91.88-3.72.33-4.47-.72-.99-1.48-1.59-2.14-1.92-.66-.33-2.51-.62-3.35-.62-1.18,0-2.33.29-3.29.54-1.03.27-3.05,1.01-4.01,2.07-1.12,1.23-.13,3.67.15,4.03.54.67,1.18,1.34,2,1.73.78.37,1.46.36,2.04.4.44.03,2.4.25,3.55,0,.81-.17,2.19-.42,2.59-.62.37-.18,1.27-.42,2.13-1.14Z"/><path class="cls-2" d="m23.27,11.41c1.06-.88.88-3.6.34-4.36-.71-.99-1.47-1.56-2.12-1.88-.65-.32-2.42-.61-3.25-.62-1.15,0-2.3.27-3.24.52-1.02.27-3.02,1.01-3.94,2.03-1.08,1.18-.16,3.56.15,3.94.52.65,1.13,1.31,1.95,1.69.77.36,1.44.33,2,.37.43.03,2.33.28,3.48.04.82-.17,2.15-.44,2.53-.63.36-.18,1.26-.39,2.11-1.1Z"/><path class="cls-4" d="m23.1,11.32c1.04-.85.88-3.48.35-4.25-.69-.99-1.45-1.53-2.09-1.85-.63-.31-2.32-.6-3.14-.61-1.12-.02-2.27.25-3.2.5-1.01.27-2.99,1.02-3.88,1.99-1.04,1.14-.18,3.45.14,3.85.5.63,1.08,1.28,1.9,1.65.76.35,1.42.3,1.96.35.43.04,2.25.31,3.4.07.82-.17,2.1-.46,2.47-.65.36-.18,1.25-.37,2.09-1.06Z"/><path class="cls-18" d="m22.93,11.23c1.03-.82.88-3.36.35-4.13-.68-1-1.43-1.5-2.07-1.81-.62-.3-2.23-.59-3.04-.61-1.09-.03-2.23.23-3.16.48-1.01.27-2.96,1.02-3.82,1.95-1,1.09-.2,3.34.13,3.75.49.6,1.03,1.25,1.85,1.62.75.34,1.4.28,1.93.33.42.04,2.18.34,3.33.11.83-.17,2.06-.48,2.42-.66.36-.18,1.24-.35,2.08-1.02Z"/><path class="cls-22" d="m22.75,11.13c1.01-.79.88-3.24.36-4.02-.67-1-1.41-1.47-2.04-1.78-.6-.3-2.13-.58-2.93-.61-1.06-.04-2.2.21-3.11.46-1,.27-2.93,1.02-3.75,1.91-.96,1.05-.23,3.23.12,3.66.47.58.98,1.22,1.8,1.58.75.32,1.38.25,1.89.31.42.05,2.11.37,3.25.14.83-.17,2.01-.5,2.36-.68.36-.18,1.22-.32,2.06-.97Z"/><path class="cls-55" d="m22.58,11.04c1-.77.88-3.12.36-3.91-.65-1-1.39-1.43-2.02-1.74-.59-.29-2.03-.58-2.83-.61-1.03-.05-2.16.19-3.07.44-.99.27-2.9,1.02-3.69,1.88-.93,1-.25,3.12.12,3.57.46.56.93,1.19,1.75,1.54.74.31,1.36.23,1.86.29.41.05,2.03.4,3.18.17.84-.16,1.96-.52,2.3-.69.36-.18,1.21-.3,2.04-.93Z"/><path class="cls-53" d="m22.41,10.95c.98-.74.88-2.99.37-3.8-.64-1.01-1.37-1.4-1.99-1.7-.58-.28-1.94-.57-2.72-.61-1-.06-2.13.17-3.03.42-.99.27-2.87,1.02-3.63,1.84-.89.96-.28,3,.11,3.48.44.54.87,1.17,1.7,1.5.73.3,1.34.2,1.82.27.41.05,1.96.43,3.11.2.85-.16,1.92-.54,2.25-.71.35-.18,1.2-.27,2.02-.89Z"/><path class="cls-51" d="m22.23,10.86c.97-.71.88-2.87.38-3.68-.63-1.01-1.35-1.37-1.97-1.67-.56-.27-1.84-.56-2.62-.61-.97-.06-2.1.15-2.99.4-.98.27-2.84,1.02-3.56,1.8-.85.91-.3,2.89.1,3.39.42.52.82,1.14,1.65,1.47.72.29,1.32.18,1.78.25.4.06,1.88.46,3.03.24.85-.16,1.87-.56,2.19-.73.35-.18,1.19-.25,2-.85Z"/><path class="cls-60" d="m22.06,10.76c.95-.68.88-2.75.38-3.57-.61-1.01-1.33-1.34-1.94-1.63-.55-.26-1.74-.55-2.51-.61-.94-.07-2.06.13-2.94.38-.97.27-2.81,1.02-3.5,1.76-.81.87-.33,2.78.1,3.3.41.5.77,1.11,1.6,1.43.71.27,1.31.15,1.75.22.39.06,1.81.48,2.96.27.86-.16,1.83-.59,2.13-.74.35-.18,1.17-.23,1.98-.8Z"/><path class="cls-58" d="m21.89,10.67c.94-.65.88-2.63.39-3.46-.6-1.01-1.32-1.31-1.92-1.6-.53-.25-1.65-.54-2.41-.61-.91-.08-2.03.11-2.9.36-.96.27-2.78,1.02-3.44,1.72-.77.82-.35,2.67.09,3.2.39.48.72,1.08,1.55,1.39.7.26,1.29.13,1.71.2.39.07,1.74.51,2.88.3.86-.16,1.78-.6,2.08-.76.35-.18,1.16-.2,1.96-.76Z"/><path class="cls-36" d="m21.71,10.58c.92-.62.88-2.51.4-3.34-.59-1.02-1.3-1.28-1.89-1.56-.52-.25-1.55-.53-2.3-.61-.88-.09-1.99.09-2.86.34-.96.27-2.75,1.02-3.37,1.68-.73.78-.37,2.56.08,3.11.38.46.67,1.06,1.5,1.36.69.25,1.27.1,1.67.18.38.07,1.66.54,2.81.33.87-.15,1.73-.62,2.02-.77.34-.18,1.15-.18,1.94-.72Z"/><path class="cls-33" d="m21.54,10.49c.91-.6.88-2.39.4-3.23-.58-1.02-1.28-1.25-1.87-1.52-.5-.24-1.46-.53-2.19-.61-.85-.1-1.96.07-2.81.32-.95.27-2.72,1.02-3.31,1.65-.69.73-.4,2.45.07,3.02.36.43.61,1.03,1.45,1.32.68.24,1.25.08,1.64.16.38.08,1.59.57,2.74.37.87-.15,1.69-.65,1.96-.79.34-.18,1.13-.15,1.92-.68Z"/><path class="cls-29" d="m21.37,10.39c.89-.57.88-2.26.41-3.12-.56-1.02-1.26-1.22-1.84-1.49-.49-.23-1.36-.52-2.09-.61-.82-.1-1.93.05-2.77.3-.94.27-2.69,1.02-3.25,1.61-.65.68-.42,2.34.07,2.93.34.41.56,1,1.4,1.28.67.23,1.23.06,1.6.14.37.08,1.52.6,2.66.4.88-.15,1.64-.67,1.91-.8.34-.18,1.12-.13,1.91-.64Z"/><path class="cls-31" d="m21.19,10.3c.87-.54.88-2.14.42-3-.55-1.02-1.24-1.18-1.82-1.45-.48-.22-1.26-.51-1.98-.61-.79-.11-1.89.03-2.73.28-.94.27-2.66,1.02-3.18,1.57-.61.64-.45,2.23.06,2.84.33.39.51.97,1.35,1.24.67.22,1.21.03,1.56.12.36.09,1.44.63,2.59.43.88-.15,1.6-.69,1.85-.82.34-.18,1.1-.11,1.89-.59Z"/><path class="cls-64" d="m21.02,10.21c.86-.51.88-2.02.42-2.89-.54-1.02-1.22-1.15-1.79-1.41-.46-.21-1.17-.5-1.88-.61-.76-.12-1.86.02-2.69.26-.93.27-2.63,1.02-3.12,1.53-.57.59-.47,2.11.05,2.74.31.37.46.95,1.3,1.21.66.2,1.19,0,1.53.09.36.09,1.37.66,2.52.46.89-.15,1.55-.71,1.79-.84.34-.18,1.09-.09,1.87-.55Z"/><path class="cls-48" d="m20.84,10.12c.84-.49.88-1.9.43-2.78-.53-1.03-1.2-1.12-1.77-1.38-.45-.2-1.07-.49-1.77-.61-.73-.12-1.82,0-2.64.24-.92.27-2.6,1.02-3.06,1.49-.53.55-.5,2,.04,2.65.29.35.41.92,1.25,1.17.65.19,1.17-.01,1.49.07.35.1,1.29.69,2.44.5.89-.15,1.5-.73,1.73-.85.33-.18,1.08-.06,1.85-.51Z"/><path class="cls-43" d="m20.67,10.03c.82-.46.88-1.78.44-2.66-.51-1.03-1.19-1.09-1.74-1.34-.43-.2-.98-.48-1.67-.61-.7-.13-1.79-.02-2.6.22-.92.27-2.57,1.02-2.99,1.45-.5.5-.52,1.89.04,2.56.28.33.35.89,1.2,1.13.64.18,1.16-.04,1.45.05.35.1,1.22.72,2.37.53.9-.15,1.46-.75,1.68-.87.33-.18,1.06-.04,1.83-.47Z"/><path class="cls-45" d="m20.5,9.93c.81-.43.88-1.65.44-2.55-.5-1.03-1.17-1.06-1.72-1.31-.42-.19-.88-.47-1.56-.61-.67-.14-1.76-.04-2.56.2-.91.27-2.54,1.02-2.93,1.42-.46.46-.55,1.78.03,2.47.26.31.3.87,1.15,1.1.63.17,1.14-.06,1.42.03.34.11,1.15.75,2.29.56.9-.15,1.41-.77,1.62-.88.33-.18,1.05-.02,1.81-.42Z"/><path class="cls-41" d="m20.32,9.84c.79-.41.88-1.53.45-2.44-.49-1.03-1.15-1.03-1.69-1.27-.41-.18-.78-.46-1.46-.61-.64-.14-1.72-.06-2.51.18-.9.27-2.51,1.03-2.87,1.38-.42.41-.57,1.67.02,2.38.24.29.25.84,1.1,1.06.62.16,1.12-.08,1.38,0,.33.12,1.07.78,2.22.59.91-.14,1.37-.79,1.56-.9.33-.18,1.04,0,1.79-.38Z"/><path class="cls-37" d="m20.15,9.75c.78-.38.88-1.41.46-2.32-.48-1.03-1.13-1-1.67-1.23-.39-.17-.69-.45-1.35-.61-.61-.15-1.69-.08-2.47.16-.9.27-2.48,1.03-2.8,1.34-.38.37-.6,1.56.01,2.29.23.27.2.81,1.05,1.02.61.15,1.1-.11,1.35-.01.33.12,1,.81,2.15.63.91-.14,1.32-.81,1.51-.91.32-.18,1.02.03,1.77-.34Z"/><path class="cls-65" d="m19.98,9.66c.76-.36.88-1.29.46-2.21-.47-1.04-1.11-.97-1.64-1.2-.38-.17-.59-.44-1.25-.61-.59-.15-1.66-.1-2.43.14-.89.27-2.45,1.03-2.74,1.3-.34.32-.62,1.45,0,2.19.21.25.14.79,1,.99.6.14,1.08-.13,1.31-.03.32.13.92.84,2.07.66.92-.14,1.27-.83,1.45-.93.32-.18,1.01.05,1.75-.3Z"/><path class="cls-12" d="m19.8,9.56c.74-.33.88-1.17.47-2.1-.45-1.04-1.09-.94-1.62-1.16-.36-.16-.5-.42-1.14-.61-.56-.16-1.62-.12-2.39.12-.88.27-2.42,1.03-2.68,1.26-.3.28-.65,1.34,0,2.1.19.22.09.76.95.95.59.13,1.06-.15,1.27-.06.31.14.85.87,2,.69.92-.14,1.23-.85,1.39-.95.32-.18,1,.07,1.74-.25Z"/></g><path class="cls-16" d="m18.81,6.07s-.08,0-.12,0c-.21-.61-.79-1.04-1.47-1.04-.2,0-.4.04-.58.11-.21-.58-.77-1-1.43-1s-1.18.39-1.41.95c-.07-.01-.15-.02-.23-.02-.69,0-1.26.52-1.33,1.19-.1-.02-.2-.03-.3-.03-.83,0-1.5.67-1.5,1.5s.67,1.5,1.5,1.5c.01,0,.03,0,.04,0,.15.61.69,1.06,1.35,1.06.5,0,.95-.27,1.19-.67.33.56.94.94,1.64.94.78,0,1.44-.46,1.74-1.13.26.15.57.24.9.24,1,0,1.81-.81,1.81-1.81s-.81-1.81-1.81-1.81Z"/><path class="cls-25" d="m18.87,6.13s-.08,0-.12,0c-.21-.61-.79-1.04-1.47-1.04-.2,0-.4.04-.58.11-.21-.58-.77-1-1.43-1s-1.18.4-1.41.95c-.07-.01-.15-.02-.23-.02-.69,0-1.26.52-1.33,1.19-.1-.02-.2-.03-.3-.03-.83,0-1.5.67-1.5,1.5s.67,1.5,1.5,1.5c.01,0,.03,0,.04,0,.15.61.69,1.06,1.35,1.06.51,0,.95-.27,1.19-.67.33.56.94.94,1.64.94.78,0,1.44-.46,1.74-1.13.26.15.57.24.9.24,1,0,1.81-.81,1.81-1.81s-.81-1.81-1.81-1.81Z"/></g><g><g class="cls-17"><path class="cls-27" d="m22.14,8.2c1.28-1.33,1.19-4.04.49-5.01-.93-1.27-2.05-1.74-2.9-2.17-.85-.42-2.08-.82-3.16-.98-1.33-.2-2.79.37-4.02.7-1.32.35-5.41,1.73-6.65,3.09-.68.75-.85,1.72-.75,2.62.11,1,.56,1.9.75,2.14.69.86,3.21,1.73,4.26,2.23,1,.48,1.87.46,2.62.51.57.04,2.16,0,3.64-.31,1.05-.22,2.09-1.03,2.6-1.28.47-.23,2.15-.53,3.12-1.54Z"/><path class="cls-2" d="m21.95,8.12c1.26-1.28,1.2-3.94.5-4.9-.91-1.26-2.01-1.7-2.85-2.12-.83-.41-2-.8-3.08-.97-1.29-.2-2.72.34-3.94.67-1.31.36-5.42,1.73-6.62,3.02-.68.73-.85,1.7-.73,2.58.13.98.6,1.84.82,2.08.7.8,3.09,1.69,4.15,2.18.99.47,1.84.42,2.57.48.56.04,2.09.05,3.6-.27,1.05-.22,2.06-1.04,2.55-1.29.47-.23,2.07-.5,3.04-1.47Z"/><path class="cls-4" d="m21.75,8.04c1.25-1.23,1.2-3.83.52-4.79-.88-1.24-1.97-1.66-2.79-2.07-.81-.4-1.93-.78-3-.96-1.26-.21-2.65.31-3.86.65-1.3.36-5.43,1.73-6.6,2.96-.68.72-.85,1.68-.72,2.54.15.96.65,1.78.88,2.02.71.74,2.98,1.65,4.03,2.13.98.45,1.81.39,2.52.45.55.05,2.02.11,3.56-.22,1.06-.23,2.03-1.05,2.5-1.29.46-.23,2-.46,2.97-1.41Z"/><path class="cls-18" d="m21.56,7.96c1.23-1.19,1.2-3.72.53-4.68-.86-1.22-1.92-1.62-2.74-2.02-.79-.39-1.85-.77-2.92-.95-1.23-.21-2.59.28-3.79.62-1.29.36-5.45,1.73-6.58,2.89-.68.7-.85,1.65-.7,2.5.16.95.7,1.72.95,1.96.71.69,2.87,1.61,3.92,2.08.97.43,1.78.35,2.47.42.54.05,1.96.16,3.52-.18,1.06-.23,2-1.06,2.46-1.3.46-.23,1.93-.42,2.89-1.34Z"/><path class="cls-22" d="m21.37,7.88c1.22-1.15,1.21-3.62.55-4.57-.84-1.2-1.88-1.58-2.69-1.97-.77-.38-1.77-.75-2.84-.94-1.2-.22-2.52.25-3.71.59-1.28.36-5.46,1.72-6.56,2.83-.68.68-.85,1.63-.69,2.47.18.93.74,1.65,1.01,1.9.7.63,2.76,1.57,3.81,2.02.96.42,1.75.32,2.41.39.54.06,1.89.22,3.47-.13,1.07-.23,1.96-1.08,2.41-1.3.46-.23,1.86-.38,2.82-1.28Z"/><path class="cls-55" d="m21.18,7.8c1.2-1.1,1.21-3.51.56-4.46-.82-1.19-1.84-1.54-2.64-1.93-.76-.37-1.69-.74-2.76-.94-1.17-.22-2.45.23-3.64.57-1.27.36-5.48,1.72-6.54,2.76-.68.67-.84,1.61-.67,2.43.19.91.79,1.59,1.08,1.83.69.58,2.64,1.53,3.7,1.97.95.4,1.73.28,2.36.36.53.06,1.82.28,3.43-.09,1.07-.24,1.93-1.09,2.37-1.31.46-.23,1.79-.34,2.74-1.22Z"/><path class="cls-53" d="m20.99,7.72c1.19-1.05,1.21-3.41.58-4.35-.8-1.17-1.79-1.49-2.59-1.88-.74-.36-1.61-.72-2.68-.93-1.14-.22-2.38.19-3.56.54-1.26.37-5.49,1.71-6.52,2.7-.68.65-.84,1.59-.65,2.39.21.89.83,1.53,1.14,1.77.68.54,2.53,1.49,3.59,1.92.93.38,1.7.25,2.31.33.52.07,1.76.33,3.39-.04,1.08-.24,1.9-1.1,2.32-1.31.45-.23,1.71-.31,2.67-1.15Z"/><path class="cls-51" d="m20.8,7.64c1.17-1.01,1.22-3.31.59-4.23-.78-1.15-1.75-1.45-2.53-1.83-.72-.35-1.53-.7-2.6-.92-1.11-.23-2.31.17-3.49.51-1.25.37-5.5,1.71-6.5,2.64-.68.63-.84,1.57-.64,2.36.23.87.87,1.47,1.21,1.71.67.49,2.42,1.45,3.47,1.87.92.37,1.67.21,2.25.3.51.07,1.69.39,3.35,0,1.08-.25,1.87-1.11,2.28-1.32.45-.23,1.64-.27,2.59-1.09Z"/><path class="cls-60" d="m20.61,7.57c1.16-.97,1.22-3.2.61-4.12-.76-1.14-1.7-1.41-2.48-1.78-.7-.34-1.46-.69-2.52-.91-1.08-.23-2.24.13-3.41.49-1.24.37-5.52,1.7-6.47,2.57-.68.62-.84,1.55-.62,2.32.24.86.91,1.4,1.27,1.65.65.45,2.31,1.41,3.36,1.82.91.35,1.64.18,2.2.27.5.08,1.62.44,3.31.05,1.08-.25,1.84-1.12,2.23-1.32.45-.23,1.57-.23,2.52-1.02Z"/><path class="cls-58" d="m20.42,7.49c1.14-.92,1.23-3.09.62-4.01-.74-1.12-1.66-1.37-2.43-1.73-.68-.33-1.38-.67-2.44-.9-1.04-.23-2.18.11-3.33.46-1.23.37-5.54,1.7-6.45,2.51-.68.6-.84,1.53-.6,2.28.26.84.92,1.41,1.33,1.59.55.51,2.19,1.37,3.25,1.77.9.34,1.61.15,2.15.24.5.08,1.56.5,3.27.09,1.09-.25,1.81-1.13,2.18-1.33.44-.23,1.5-.2,2.44-.96Z"/><path class="cls-36" d="m20.23,7.41c1.13-.88,1.23-2.99.64-3.9-.72-1.1-1.62-1.33-2.38-1.68-.66-.31-1.3-.65-2.36-.9-1.01-.23-2.11.08-3.26.43-1.21.38-5.56,1.69-6.43,2.45-.68.58-.83,1.5-.59,2.25.27.82.96,1.36,1.4,1.52.54.47,2.08,1.33,3.14,1.71.88.32,1.58.11,2.1.21.49.09,1.49.55,3.23.14,1.09-.26,1.77-1.14,2.14-1.33.44-.23,1.42-.16,2.37-.9Z"/><path class="cls-33" d="m20.04,7.33c1.11-.83,1.23-2.88.65-3.79-.69-1.08-1.58-1.28-2.32-1.63-.65-.3-1.22-.63-2.28-.89-.98-.24-2.04.05-3.18.41-1.2.38-5.57,1.68-6.41,2.38-.68.57-.83,1.48-.57,2.21.29.8,1,1.3,1.46,1.46.52.43,1.97,1.29,3.03,1.66.87.31,1.55.08,2.04.18.48.1,1.42.6,3.19.18,1.1-.26,1.74-1.15,2.09-1.33.44-.23,1.35-.13,2.29-.83Z"/><path class="cls-29" d="m19.85,7.25c1.09-.79,1.24-2.78.67-3.68-.67-1.07-1.53-1.24-2.27-1.59-.63-.29-1.14-.62-2.2-.88-.95-.24-1.97.02-3.11.38-1.19.38-5.59,1.68-6.39,2.32-.68.55-.83,1.46-.55,2.17.3.78,1.04,1.25,1.53,1.4.51.39,1.85,1.25,2.92,1.61.86.29,1.52.04,1.99.15.47.1,1.36.66,3.15.23,1.1-.26,1.71-1.16,2.05-1.34.43-.23,1.28-.09,2.22-.77Z"/><path class="cls-31" d="m19.66,7.17c1.08-.75,1.24-2.67.68-3.57-.65-1.05-1.49-1.2-2.22-1.54-.61-.28-1.07-.6-2.12-.87-.92-.24-1.9-.01-3.03.35-1.18.38-5.61,1.67-6.37,2.25-.69.53-.83,1.44-.54,2.14.32.77,1.08,1.2,1.59,1.34.49.35,1.74,1.21,2.8,1.56.85.28,1.49.01,1.94.12.46.11,1.29.72,3.11.27,1.11-.27,1.68-1.17,2-1.34.43-.23,1.2-.05,2.14-.71Z"/><path class="cls-64" d="m19.46,7.09c1.06-.7,1.24-2.57.7-3.46-.63-1.03-1.44-1.16-2.17-1.49-.59-.27-.99-.58-2.04-.86-.89-.24-1.83-.04-2.95.32-1.17.38-5.63,1.66-6.35,2.19-.69.51-.83,1.42-.52,2.1.34.75,1.15,1.05,1.66,1.28.52.23,1.63,1.17,2.69,1.51.84.26,1.46-.02,1.88.09.46.12,1.22.77,3.07.32,1.11-.27,1.65-1.18,1.95-1.35.42-.23,1.13-.02,2.07-.64Z"/><path class="cls-48" d="m19.27,7.01c1.04-.66,1.25-2.46.71-3.35-.61-1.01-1.4-1.12-2.11-1.44-.57-.26-.91-.56-1.96-.85-.86-.24-1.77-.07-2.88.3-1.16.38-5.66,1.65-6.32,2.12-.69.49-.82,1.4-.5,2.06.35.73,1.18,1,1.72,1.21.5.2,1.51,1.14,2.58,1.46.82.25,1.43-.05,1.83.06.45.12,1.16.83,3.03.36,1.11-.27,1.61-1.2,1.91-1.35.42-.23,1.06.02,1.99-.58Z"/><path class="cls-43" d="m19.08,6.93c1.03-.62,1.25-2.36.73-3.24-.59-1-1.36-1.07-2.06-1.39-.55-.25-.83-.54-1.88-.85-.83-.24-1.7-.1-2.8.27-1.15.39-5.68,1.64-6.3,2.06-.7.47-.82,1.38-.49,2.03.37.71,1.22.95,1.79,1.15.48.17,1.4,1.1,2.47,1.4.81.23,1.4-.09,1.78.03.44.13,1.09.89,2.99.41,1.12-.28,1.58-1.21,1.86-1.36.42-.23.98.05,1.92-.51Z"/><path class="cls-45" d="m18.89,6.85c1.01-.58,1.25-2.25.74-3.12-.57-.98-1.31-1.04-2.01-1.35-.53-.24-.75-.52-1.8-.84-.8-.24-1.63-.13-2.73.24-1.14.39-5.7,1.62-6.28,2-.7.45-.82,1.36-.47,1.99.38.7,1.25.9,1.85,1.09.45.14,1.29,1.06,2.36,1.35.8.22,1.37-.12,1.73,0,.43.14,1.02.94,2.95.45,1.12-.28,1.55-1.22,1.82-1.36.41-.23.91.09,1.84-.45Z"/><path class="cls-41" d="m18.7,6.78c.99-.54,1.26-2.15.76-3.01-.55-.96-1.27-.99-1.96-1.3-.52-.23-.68-.5-1.72-.83-.77-.24-1.56-.16-2.65.21-1.13.39-5.72,1.61-6.26,1.93-.71.43-.82,1.33-.45,1.95.4.68,1.29.86,1.92,1.03.43.11,1.17,1.02,2.24,1.3.79.2,1.34-.15,1.67-.03.42.15.96,1,2.91.5,1.13-.29,1.52-1.23,1.77-1.37.41-.23.83.12,1.77-.39Z"/><path class="cls-37" d="m18.51,6.7c.97-.49,1.26-2.04.77-2.9-.53-.94-1.23-.95-1.9-1.25-.5-.22-.6-.48-1.64-.82-.74-.24-1.49-.19-2.58.19-1.12.39-5.75,1.59-6.24,1.87-.72.4-.82,1.31-.44,1.91.41.66,1.32.82,1.98.96.41.09,1.06.99,2.13,1.25.77.19,1.31-.18,1.62-.06.41.15.89,1.05,2.87.54,1.13-.29,1.49-1.24,1.72-1.37.41-.23.76.15,1.69-.32Z"/><path class="cls-65" d="m18.32,6.62c.96-.45,1.26-1.93.79-2.79-.51-.92-1.18-.91-1.85-1.2-.48-.21-.52-.46-1.56-.81-.71-.24-1.43-.22-2.5.16-1.11.39-5.77,1.58-6.22,1.8-.73.37-.81,1.29-.42,1.88.43.64,1.36.79,2.05.9.39.06.94.95,2.02,1.2.76.18,1.27-.21,1.57-.09.4.16.82,1.11,2.83.59,1.14-.29,1.46-1.25,1.68-1.38.4-.23.68.19,1.62-.26Z"/><path class="cls-12" d="m18.13,6.54c.94-.41,1.27-1.83.81-2.68-.49-.91-1.14-.87-1.8-1.15-.46-.2-.45-.44-1.48-.8-.68-.24-1.36-.25-2.42.13-1.09.4-5.8,1.56-6.2,1.74-.74.33-.81,1.27-.4,1.84.45.62,1.4.76,2.11.84.37.04.83.91,1.91,1.15.75.16,1.24-.24,1.51-.12.39.17.76,1.16,2.79.63,1.14-.3,1.42-1.26,1.63-1.38.4-.23.61.22,1.54-.19Z"/></g><path class="cls-10" d="m17.33,2.42c-.08,0-.16,0-.24.01-.3-.89-1.15-1.54-2.15-1.54-.46,0-.89.14-1.25.37-.25-.67-.89-1.15-1.65-1.15-.85,0-1.56.61-1.72,1.42-.24-.18-.54-.29-.86-.29-.74,0-1.35.56-1.44,1.27h-.01c-1.15,0-2.08.93-2.08,2.09s.93,2.08,2.08,2.08c.37,0,.71-.09,1.01-.26.11.72.73,1.28,1.48,1.28.6,0,1.11-.35,1.35-.85.46.67,1.23,1.12,2.11,1.12,1.13,0,2.09-.74,2.43-1.76.28.14.59.22.92.22,1.11,0,2.01-.9,2.01-2.01s-.9-2.01-2.01-2.01Z"/><path class="cls-9" d="m17.4,2.48c-.08,0-.16,0-.24.01-.3-.89-1.15-1.54-2.15-1.54-.46,0-.89.14-1.25.37-.25-.67-.89-1.15-1.64-1.15-.85,0-1.56.61-1.72,1.42-.24-.18-.54-.29-.86-.29-.74,0-1.35.56-1.44,1.27h-.01c-1.15,0-2.09.93-2.09,2.08s.93,2.09,2.09,2.09c.37,0,.71-.09,1.01-.26.11.72.73,1.28,1.48,1.28.6,0,1.11-.35,1.35-.85.46.67,1.23,1.12,2.11,1.12,1.13,0,2.09-.74,2.43-1.76.28.14.59.22.92.22,1.11,0,2.01-.9,2.01-2.01s-.9-2.01-2.01-2.01Z"/></g><g><g class="cls-17"><path class="cls-27" d="m14.15,10.97c.66-.98.34-2.78-.12-3.41-.6-.83-1.39-1.2-1.94-1.47-.55-.28-1.76-.77-2.46-.77-.99,0-1.49.37-2.29.58-.86.23-2.33,1.58-3.13,2.46-.94,1.03-.7,2.58-.46,2.88.45.56.99,1.12,1.67,1.45.65.31,1.22.3,1.71.33.37.03.8.21,1.76,0,.68-.14,1.01-.2,1.36-.31.74-.23,3.1-.56,3.9-1.74Z"/><path class="cls-2" d="m14.02,10.93c.66-.94.38-2.69-.07-3.33-.59-.83-1.39-1.18-1.93-1.45-.54-.27-1.71-.77-2.41-.78-.96,0-1.48.34-2.27.56-.86.23-2.29,1.56-3.06,2.41-.91.99-.73,2.5-.47,2.82.44.54.96,1.09,1.65,1.41.66.3,1.21.26,1.68.3.36.03.8.21,1.76.01.69-.14,1.02-.2,1.36-.3.72-.21,2.99-.51,3.78-1.65Z"/><path class="cls-4" d="m13.88,10.89c.65-.91.42-2.6-.03-3.24-.58-.83-1.38-1.16-1.92-1.42-.53-.26-1.67-.78-2.36-.79-.94-.02-1.48.32-2.26.53-.85.23-2.25,1.55-3,2.36-.87.95-.75,2.43-.48,2.76.42.53.93,1.07,1.62,1.36.66.29,1.2.23,1.66.27.36.03.79.21,1.76.01.69-.14,1.03-.21,1.36-.3.7-.19,2.87-.46,3.66-1.55Z"/><path class="cls-18" d="m13.74,10.85c.65-.88.46-2.5.02-3.16-.57-.84-1.38-1.14-1.91-1.4-.52-.26-1.63-.78-2.31-.8-.91-.02-1.47.3-2.25.51-.84.23-2.21,1.53-2.93,2.32-.84.92-.77,2.35-.49,2.7.41.51.9,1.04,1.59,1.32.67.27,1.19.2,1.64.24.36.04.79.21,1.75.02.7-.14,1.04-.22,1.36-.3.68-.17,2.76-.41,3.54-1.46Z"/><path class="cls-22" d="m13.61,10.8c.65-.85.5-2.41.06-3.07-.56-.84-1.37-1.12-1.9-1.38-.51-.25-1.58-.79-2.26-.81-.89-.03-1.46.28-2.23.49-.84.23-2.18,1.52-2.87,2.27-.81.88-.8,2.28-.5,2.64.4.49.87,1.02,1.57,1.28.67.26,1.19.17,1.61.21.35.04.79.21,1.75.02.7-.14,1.05-.22,1.36-.3.66-.16,2.65-.36,3.42-1.36Z"/><path class="cls-55" d="m13.47,10.76c.64-.81.54-2.32.11-2.98-.55-.84-1.37-1.1-1.89-1.35-.49-.24-1.54-.79-2.21-.83-.86-.04-1.46.25-2.22.46-.83.23-2.14,1.5-2.8,2.22-.78.84-.82,2.2-.51,2.59.38.47.84.99,1.54,1.24.68.24,1.18.13,1.59.18.35.04.78.21,1.75.02.7-.14,1.06-.23,1.36-.29.63-.13,2.53-.31,3.29-1.27Z"/><path class="cls-53" d="m13.34,10.72c.64-.78.58-2.22.15-2.9-.54-.84-1.36-1.08-1.88-1.33-.48-.23-1.5-.8-2.15-.84-.84-.05-1.45.23-2.21.44-.83.23-2.1,1.49-2.74,2.18-.74.8-.85,2.13-.52,2.53.37.45.81.96,1.51,1.2.68.23,1.17.1,1.57.15.34.05.78.21,1.74.03.71-.14,1.07-.23,1.36-.29.61-.12,2.42-.26,3.17-1.17Z"/><path class="cls-51" d="m13.2,10.67c.64-.75.62-2.13.2-2.81-.53-.84-1.36-1.06-1.87-1.31-.47-.23-1.45-.8-2.1-.85-.81-.05-1.45.21-2.19.42-.82.23-2.07,1.48-2.67,2.13-.71.76-.87,2.05-.53,2.47.36.44.78.94,1.48,1.16.69.22,1.16.07,1.54.12.33.05.78.21,1.74.03.71-.13,1.08-.24,1.36-.29.59-.1,2.31-.21,3.05-1.08Z"/><path class="cls-60" d="m13.06,10.63c.64-.72.66-2.04.24-2.72-.52-.85-1.35-1.04-1.86-1.28-.46-.22-1.41-.81-2.05-.86-.79-.06-1.44.19-2.18.4-.81.23-2.03,1.46-2.61,2.09-.68.73-.89,1.98-.54,2.41.34.42.76.91,1.46,1.12.69.2,1.15.04,1.52.1.33.05.77.21,1.74.03.72-.13,1.09-.25,1.36-.28.57-.08,2.2-.16,2.93-.99Z"/><path class="cls-58" d="m12.93,10.59c.64-.68.7-1.94.29-2.64-.5-.85-1.35-1.02-1.85-1.26-.45-.21-1.37-.82-2-.87-.76-.07-1.43.16-2.16.37-.81.23-1.99,1.45-2.54,2.04-.65.69-.92,1.9-.55,2.35.33.4.73.88,1.43,1.07.7.19,1.14,0,1.5.07.33.06.77.21,1.73.04.72-.13,1.1-.25,1.35-.28.55-.06,2.08-.11,2.81-.89Z"/><path class="cls-36" d="m12.79,10.54c.63-.65.74-1.85.33-2.55-.49-.85-1.35-1-1.84-1.24-.43-.21-1.32-.82-1.95-.88-.74-.07-1.43.14-2.15.35-.8.23-1.96,1.44-2.48,1.99-.61.65-.94,1.83-.56,2.29.31.38.7.86,1.4,1.03.7.17,1.13-.03,1.47.04.32.06.77.21,1.73.04.73-.13,1.11-.26,1.35-.28.52-.04,1.97-.05,2.69-.8Z"/><path class="cls-33" d="m12.66,10.5c.63-.62.78-1.76.38-2.46-.48-.85-1.34-.98-1.83-1.21-.42-.2-1.28-.83-1.9-.89-.71-.08-1.42.12-2.14.33-.8.23-1.92,1.42-2.41,1.95-.58.61-.97,1.75-.57,2.23.3.36.67.83,1.38.99.71.16,1.12-.06,1.45,0,.32.06.76.21,1.73.04.73-.13,1.12-.26,1.35-.27.5-.02,1.86,0,2.57-.7Z"/><path class="cls-29" d="m12.52,10.46c.63-.59.82-1.66.42-2.38-.47-.86-1.34-.96-1.82-1.19-.41-.19-1.24-.83-1.85-.91-.69-.09-1.42.1-2.12.3-.79.23-1.88,1.41-2.35,1.9-.55.57-.99,1.68-.58,2.17.29.35.64.8,1.35.95.71.15,1.11-.09,1.42-.02.31.07.76.21,1.72.04.73-.13,1.12-.27,1.35-.27.48,0,1.75.05,2.45-.61Z"/><path class="cls-31" d="m12.38,10.42c.63-.55.85-1.57.47-2.29-.46-.86-1.33-.94-1.81-1.16-.4-.19-1.19-.83-1.8-.92-.66-.09-1.41.08-2.11.28-.79.23-1.85,1.39-2.28,1.85-.51.54-1.01,1.6-.59,2.12.27.33.61.78,1.32.91.72.13,1.11-.12,1.4-.05.31.07.76.22,1.72.05.74-.13,1.13-.28,1.35-.27.46.02,1.64.1,2.33-.51Z"/><path class="cls-64" d="m12.25,10.37c.63-.52.89-1.48.51-2.21-.45-.86-1.33-.92-1.8-1.14-.39-.18-1.15-.84-1.75-.93-.64-.1-1.4.05-2.1.26-.78.23-1.81,1.38-2.22,1.81-.48.5-1.04,1.53-.6,2.06.26.31.58.75,1.29.87.72.12,1.1-.15,1.38-.08.3.08.75.22,1.72.05.74-.12,1.14-.28,1.35-.26.43.04,1.52.15,2.21-.42Z"/><path class="cls-48" d="m12.11,10.33c.63-.48.93-1.38.56-2.12-.44-.86-1.32-.9-1.79-1.12-.38-.17-1.11-.84-1.69-.94-.61-.1-1.4.03-2.08.24-.77.23-1.77,1.37-2.15,1.76-.45.46-1.06,1.45-.61,2,.25.29.55.72,1.27.83.73.1,1.09-.19,1.35-.11.29.08.75.22,1.71.05.75-.12,1.15-.29,1.35-.26.41.06,1.41.2,2.09-.32Z"/><path class="cls-43" d="m11.97,10.29c.63-.45.97-1.29.6-2.03-.43-.86-1.32-.88-1.78-1.09-.36-.16-1.06-.85-1.64-.95-.59-.11-1.39.01-2.07.21-.77.23-1.73,1.35-2.09,1.71-.42.42-1.09,1.38-.62,1.94.23.28.52.7,1.24.78.73.09,1.08-.21,1.33-.14.29.09.74.22,1.71.06.75-.12,1.16-.3,1.35-.26.39.07,1.3.25,1.97-.23Z"/><path class="cls-45" d="m11.84,10.24c.62-.42,1.01-1.2.65-1.95-.42-.86-1.31-.86-1.77-1.07-.35-.16-1.02-.85-1.59-.96-.57-.11-1.38-.01-2.06.19-.76.23-1.7,1.34-2.02,1.67-.38.38-1.11,1.3-.63,1.88.22.26.49.67,1.21.74.74.07,1.07-.25,1.31-.17.28.09.74.22,1.7.06.76-.12,1.17-.3,1.35-.26.37.09,1.19.31,1.85-.13Z"/><path class="cls-41" d="m11.7,10.2c.62-.38,1.05-1.1.69-1.86-.41-.87-1.31-.84-1.76-1.05-.34-.15-.98-.85-1.54-.97-.54-.12-1.38-.03-2.04.17-.76.23-1.66,1.32-1.96,1.62-.35.35-1.14,1.23-.64,1.82.2.24.46.64,1.19.7.74.06,1.06-.28,1.28-.2.28.1.74.22,1.7.06.76-.12,1.18-.31,1.35-.25.35.11,1.08.36,1.73-.04Z"/><path class="cls-37" d="m11.57,10.16c.62-.35,1.09-1.01.74-1.77-.4-.87-1.3-.82-1.75-1.02-.33-.14-.93-.85-1.49-.99-.52-.12-1.37-.06-2.03.14-.75.23-1.62,1.31-1.89,1.57-.32.31-1.16,1.15-.65,1.76.19.22.43.62,1.16.66.75.04,1.05-.31,1.26-.23.27.1.73.22,1.7.07.77-.12,1.19-.31,1.35-.25.33.13.97.41,1.61.05Z"/><path class="cls-65" d="m11.43,10.12c.62-.31,1.13-.91.78-1.69-.39-.87-1.3-.81-1.74-1-.32-.14-.89-.86-1.44-1-.49-.13-1.37-.08-2.01.12-.74.23-1.59,1.3-1.83,1.53-.28.27-1.19,1.08-.66,1.7.17.2.4.59,1.13.62.75.03,1.04-.34,1.24-.26.27.11.73.22,1.69.07.77-.12,1.2-.32,1.35-.25.3.15.86.46,1.49.15Z"/><path class="cls-12" d="m11.29,10.07c.62-.28,1.17-.82.83-1.6-.38-.87-1.29-.79-1.73-.97-.3-.13-.85-.86-1.39-1.01-.47-.13-1.36-.1-2,.1-.74.23-1.55,1.28-1.76,1.48-.25.23-1.21,1.01-.67,1.64.16.19.37.56,1.11.58.76.02,1.03-.37,1.21-.29.26.11.73.22,1.69.07.77-.12,1.21-.33,1.35-.24.28.17.75.52,1.37.24Z"/></g><path class="cls-15" d="m10.8,7.42c-.17,0-.34.02-.5.07-.2-1.04-1.09-1.84-2.19-1.9-1.07-.05-2.01.61-2.35,1.57h0c-.9-.05-1.68.65-1.72,1.55-.05.91.65,1.68,1.55,1.72.47.02.9-.15,1.21-.45.31.18.68.3,1.06.32.69.04,1.33-.23,1.79-.68.23.3.59.5,1.01.53.75.04,1.39-.54,1.43-1.29.04-.75-.54-1.39-1.29-1.43Z"/><path class="cls-8" d="m10.89,7.43c-.17,0-.34.01-.5.07-.2-1.04-1.09-1.84-2.19-1.9-1.07-.06-2.01.61-2.35,1.57h0c-.9-.05-1.68.65-1.72,1.55-.05.9.65,1.68,1.55,1.72.47.02.9-.15,1.21-.45.31.18.68.3,1.06.32.69.04,1.33-.23,1.79-.68.23.3.59.5,1.01.53.75.04,1.39-.54,1.43-1.29.04-.75-.54-1.39-1.29-1.43Z"/></g><g><g><g class="cls-17"><path class="cls-27" d="m10.38,16.38c-.03-.8.95-2.54,1.67-2.59.78-.05,2.38,1.66,2.24,2.82-.17,1.4-1.85,1.66-2.68,1.39-.86-.28-1.22-1.16-1.24-1.62Z"/><path class="cls-1" d="m12.04,13.82c.76-.05,2.32,1.63,2.19,2.77-.16,1.36-1.8,1.62-2.61,1.37-.85-.27-1.2-1.13-1.22-1.59-.03-.78.93-2.5,1.64-2.55Z"/><path class="cls-3" d="m12.03,13.84c.74-.05,2.27,1.61,2.14,2.72-.16,1.33-1.75,1.59-2.54,1.34-.83-.26-1.18-1.11-1.19-1.56-.03-.77.91-2.46,1.6-2.51Z"/><path class="cls-5" d="m12.01,13.88c.72-.05,2.21,1.58,2.08,2.67-.15,1.3-1.7,1.56-2.47,1.32-.82-.25-1.16-1.08-1.17-1.52-.03-.75.89-2.42,1.56-2.47Z"/><path class="cls-19" d="m12,13.91c.7-.05,2.15,1.55,2.03,2.62-.15,1.26-1.65,1.52-2.41,1.29-.81-.24-1.13-1.06-1.15-1.49-.03-.73.87-2.38,1.53-2.42Z"/><path class="cls-24" d="m11.98,13.94c.68-.05,2.1,1.52,1.98,2.57-.14,1.23-1.59,1.49-2.34,1.27-.8-.24-1.11-1.04-1.13-1.46-.03-.72.86-2.34,1.49-2.38Z"/><path class="cls-21" d="m11.97,13.97c.66-.04,2.04,1.5,1.92,2.52-.14,1.19-1.54,1.45-2.27,1.24-.78-.23-1.09-1.02-1.11-1.42-.03-.7.84-2.3,1.46-2.34Z"/><path class="cls-20" d="m11.95,14c.64-.04,1.98,1.47,1.87,2.47-.13,1.16-1.49,1.42-2.21,1.22-.77-.22-1.07-.99-1.09-1.39-.03-.69.82-2.26,1.42-2.3Z"/><path class="cls-54" d="m11.94,14.03c.63-.04,1.93,1.44,1.82,2.42-.13,1.12-1.44,1.38-2.14,1.19-.76-.21-1.05-.97-1.07-1.36-.02-.67.8-2.22,1.39-2.26Z"/><path class="cls-52" d="m11.92,14.06c.61-.04,1.87,1.41,1.76,2.37-.12,1.09-1.39,1.35-2.07,1.17-.75-.2-1.03-.94-1.04-1.33-.02-.65.78-2.18,1.35-2.21Z"/><path class="cls-23" d="m11.91,14.09c.59-.04,1.82,1.38,1.71,2.33-.12,1.06-1.33,1.32-2,1.14-.73-.19-1.01-.92-1.02-1.29-.02-.64.77-2.14,1.32-2.17Z"/><path class="cls-61" d="m11.89,14.12c.57-.04,1.76,1.36,1.66,2.28-.12,1.02-1.28,1.28-1.94,1.12-.72-.18-.99-.9-1-1.26-.02-.62.75-2.1,1.28-2.13Z"/><path class="cls-59" d="m11.88,14.15c.55-.03,1.7,1.33,1.6,2.23-.11.99-1.23,1.25-1.87,1.09-.71-.18-.97-.88-.98-1.23-.02-.6.73-2.06,1.24-2.09Z"/><path class="cls-57" d="m11.86,14.18c.53-.03,1.65,1.3,1.55,2.18-.11.95-1.18,1.21-1.8,1.06-.7-.17-.95-.85-.96-1.19-.02-.59.71-2.02,1.21-2.05Z"/><path class="cls-56" d="m11.85,14.21c.51-.03,1.59,1.27,1.5,2.13-.1.92-1.13,1.18-1.73,1.04-.68-.16-.93-.83-.94-1.16-.02-.57.69-1.98,1.17-2Z"/><path class="cls-35" d="m11.83,14.24c.49-.03,1.53,1.25,1.44,2.08-.1.88-1.07,1.15-1.67,1.01-.67-.15-.91-.8-.91-1.13-.02-.56.68-1.94,1.14-1.96Z"/><path class="cls-32" d="m11.82,14.27c.47-.03,1.48,1.22,1.39,2.03-.09.85-1.02,1.11-1.6.99-.66-.14-.88-.78-.89-1.1-.02-.54.66-1.9,1.1-1.92Z"/><path class="cls-34" d="m11.8,14.3c.45-.03,1.42,1.19,1.34,1.98-.09.82-.97,1.08-1.53.96-.65-.13-.86-.76-.87-1.06-.01-.52.64-1.86,1.07-1.88Z"/><path class="cls-30" d="m11.79,14.33c.43-.02,1.36,1.16,1.28,1.93-.08.78-.92,1.04-1.47.94-.64-.12-.84-.73-.85-1.03-.01-.51.62-1.82,1.03-1.84Z"/><path class="cls-62" d="m11.77,14.36c.41-.02,1.31,1.14,1.23,1.88-.08.75-.87,1.01-1.4.91-.62-.11-.82-.71-.83-1-.01-.49.6-1.77,1-1.79Z"/><path class="cls-63" d="m11.76,14.39c.39-.02,1.25,1.11,1.18,1.83-.07.71-.82.98-1.33.89-.61-.11-.8-.69-.81-.96-.01-.47.59-1.73.96-1.75Z"/><path class="cls-47" d="m11.74,14.42c.37-.02,1.2,1.08,1.13,1.78-.07.68-.77.94-1.26.86-.6-.1-.78-.66-.79-.93-.01-.46.57-1.69.92-1.71Z"/><path class="cls-49" d="m11.73,14.45c.35-.02,1.14,1.05,1.07,1.73-.07.64-.71.91-1.2.84-.59-.09-.76-.64-.76-.9,0-.44.55-1.65.89-1.67Z"/><path class="cls-50" d="m11.71,14.48c.33-.01,1.08,1.03,1.02,1.68-.06.61-.66.88-1.13.81-.57-.08-.74-.62-.74-.87,0-.43.53-1.61.85-1.63Z"/><path class="cls-44" d="m11.7,14.51c.31-.01,1.03,1,.97,1.63-.06.58-.61.84-1.06.79-.56-.07-.72-.6-.72-.83,0-.41.51-1.57.82-1.58Z"/><path class="cls-46" d="m11.68,14.54c.29-.01.97.97.91,1.58-.05.54-.56.81-1,.76-.55-.06-.7-.57-.7-.8,0-.39.5-1.53.78-1.54Z"/><path class="cls-40" d="m11.67,14.57c.27,0,.92.94.86,1.53-.05.51-.51.78-.93.74-.54-.05-.68-.55-.68-.77,0-.38.48-1.49.75-1.5Z"/><path class="cls-42" d="m11.65,14.6c.25,0,.86.91.81,1.48-.04.47-.46.74-.86.71-.53-.04-.65-.52-.66-.74,0-.36.46-1.45.71-1.46Z"/><path class="cls-38" d="m11.64,14.63c.23,0,.8.89.75,1.43-.04.44-.4.71-.79.69-.51-.03-.63-.5-.64-.7,0-.34.44-1.41.68-1.42Z"/><path class="cls-39" d="m11.63,14.66c.21,0,.74.86.7,1.38-.04.41-.35.68-.73.66-.5-.02-.61-.48-.61-.67,0-.33.42-1.37.64-1.37Z"/><path class="cls-66" d="m11.61,14.69c.19,0,.69.83.65,1.33-.03.37-.3.64-.66.64-.49-.01-.59-.45-.59-.64,0-.31.41-1.33.6-1.33Z"/><path class="cls-13" d="m11.6,14.72c.17,0,.63.8.59,1.28-.03.34-.25.61-.59.61-.48,0-.57-.43-.57-.6,0-.3.39-1.29.57-1.29Z"/></g><path class="cls-11" d="m12.2,15.8c0,.53-.43.97-.97.97s-1-.43-1-.97c0-.91,1.01-2.12,1.01-2.12l.07-.04s0,.04.02.07c.18.29.87,1.39.87,2.09Z"/><path class="cls-14" d="m12.28,15.82c0,.53-.43.97-.97.97s-.97-.43-.97-.97c0-.8.97-2.18.97-2.18,0,0,.97,1.38.97,2.18Z"/></g><g><g class="cls-17"><path class="cls-27" d="m8.17,13.45c-.02-.59.7-1.88,1.23-1.92.58-.04,1.76,1.23,1.66,2.08-.12,1.03-1.37,1.23-1.98,1.03-.63-.21-.9-.85-.91-1.2Z"/><path class="cls-1" d="m9.4,11.56c.56-.04,1.72,1.21,1.62,2.05-.12,1.01-1.33,1.2-1.93,1.01-.62-.2-.88-.84-.9-1.17-.02-.58.69-1.85,1.21-1.89Z"/><path class="cls-3" d="m9.39,11.58c.55-.04,1.68,1.19,1.58,2.01-.12.98-1.29,1.18-1.88.99-.62-.19-.87-.82-.88-1.15-.02-.57.67-1.82,1.18-1.85Z"/><path class="cls-5" d="m9.38,11.61c.53-.04,1.63,1.16,1.54,1.97-.11.96-1.25,1.15-1.83.97-.61-.19-.85-.8-.87-1.12-.02-.56.66-1.79,1.16-1.82Z"/><path class="cls-19" d="m9.37,11.63c.52-.04,1.59,1.14,1.5,1.94-.11.93-1.22,1.13-1.78.95-.6-.18-.84-.78-.85-1.1-.02-.54.65-1.76,1.13-1.79Z"/><path class="cls-24" d="m9.35,11.65c.51-.04,1.55,1.12,1.46,1.9-.11.91-1.18,1.1-1.73.94-.59-.17-.82-.77-.83-1.08-.02-.53.63-1.73,1.1-1.76Z"/><path class="cls-21" d="m9.34,11.67c.49-.03,1.51,1.1,1.42,1.86-.1.88-1.14,1.07-1.68.92-.58-.17-.81-.75-.82-1.05-.02-.52.62-1.7,1.08-1.73Z"/><path class="cls-20" d="m9.33,11.69c.48-.03,1.47,1.08,1.38,1.83-.1.86-1.1,1.05-1.63.9-.57-.16-.79-.73-.8-1.03-.02-.51.61-1.67,1.05-1.7Z"/><path class="cls-54" d="m9.32,11.72c.46-.03,1.42,1.06,1.34,1.79-.1.83-1.06,1.02-1.58.88-.56-.16-.78-.71-.79-1-.02-.5.59-1.64,1.02-1.67Z"/><path class="cls-52" d="m9.31,11.74c.45-.03,1.38,1.04,1.3,1.75-.09.81-1.02,1-1.53.86-.55-.15-.76-.7-.77-.98-.02-.48.58-1.61,1-1.64Z"/><path class="cls-23" d="m9.3,11.76c.43-.03,1.34,1.02,1.26,1.72-.09.78-.99.97-1.48.84-.54-.14-.75-.68-.75-.96-.02-.47.57-1.58.97-1.61Z"/><path class="cls-61" d="m9.29,11.78c.42-.03,1.3,1,1.22,1.68-.09.75-.95.95-1.43.82-.53-.14-.73-.66-.74-.93-.02-.46.55-1.55.95-1.57Z"/><path class="cls-59" d="m9.28,11.81c.4-.02,1.26.98,1.19,1.65-.08.73-.91.92-1.38.81-.52-.13-.71-.65-.72-.91-.01-.45.54-1.52.92-1.54Z"/><path class="cls-57" d="m9.27,11.83c.39-.02,1.22.96,1.15,1.61-.08.7-.87.9-1.33.79-.51-.12-.7-.63-.71-.88-.01-.44.53-1.49.89-1.51Z"/><path class="cls-56" d="m9.26,11.85c.38-.02,1.18.94,1.11,1.57-.08.68-.83.87-1.28.77-.5-.12-.68-.61-.69-.86-.01-.42.51-1.46.87-1.48Z"/><path class="cls-35" d="m9.24,11.87c.36-.02,1.13.92,1.07,1.53-.07.65-.8.85-1.23.75-.5-.11-.67-.59-.68-.83-.01-.41.5-1.43.84-1.45Z"/><path class="cls-32" d="m9.23,11.9c.35-.02,1.09.9,1.03,1.5-.07.63-.76.82-1.18.73-.49-.1-.65-.58-.66-.81-.01-.4.49-1.4.81-1.42Z"/><path class="cls-34" d="m9.22,11.92c.33-.02,1.05.88.99,1.46-.07.6-.72.8-1.13.71-.48-.1-.64-.56-.64-.79-.01-.39.47-1.37.79-1.39Z"/><path class="cls-30" d="m9.21,11.94c.32-.02,1.01.86.95,1.43-.06.58-.68.77-1.08.69-.47-.09-.62-.54-.63-.76-.01-.38.46-1.34.76-1.36Z"/><path class="cls-62" d="m9.2,11.96c.3-.02.97.84.91,1.39-.06.55-.64.75-1.03.67-.46-.08-.61-.52-.61-.74,0-.36.45-1.31.74-1.33Z"/><path class="cls-63" d="m9.19,11.99c.29-.01.93.82.87,1.35-.05.53-.6.72-.98.66-.45-.08-.59-.51-.6-.71,0-.35.43-1.28.71-1.29Z"/><path class="cls-47" d="m9.18,12.01c.27-.01.89.8.83,1.32-.05.5-.57.7-.93.64-.44-.07-.58-.49-.58-.69,0-.34.42-1.25.68-1.26Z"/><path class="cls-49" d="m9.17,12.03c.26-.01.84.78.79,1.28-.05.48-.53.67-.88.62-.43-.06-.56-.47-.56-.66,0-.33.41-1.22.66-1.23Z"/><path class="cls-50" d="m9.16,12.05c.24-.01.8.76.75,1.24-.05.45-.49.65-.84.6-.42-.06-.55-.45-.55-.64,0-.32.39-1.19.63-1.2Z"/><path class="cls-44" d="m9.15,12.08c.23,0,.76.74.71,1.21-.04.43-.45.62-.79.58-.42-.05-.53-.44-.53-.62,0-.3.38-1.16.6-1.17Z"/><path class="cls-46" d="m9.14,12.1c.22,0,.72.72.67,1.17-.04.4-.41.6-.74.56-.41-.04-.52-.42-.52-.59,0-.29.37-1.13.58-1.14Z"/><path class="cls-40" d="m9.12,12.12c.2,0,.68.7.64,1.13-.04.37-.37.57-.69.54-.4-.04-.5-.4-.5-.57,0-.28.35-1.1.55-1.11Z"/><path class="cls-42" d="m9.11,12.14c.19,0,.64.68.6,1.1-.03.35-.34.55-.64.53-.39-.03-.48-.39-.49-.54,0-.27.34-1.07.53-1.08Z"/><path class="cls-38" d="m9.1,12.16c.17,0,.59.66.56,1.06-.03.32-.3.52-.59.51-.38-.02-.47-.37-.47-.52,0-.25.33-1.04.5-1.05Z"/><path class="cls-39" d="m9.09,12.19c.16,0,.55.63.52,1.02-.03.3-.26.5-.54.49-.37-.01-.45-.35-.45-.49,0-.24.31-1.01.47-1.02Z"/><path class="cls-66" d="m9.08,12.21c.14,0,.51.61.48.99-.02.27-.22.48-.49.47-.36,0-.44-.34-.44-.47,0-.23.3-.98.45-.99Z"/><path class="cls-13" d="m9.07,12.23c.13,0,.47.59.44.95-.02.25-.18.45-.44.45-.35,0-.42-.32-.42-.45,0-.22.29-.95.42-.95Z"/></g><path class="cls-11" d="m9.52,13.02c0,.39-.32.71-.71.71s-.74-.32-.74-.71c0-.67.75-1.56.75-1.56l.05-.03s0,.03.01.05c.14.21.64,1.03.64,1.54Z"/><path class="cls-14" d="m9.58,13.04c0,.39-.32.71-.71.71s-.71-.32-.71-.71c0-.59.71-1.61.71-1.61,0,0,.71,1.02.71,1.61Z"/></g><g><g class="cls-17"><path class="cls-27" d="m2.93,12.46c-.02-.47.56-1.5.99-1.53.46-.03,1.4.98,1.32,1.66-.1.83-1.09.98-1.58.82-.5-.16-.72-.68-.73-.95Z"/><path class="cls-1" d="m3.91,10.95c.45-.03,1.37.96,1.29,1.63-.09.8-1.06.96-1.54.81-.5-.16-.71-.67-.72-.94-.02-.46.55-1.47.96-1.5Z"/><path class="cls-3" d="m3.9,10.97c.44-.03,1.34.95,1.26,1.6-.09.78-1.03.94-1.5.79-.49-.15-.69-.65-.7-.92-.02-.45.54-1.45.94-1.48Z"/><path class="cls-5" d="m3.89,10.99c.43-.03,1.3.93,1.23,1.57-.09.76-1,.92-1.46.78-.48-.15-.68-.64-.69-.9-.02-.44.53-1.43.92-1.45Z"/><path class="cls-19" d="m3.88,11c.42-.03,1.27.91,1.2,1.54-.09.74-.97.9-1.42.76-.48-.14-.67-.63-.68-.88-.02-.43.52-1.4.9-1.43Z"/><path class="cls-24" d="m3.87,11.02c.4-.03,1.24.9,1.16,1.52-.08.72-.94.88-1.38.75-.47-.14-.66-.61-.67-.86-.02-.42.5-1.38.88-1.4Z"/><path class="cls-21" d="m3.86,11.04c.39-.03,1.2.88,1.13,1.49-.08.7-.91.86-1.34.73-.46-.13-.64-.6-.65-.84-.02-.41.49-1.35.86-1.38Z"/><path class="cls-20" d="m3.85,11.06c.38-.02,1.17.87,1.1,1.46-.08.68-.88.84-1.3.72-.45-.13-.63-.58-.64-.82-.02-.4.48-1.33.84-1.36Z"/><path class="cls-54" d="m3.84,11.08c.37-.02,1.14.85,1.07,1.43-.08.66-.85.82-1.26.7-.45-.12-.62-.57-.63-.8-.01-.39.47-1.31.82-1.33Z"/><path class="cls-52" d="m3.84,11.09c.36-.02,1.1.83,1.04,1.4-.07.64-.82.8-1.22.69-.44-.12-.61-.56-.61-.78-.01-.39.46-1.28.8-1.31Z"/><path class="cls-23" d="m3.83,11.11c.35-.02,1.07.82,1.01,1.37-.07.62-.79.78-1.18.67-.43-.11-.6-.54-.6-.76-.01-.38.45-1.26.78-1.28Z"/><path class="cls-61" d="m3.82,11.13c.33-.02,1.04.8.98,1.34-.07.6-.76.76-1.14.66-.42-.11-.58-.53-.59-.74-.01-.37.44-1.24.75-1.26Z"/><path class="cls-59" d="m3.81,11.15c.32-.02,1,.78.95,1.31-.07.58-.73.74-1.1.64-.42-.1-.57-.52-.58-.72-.01-.36.43-1.21.73-1.23Z"/><path class="cls-57" d="m3.8,11.17c.31-.02.97.77.91,1.28-.06.56-.7.71-1.06.63-.41-.1-.56-.5-.56-.7-.01-.35.42-1.19.71-1.21Z"/><path class="cls-56" d="m3.79,11.18c.3-.02.94.75.88,1.25-.06.54-.66.7-1.02.61-.4-.09-.55-.49-.55-.68-.01-.34.41-1.17.69-1.18Z"/><path class="cls-35" d="m3.78,11.2c.29-.02.91.74.85,1.22-.06.52-.63.67-.98.6-.4-.09-.53-.47-.54-.67-.01-.33.4-1.14.67-1.16Z"/><path class="cls-32" d="m3.78,11.22c.28-.02.87.72.82,1.2-.05.5-.6.66-.94.58-.39-.08-.52-.46-.53-.65,0-.32.39-1.12.65-1.13Z"/><path class="cls-34" d="m3.77,11.24c.27-.01.84.7.79,1.17-.05.48-.57.64-.9.57-.38-.08-.51-.45-.51-.63,0-.31.38-1.09.63-1.11Z"/><path class="cls-30" d="m3.76,11.25c.25-.01.81.69.76,1.14-.05.46-.54.62-.86.55-.37-.07-.5-.43-.5-.61,0-.3.37-1.07.61-1.08Z"/><path class="cls-62" d="m3.75,11.27c.24-.01.77.67.73,1.11-.05.44-.51.6-.82.54-.37-.07-.48-.42-.49-.59,0-.29.36-1.05.59-1.06Z"/><path class="cls-63" d="m3.74,11.29c.23-.01.74.65.69,1.08-.04.42-.48.58-.78.52-.36-.06-.47-.41-.48-.57,0-.28.35-1.02.57-1.03Z"/><path class="cls-47" d="m3.73,11.31c.22,0,.71.64.66,1.05-.04.4-.45.56-.74.51-.35-.06-.46-.39-.46-.55,0-.27.33-1,.54-1.01Z"/><path class="cls-49" d="m3.72,11.33c.21,0,.67.62.63,1.02-.04.38-.42.54-.7.49-.35-.05-.45-.38-.45-.53,0-.26.32-.98.52-.98Z"/><path class="cls-50" d="m3.71,11.34c.2,0,.64.61.6.99-.04.36-.39.52-.67.48-.34-.05-.44-.36-.44-.51,0-.25.31-.95.5-.96Z"/><path class="cls-44" d="m3.7,11.36c.18,0,.61.59.57.96-.03.34-.36.5-.63.46-.33-.04-.42-.35-.43-.49,0-.24.3-.93.48-.93Z"/><path class="cls-46" d="m3.7,11.38c.17,0,.57.57.54.93-.03.32-.33.48-.59.45-.32-.04-.41-.34-.41-.47,0-.23.29-.9.46-.91Z"/><path class="cls-40" d="m3.69,11.4c.16,0,.54.56.51.9-.03.3-.3.46-.55.43-.32-.03-.4-.32-.4-.45,0-.22.28-.88.44-.88Z"/><path class="cls-42" d="m3.68,11.42c.15,0,.51.54.48.87-.03.28-.27.44-.51.42-.31-.02-.39-.31-.39-.43,0-.21.27-.86.42-.86Z"/><path class="cls-38" d="m3.67,11.43c.14,0,.47.52.44.84-.02.26-.24.42-.47.4-.3-.02-.37-.3-.37-.41,0-.2.26-.83.4-.83Z"/><path class="cls-39" d="m3.66,11.45c.13,0,.44.51.41.81-.02.24-.21.4-.43.39-.3-.01-.36-.28-.36-.39,0-.2.25-.81.38-.81Z"/><path class="cls-66" d="m3.65,11.47c.12,0,.41.49.38.79-.02.22-.18.38-.39.38-.29,0-.35-.27-.35-.38,0-.18.24-.78.36-.79Z"/><path class="cls-13" d="m3.64,11.49c.1,0,.37.47.35.76-.02.2-.15.36-.35.36-.28,0-.34-.25-.34-.36,0-.17.23-.76.34-.76Z"/></g><path class="cls-11" d="m4,12.12c0,.31-.25.57-.57.57s-.59-.25-.59-.57c0-.53.6-1.25.6-1.25l.04-.02s0,.03.01.04c.11.17.51.82.51,1.23Z"/><path class="cls-14" d="m4.05,12.13c0,.31-.25.57-.57.57s-.57-.25-.57-.57c0-.47.57-1.29.57-1.29,0,0,.57.81.57,1.29Z"/></g><g><g class="cls-17"><path class="cls-27" d="m18.49,10.23c-.02-.44.52-1.4.92-1.43.43-.03,1.31.92,1.24,1.56-.09.77-1.02.92-1.48.77-.47-.15-.67-.64-.68-.9Z"/><path class="cls-1" d="m19.41,8.82c.42-.03,1.28.9,1.21,1.53-.09.75-1,.9-1.44.76-.47-.15-.66-.63-.67-.88-.02-.43.51-1.38.9-1.41Z"/><path class="cls-3" d="m19.4,8.83c.41-.03,1.25.89,1.18,1.5-.09.74-.97.88-1.4.74-.46-.14-.65-.61-.66-.86-.02-.42.5-1.36.88-1.39Z"/><path class="cls-5" d="m19.39,8.85c.4-.03,1.22.87,1.15,1.48-.08.72-.94.86-1.37.73-.45-.14-.64-.6-.65-.84-.02-.42.49-1.34.86-1.36Z"/><path class="cls-19" d="m19.38,8.87c.39-.03,1.19.86,1.12,1.45-.08.7-.91.84-1.33.71-.45-.13-.63-.59-.64-.82-.02-.41.48-1.31.84-1.34Z"/><path class="cls-24" d="m19.38,8.88c.38-.03,1.16.84,1.09,1.42-.08.68-.88.82-1.29.7-.44-.13-.62-.57-.62-.8-.02-.4.47-1.29.83-1.32Z"/><path class="cls-21" d="m19.37,8.9c.37-.02,1.13.83,1.06,1.39-.08.66-.85.8-1.26.69-.43-.12-.6-.56-.61-.79-.01-.39.46-1.27.81-1.29Z"/><path class="cls-20" d="m19.36,8.92c.36-.02,1.1.81,1.03,1.37-.07.64-.82.78-1.22.67-.43-.12-.59-.55-.6-.77-.01-.38.45-1.25.79-1.27Z"/><path class="cls-54" d="m19.35,8.93c.35-.02,1.07.8,1,1.34-.07.62-.8.77-1.18.66-.42-.12-.58-.53-.59-.75-.01-.37.44-1.22.77-1.25Z"/><path class="cls-52" d="m19.34,8.95c.34-.02,1.03.78.97,1.31-.07.6-.77.75-1.14.64-.41-.11-.57-.52-.58-.73-.01-.36.43-1.2.75-1.22Z"/><path class="cls-23" d="m19.33,8.97c.32-.02,1,.77.95,1.28-.07.58-.74.73-1.11.63-.41-.11-.56-.51-.56-.71-.01-.35.42-1.18.73-1.2Z"/><path class="cls-61" d="m19.33,8.98c.31-.02.97.75.92,1.26-.06.56-.71.71-1.07.62-.4-.1-.55-.5-.55-.7-.01-.34.41-1.16.71-1.18Z"/><path class="cls-59" d="m19.32,9c.3-.02.94.74.89,1.23-.06.55-.68.69-1.03.6-.39-.1-.54-.48-.54-.68-.01-.33.4-1.14.69-1.15Z"/><path class="cls-57" d="m19.31,9.02c.29-.02.91.72.86,1.2-.06.53-.65.67-1,.59-.39-.09-.52-.47-.53-.66-.01-.33.39-1.11.67-1.13Z"/><path class="cls-56" d="m19.3,9.03c.28-.02.88.7.83,1.17-.06.51-.62.65-.96.57-.38-.09-.51-.46-.52-.64,0-.32.38-1.09.65-1.11Z"/><path class="cls-35" d="m19.29,9.05c.27-.01.85.69.8,1.15-.05.49-.59.63-.92.56-.37-.08-.5-.44-.51-.62,0-.31.37-1.07.63-1.08Z"/><path class="cls-32" d="m19.29,9.07c.26-.01.82.67.77,1.12-.05.47-.57.61-.88.55-.36-.08-.49-.43-.49-.61,0-.3.36-1.05.61-1.06Z"/><path class="cls-34" d="m19.28,9.08c.25-.01.79.66.74,1.09-.05.45-.54.59-.85.53-.36-.07-.48-.42-.48-.59,0-.29.35-1.03.59-1.04Z"/><path class="cls-30" d="m19.27,9.1c.24-.01.75.64.71,1.06-.05.43-.51.58-.81.52-.35-.07-.47-.41-.47-.57,0-.28.34-1,.57-1.01Z"/><path class="cls-62" d="m19.26,9.12c.23-.01.72.63.68,1.04-.04.41-.48.56-.77.51-.34-.06-.45-.39-.46-.55,0-.27.33-.98.55-.99Z"/><path class="cls-63" d="m19.25,9.13c.22-.01.69.61.65,1.01-.04.39-.45.54-.74.49-.34-.06-.44-.38-.45-.53,0-.26.32-.96.53-.97Z"/><path class="cls-47" d="m19.24,9.15c.2,0,.66.6.62.98-.04.38-.42.52-.7.48-.33-.05-.43-.37-.44-.51,0-.25.31-.94.51-.95Z"/><path class="cls-49" d="m19.24,9.17c.19,0,.63.58.59.96-.04.36-.39.5-.66.46-.32-.05-.42-.35-.42-.5,0-.25.3-.91.49-.92Z"/><path class="cls-50" d="m19.23,9.18c.18,0,.6.57.56.93-.03.34-.37.48-.62.45-.32-.04-.41-.34-.41-.48,0-.24.29-.89.47-.9Z"/><path class="cls-44" d="m19.22,9.2c.17,0,.57.55.53.9-.03.32-.34.47-.59.44-.31-.04-.4-.33-.4-.46,0-.23.28-.87.45-.88Z"/><path class="cls-46" d="m19.21,9.22c.16,0,.54.54.5.87-.03.3-.31.45-.55.42-.3-.03-.38-.32-.39-.44,0-.22.27-.85.43-.85Z"/><path class="cls-40" d="m19.2,9.23c.15,0,.51.52.48.85-.03.28-.28.43-.51.41-.3-.03-.37-.3-.38-.42,0-.21.26-.82.41-.83Z"/><path class="cls-42" d="m19.2,9.25c.14,0,.47.51.45.82-.02.26-.25.41-.48.39-.29-.02-.36-.29-.36-.41,0-.2.25-.8.39-.8Z"/><path class="cls-38" d="m19.19,9.27c.13,0,.44.49.42.79-.02.24-.22.39-.44.38-.28-.02-.35-.28-.35-.39,0-.19.24-.78.37-.78Z"/><path class="cls-39" d="m19.18,9.28c.12,0,.41.48.39.76-.02.22-.19.37-.4.37-.28-.01-.34-.26-.34-.37,0-.18.23-.76.35-.76Z"/><path class="cls-66" d="m19.17,9.3c.11,0,.38.46.36.74-.02.2-.17.36-.36.35-.27,0-.33-.25-.33-.35,0-.17.23-.74.33-.74Z"/><path class="cls-13" d="m19.16,9.32c.1,0,.35.45.33.71-.01.19-.14.34-.33.34-.26,0-.32-.24-.32-.33,0-.16.21-.71.31-.71Z"/></g><path class="cls-11" d="m19.5,9.91c0,.29-.24.53-.53.53s-.55-.24-.55-.53c0-.5.56-1.17.56-1.17l.04-.02s0,.02.01.04c.1.16.48.77.48,1.15Z"/><path class="cls-14" d="m19.54,9.93c0,.29-.24.53-.53.53s-.53-.24-.53-.53c0-.44.53-1.21.53-1.21,0,0,.53.76.53,1.21Z"/></g><g><g class="cls-17"><path class="cls-27" d="m17.33,15.11c-.02-.44.52-1.41.92-1.43.43-.03,1.31.92,1.24,1.56-.09.77-1.02.92-1.48.77-.47-.15-.67-.64-.68-.89Z"/><path class="cls-1" d="m18.24,13.7c.42-.03,1.28.9,1.21,1.53-.09.75-1,.9-1.44.75-.47-.15-.66-.62-.67-.88-.02-.43.51-1.38.9-1.41Z"/><path class="cls-3" d="m18.23,13.72c.41-.03,1.25.89,1.18,1.5-.09.74-.97.88-1.4.74-.46-.14-.65-.61-.66-.86-.02-.42.5-1.36.88-1.39Z"/><path class="cls-5" d="m18.23,13.73c.4-.03,1.22.87,1.15,1.48-.08.72-.94.86-1.37.73-.45-.14-.64-.6-.65-.84-.02-.42.49-1.34.86-1.36Z"/><path class="cls-19" d="m18.22,13.75c.39-.03,1.19.86,1.12,1.45-.08.7-.91.84-1.33.71-.45-.13-.63-.59-.64-.82-.02-.41.48-1.32.84-1.34Z"/><path class="cls-24" d="m18.21,13.77c.38-.03,1.16.84,1.09,1.42-.08.68-.88.82-1.29.7-.44-.13-.62-.57-.62-.8-.02-.4.47-1.29.83-1.32Z"/><path class="cls-21" d="m18.2,13.78c.37-.02,1.13.82,1.06,1.39-.08.66-.85.8-1.26.69-.43-.13-.6-.56-.61-.79-.02-.39.46-1.27.81-1.29Z"/><path class="cls-20" d="m18.19,13.8c.36-.02,1.1.81,1.03,1.37-.07.64-.82.78-1.22.67-.43-.12-.59-.55-.6-.77-.01-.38.45-1.25.79-1.27Z"/><path class="cls-54" d="m18.18,13.82c.35-.02,1.07.8,1,1.34-.07.62-.79.77-1.18.66-.42-.12-.58-.53-.59-.75-.01-.37.44-1.23.77-1.25Z"/><path class="cls-52" d="m18.18,13.83c.33-.02,1.03.78.97,1.31-.07.6-.77.75-1.14.64-.41-.11-.57-.52-.58-.73-.01-.36.43-1.21.75-1.22Z"/><path class="cls-23" d="m18.17,13.85c.32-.02,1,.76.95,1.28-.07.58-.74.73-1.11.63-.41-.11-.56-.51-.56-.71-.01-.35.42-1.18.73-1.2Z"/><path class="cls-61" d="m18.16,13.87c.31-.02.97.75.92,1.26-.06.56-.71.71-1.07.62-.4-.1-.55-.5-.55-.7-.01-.34.41-1.16.71-1.18Z"/><path class="cls-59" d="m18.15,13.88c.3-.02.94.73.89,1.23-.06.55-.68.69-1.03.6-.39-.1-.53-.48-.54-.68-.01-.33.4-1.14.69-1.15Z"/><path class="cls-57" d="m18.14,13.9c.29-.02.91.72.86,1.2-.06.53-.65.67-1,.59-.38-.09-.52-.47-.53-.66-.01-.33.39-1.12.67-1.13Z"/><path class="cls-56" d="m18.13,13.92c.28-.02.88.7.83,1.17-.06.51-.62.65-.96.57-.38-.09-.51-.46-.52-.64-.01-.32.38-1.09.65-1.11Z"/><path class="cls-35" d="m18.13,13.93c.27-.01.85.69.8,1.15-.05.49-.59.63-.92.56-.37-.08-.5-.44-.51-.62,0-.31.37-1.07.63-1.08Z"/><path class="cls-32" d="m18.12,13.95c.26-.01.82.67.77,1.12-.05.47-.57.61-.88.55-.36-.08-.49-.43-.49-.61,0-.3.36-1.05.61-1.06Z"/><path class="cls-34" d="m18.11,13.97c.25-.01.79.66.74,1.09-.05.45-.54.6-.85.53-.36-.07-.48-.42-.48-.59,0-.29.35-1.03.59-1.04Z"/><path class="cls-30" d="m18.1,13.98c.24-.01.76.64.71,1.07-.05.43-.51.58-.81.52-.35-.07-.47-.41-.47-.57,0-.28.34-1,.57-1.01Z"/><path class="cls-62" d="m18.09,14c.23-.01.72.63.68,1.04-.04.41-.48.56-.77.51-.34-.06-.45-.39-.46-.55,0-.27.33-.98.55-.99Z"/><path class="cls-63" d="m18.09,14.02c.22-.01.69.61.65,1.01-.04.39-.45.54-.74.49-.34-.06-.44-.38-.45-.53,0-.26.32-.96.53-.97Z"/><path class="cls-47" d="m18.08,14.03c.2,0,.66.6.62.98-.04.38-.42.52-.7.48-.33-.05-.43-.37-.43-.52,0-.25.31-.94.51-.94Z"/><path class="cls-49" d="m18.07,14.05c.19,0,.63.58.59.96-.04.36-.39.5-.66.46-.32-.05-.42-.35-.42-.5,0-.25.3-.91.49-.92Z"/><path class="cls-50" d="m18.06,14.07c.18,0,.6.57.56.93-.03.34-.37.49-.62.45-.32-.04-.41-.34-.41-.48,0-.24.29-.89.47-.9Z"/><path class="cls-44" d="m18.05,14.08c.17,0,.57.55.53.9-.03.32-.34.47-.59.43-.31-.04-.4-.33-.4-.46,0-.23.28-.87.45-.88Z"/><path class="cls-46" d="m18.05,14.1c.16,0,.54.54.5.87-.03.3-.31.45-.55.42-.3-.03-.38-.31-.39-.44,0-.22.27-.85.43-.85Z"/><path class="cls-40" d="m18.04,14.12c.15,0,.51.52.48.85-.03.28-.28.43-.51.41-.3-.03-.37-.3-.37-.42,0-.21.26-.82.41-.83Z"/><path class="cls-42" d="m18.03,14.13c.14,0,.47.51.45.82-.02.26-.25.41-.48.39-.29-.02-.36-.29-.36-.41,0-.2.25-.8.39-.81Z"/><path class="cls-38" d="m18.02,14.15c.13,0,.44.49.42.79-.02.24-.22.39-.44.38-.28-.02-.35-.28-.35-.39,0-.19.24-.78.37-.78Z"/><path class="cls-39" d="m18.01,14.17c.12,0,.41.47.39.76-.02.22-.19.37-.4.37-.28-.01-.34-.26-.34-.37,0-.18.23-.76.35-.76Z"/><path class="cls-66" d="m18,14.18c.11,0,.38.46.36.74-.02.21-.17.36-.36.35-.27,0-.33-.25-.33-.35,0-.17.22-.74.33-.74Z"/><path class="cls-13" d="m18,14.2c.1,0,.35.44.33.71-.02.19-.14.34-.33.34-.26,0-.32-.24-.32-.33,0-.16.21-.71.31-.71Z"/></g><path class="cls-11" d="m18.33,14.79c0,.29-.24.53-.53.53s-.55-.24-.55-.53c0-.5.56-1.17.56-1.17l.04-.02s0,.02.01.04c.1.16.48.77.48,1.15Z"/><path class="cls-14" d="m18.38,14.81c0,.3-.24.53-.53.53s-.53-.24-.53-.53c0-.44.53-1.2.53-1.2,0,0,.53.76.53,1.2Z"/></g><g><g class="cls-17"><path class="cls-27" d="m14.9,13.62c-.03-.71.84-2.25,1.48-2.29.69-.05,2.1,1.47,1.98,2.49-.15,1.24-1.64,1.47-2.37,1.23-.76-.25-1.08-1.02-1.09-1.43Z"/><path class="cls-1" d="m16.37,11.36c.67-.05,2.05,1.44,1.94,2.45-.14,1.21-1.59,1.44-2.31,1.21-.75-.24-1.06-1-1.07-1.4-.03-.69.82-2.21,1.45-2.25Z"/><path class="cls-3" d="m16.35,11.38c.66-.05,2,1.42,1.89,2.4-.14,1.18-1.55,1.41-2.25,1.19-.74-.23-1.04-.98-1.06-1.37-.03-.68.8-2.18,1.41-2.22Z"/><path class="cls-5" d="m16.34,11.41c.64-.04,1.95,1.39,1.84,2.36-.13,1.15-1.5,1.38-2.19,1.17-.73-.22-1.02-.96-1.04-1.35-.03-.66.79-2.14,1.38-2.18Z"/><path class="cls-19" d="m16.33,11.44c.62-.04,1.9,1.37,1.79,2.32-.13,1.12-1.46,1.35-2.13,1.14-.71-.21-1-.94-1.02-1.32-.03-.65.77-2.1,1.35-2.14Z"/><path class="cls-24" d="m16.31,11.46c.6-.04,1.85,1.35,1.75,2.27-.13,1.09-1.41,1.32-2.07,1.12-.7-.21-.98-.92-1-1.29-.02-.64.76-2.07,1.32-2.11Z"/><path class="cls-21" d="m16.3,11.49c.59-.04,1.8,1.32,1.7,2.23-.12,1.06-1.36,1.29-2.01,1.1-.69-.2-.97-.9-.98-1.26-.02-.62.74-2.03,1.29-2.07Z"/><path class="cls-20" d="m16.29,11.52c.57-.04,1.75,1.3,1.65,2.18-.12,1.03-1.32,1.25-1.95,1.08-.68-.19-.95-.88-.96-1.23-.02-.61.73-2,1.26-2.03Z"/><path class="cls-54" d="m16.27,11.54c.55-.04,1.7,1.27,1.61,2.14-.11.99-1.27,1.22-1.89,1.05-.67-.18-.93-.86-.94-1.2-.02-.59.71-1.96,1.23-2Z"/><path class="cls-52" d="m16.26,11.57c.54-.03,1.65,1.25,1.56,2.1-.11.96-1.23,1.19-1.83,1.03-.66-.18-.91-.84-.92-1.17-.02-.58.69-1.93,1.19-1.96Z"/><path class="cls-23" d="m16.25,11.6c.52-.03,1.6,1.22,1.51,2.05-.11.93-1.18,1.16-1.77,1.01-.65-.17-.89-.81-.9-1.14-.02-.56.68-1.89,1.16-1.92Z"/><path class="cls-61" d="m16.23,11.62c.5-.03,1.55,1.2,1.46,2.01-.1.9-1.13,1.13-1.71.99-.64-.16-.87-.79-.88-1.11-.02-.55.66-1.85,1.13-1.88Z"/><path class="cls-59" d="m16.22,11.65c.48-.03,1.5,1.17,1.42,1.97-.1.87-1.09,1.1-1.65.96-.63-.16-.86-.77-.87-1.09-.02-.54.65-1.82,1.1-1.85Z"/><path class="cls-57" d="m16.21,11.68c.47-.03,1.46,1.15,1.37,1.92-.09.84-1.04,1.07-1.59.94-.62-.15-.84-.75-.85-1.06-.02-.52.63-1.78,1.07-1.81Z"/><path class="cls-56" d="m16.2,11.71c.45-.03,1.41,1.13,1.32,1.88-.09.81-1,1.04-1.53.92-.6-.14-.82-.73-.83-1.03-.02-.51.61-1.75,1.04-1.77Z"/><path class="cls-35" d="m16.18,11.73c.43-.03,1.36,1.1,1.28,1.83-.09.78-.95,1.01-1.47.9-.59-.13-.8-.71-.81-1-.01-.49.6-1.71,1.01-1.73Z"/><path class="cls-32" d="m16.17,11.76c.41-.02,1.31,1.08,1.23,1.79-.08.75-.91.98-1.41.88-.58-.12-.78-.69-.79-.97-.01-.48.58-1.68.97-1.7Z"/><path class="cls-34" d="m16.16,11.79c.4-.02,1.26,1.05,1.18,1.75-.08.72-.86.95-1.35.85-.57-.12-.76-.67-.77-.94-.01-.46.57-1.64.94-1.66Z"/><path class="cls-30" d="m16.14,11.81c.38-.02,1.21,1.03,1.14,1.71-.07.69-.81.92-1.3.83-.56-.11-.74-.65-.75-.91-.01-.45.55-1.61.91-1.62Z"/><path class="cls-62" d="m16.13,11.84c.36-.02,1.16,1,1.09,1.66-.07.66-.77.89-1.24.81-.55-.1-.73-.63-.73-.88-.01-.43.53-1.57.88-1.59Z"/><path class="cls-63" d="m16.12,11.87c.35-.02,1.11.98,1.04,1.62-.07.63-.72.86-1.18.79-.54-.09-.71-.61-.71-.85,0-.42.52-1.53.85-1.55Z"/><path class="cls-47" d="m16.1,11.89c.33-.02,1.06.96,1,1.57-.06.6-.68.83-1.12.76-.53-.08-.69-.59-.7-.82,0-.41.5-1.5.82-1.51Z"/><path class="cls-49" d="m16.09,11.92c.31-.01,1.01.93.95,1.53-.06.57-.63.8-1.06.74-.52-.08-.67-.57-.68-.79,0-.39.49-1.46.79-1.48Z"/><path class="cls-50" d="m16.08,11.95c.29-.01.96.91.9,1.48-.05.54-.59.77-1,.72-.51-.07-.65-.55-.66-.77,0-.38.47-1.43.75-1.44Z"/><path class="cls-44" d="m16.06,11.97c.28-.01.91.88.85,1.44-.05.51-.54.75-.94.7-.5-.06-.63-.53-.64-.74,0-.36.45-1.39.72-1.4Z"/><path class="cls-46" d="m16.05,12c.26,0,.86.86.81,1.4-.05.48-.49.71-.88.67-.49-.05-.62-.5-.62-.71,0-.35.44-1.35.69-1.36Z"/><path class="cls-40" d="m16.04,12.03c.24,0,.81.83.76,1.35-.04.45-.45.69-.82.65-.48-.04-.6-.48-.6-.68,0-.33.42-1.32.66-1.33Z"/><path class="cls-42" d="m16.03,12.05c.22,0,.76.81.71,1.31-.04.42-.4.66-.76.63-.47-.04-.58-.46-.58-.65,0-.32.41-1.28.63-1.29Z"/><path class="cls-38" d="m16.01,12.08c.21,0,.71.78.67,1.27-.03.39-.36.63-.7.61-.45-.03-.56-.44-.56-.62,0-.31.39-1.25.6-1.25Z"/><path class="cls-39" d="m16,12.11c.19,0,.66.76.62,1.22-.03.36-.31.6-.64.59-.44-.02-.54-.42-.54-.59,0-.29.38-1.21.57-1.21Z"/><path class="cls-66" d="m15.99,12.13c.17,0,.61.74.57,1.18-.03.33-.27.57-.58.56-.43,0-.52-.4-.52-.56,0-.28.36-1.18.53-1.18Z"/><path class="cls-13" d="m15.97,12.16c.15,0,.56.71.53,1.13-.02.3-.22.54-.52.54-.42,0-.51-.38-.51-.53,0-.26.34-1.14.5-1.14Z"/></g><path class="cls-11" d="m16.51,13.11c0,.47-.38.85-.85.85s-.89-.38-.89-.85c0-.8.89-1.87.89-1.87l.06-.03s0,.04.02.06c.16.25.77,1.23.77,1.84Z"/><path class="cls-14" d="m16.58,13.13c0,.47-.38.85-.85.85s-.85-.38-.85-.85c0-.71.85-1.93.85-1.93,0,0,.85,1.22.85,1.93Z"/></g></g></g></g></g></g></svg>