<?xml version="1.0" encoding="UTF-8"?><svg xmlns="http://www.w3.org/2000/svg" xmlns:xlink="http://www.w3.org/1999/xlink" viewBox="0 0 16.09 16.47"><defs><style>.cls-1{fill:#f9fbfb;opacity:.05;}.cls-2{fill:#f3f6f7;opacity:.1;}.cls-3{fill:url(#linear-gradient);}.cls-4{fill:#ffe3ab;}.cls-5{fill:#86a2b0;}.cls-6{mix-blend-mode:multiply;}.cls-7{fill:#eef2f4;opacity:.14;}.cls-8{fill:#e8edf0;opacity:.19;}.cls-9{fill:url(#linear-gradient-8);}.cls-10{fill:url(#linear-gradient-9);}.cls-11{fill:url(#linear-gradient-3);}.cls-12{fill:url(#linear-gradient-4);}.cls-13{fill:url(#linear-gradient-2);}.cls-14{fill:url(#linear-gradient-6);}.cls-15{fill:url(#linear-gradient-7);}.cls-16{fill:url(#linear-gradient-5);}.cls-17{fill:#fff;opacity:0;}.cls-18{fill:url(#linear-gradient-14);}.cls-19{fill:url(#linear-gradient-15);}.cls-20{fill:url(#linear-gradient-16);}.cls-21{fill:url(#linear-gradient-17);}.cls-22{fill:url(#linear-gradient-13);}.cls-23{fill:url(#linear-gradient-12);}.cls-24{fill:url(#linear-gradient-10);}.cls-25{fill:url(#linear-gradient-11);}.cls-26{isolation:isolate;}.cls-27{fill:#bacad2;opacity:.57;}.cls-28{fill:#b4c5ce;opacity:.62;}.cls-29{fill:#c0ced6;opacity:.52;}.cls-30{fill:#c5d3d9;opacity:.48;}.cls-31{fill:#92abb8;opacity:.9;}.cls-32{fill:#97afbb;opacity:.86;}.cls-33{fill:#a3b8c3;opacity:.76;}.cls-34{fill:#9db4bf;opacity:.81;}.cls-35{fill:#a9bdc7;opacity:.71;}.cls-36{fill:#d7e0e5;opacity:.33;}.cls-37{fill:#dce4e8;opacity:.29;}.cls-38{fill:#e2e9ec;opacity:.24;}.cls-39{fill:#cbd7dd;opacity:.43;}.cls-40{fill:#d1dce1;opacity:.38;}.cls-41{fill:#aec1ca;opacity:.67;}.cls-42{fill:#8ca6b4;opacity:.95;}</style><linearGradient id="linear-gradient" x1="7.14" y1="1.32" x2="8.81" y2="3" gradientUnits="userSpaceOnUse"><stop offset="0" stop-color="#ffd45c"/><stop offset="1" stop-color="#ff9d00"/></linearGradient><linearGradient id="linear-gradient-2" x1="7.14" y1="12.97" x2="8.81" y2="14.64" xlink:href="#linear-gradient"/><linearGradient id="linear-gradient-3" x1="2352.59" y1="126.86" x2="2350.92" y2="128.53" gradientTransform="translate(-125.54 2359.73) rotate(-90)" xlink:href="#linear-gradient"/><linearGradient id="linear-gradient-4" x1="2352.59" y1="138.5" x2="2350.92" y2="140.17" gradientTransform="translate(-125.54 2359.73) rotate(-90)" xlink:href="#linear-gradient"/><linearGradient id="linear-gradient-5" x1="2775.35" y1="1325.67" x2="2773.65" y2="1325.67" gradientTransform="translate(1028.32 2911.33) rotate(-135)" xlink:href="#linear-gradient"/><linearGradient id="linear-gradient-6" x1="2775.35" y1="1337.32" x2="2773.65" y2="1337.32" gradientTransform="translate(1028.32 2911.33) rotate(-135)" xlink:href="#linear-gradient"/><linearGradient id="linear-gradient-7" x1="1028.42" y1="2895.89" x2="1028.42" y2="2892.55" gradientTransform="translate(2785.79 1331.41) rotate(135)" xlink:href="#linear-gradient"/><linearGradient id="linear-gradient-8" x1="1028.42" y1="2907.53" x2="1028.42" y2="2904.2" gradientTransform="translate(2785.79 1331.41) rotate(135)" xlink:href="#linear-gradient"/><linearGradient id="linear-gradient-9" x1="12.48" y1="9.34" x2="14.22" y2="11.08" gradientUnits="userSpaceOnUse"><stop offset="0" stop-color="#ffbb31"/><stop offset="1" stop-color="#ff9d00"/></linearGradient><linearGradient id="linear-gradient-10" x1="1.72" y1="4.88" x2="3.47" y2="6.62" xlink:href="#linear-gradient-9"/><linearGradient id="linear-gradient-11" x1="4.88" y1="1.73" x2="6.62" y2="3.47" xlink:href="#linear-gradient-9"/><linearGradient id="linear-gradient-12" x1="9.33" y1="12.49" x2="11.07" y2="14.23" xlink:href="#linear-gradient-9"/><linearGradient id="linear-gradient-13" x1="2.08" y1="9.69" x2="3.11" y2="10.73" xlink:href="#linear-gradient-9"/><linearGradient id="linear-gradient-14" x1="12.84" y1="5.24" x2="13.87" y2="6.27" xlink:href="#linear-gradient-9"/><linearGradient id="linear-gradient-15" x1="5.23" y1="12.84" x2="6.26" y2="13.88" xlink:href="#linear-gradient-9"/><linearGradient id="linear-gradient-16" x1="9.69" y1="2.09" x2="10.72" y2="3.12" xlink:href="#linear-gradient-9"/><linearGradient id="linear-gradient-17" x1="4.62" y1="4.63" x2="11.33" y2="11.34" xlink:href="#linear-gradient"/></defs><g class="cls-26"><g id="Layer_2"><g id="_ÎÓÈ_4"><g><g><g class="cls-6"><path class="cls-17" d="m12.07,7.64c-1.04-.39-1.11-1.47-.17-2.36.5-.47,1.3-.74,2.25-.59,1.03.16,1.47.98.79,1.86-.66.86-1.9,1.46-2.87,1.09Z"/><path class="cls-1" d="m12.11,7.59c-1.03-.37-1.09-1.43-.17-2.29.5-.46,1.28-.72,2.2-.58,1,.15,1.42.95.75,1.81-.65.84-1.83,1.41-2.79,1.06Z"/><path class="cls-2" d="m12.14,7.54c-1.01-.35-1.07-1.39-.17-2.21.5-.45,1.27-.7,2.16-.57.97.15,1.38.92.72,1.76-.63.8-1.77,1.35-2.71,1.02Z"/><path class="cls-7" d="m12.18,7.49c-.99-.33-1.05-1.35-.17-2.14.49-.44,1.26-.68,2.11-.55.93.14,1.33.88.68,1.71-.61.78-1.71,1.3-2.62.99Z"/><path class="cls-8" d="m12.22,7.45c-.97-.31-1.03-1.31-.17-2.07.49-.44,1.25-.66,2.06-.54.9.13,1.29.85.65,1.66-.6.75-1.65,1.24-2.54.96Z"/><path class="cls-38" d="m12.25,7.4c-.95-.29-1.01-1.27-.17-2,.49-.43,1.23-.64,2.02-.53.87.12,1.24.82.61,1.61-.58.72-1.59,1.19-2.46.92Z"/><path class="cls-37" d="m12.29,7.35c-.94-.27-.99-1.22-.17-1.93.49-.42,1.22-.62,1.97-.51.84.12,1.2.79.57,1.55-.56.69-1.52,1.14-2.38.89Z"/><path class="cls-36" d="m12.33,7.3c-.92-.25-.97-1.18-.17-1.86.49-.41,1.21-.6,1.92-.5.8.11,1.16.76.54,1.5-.54.66-1.46,1.08-2.29.86Z"/><path class="cls-40" d="m12.36,7.25c-.9-.23-.95-1.14-.17-1.79.49-.4,1.19-.58,1.88-.49.77.11,1.11.72.5,1.45-.53.63-1.4,1.03-2.21.82Z"/><path class="cls-39" d="m12.4,7.2c-.88-.21-.93-1.1-.17-1.72.49-.4,1.18-.56,1.83-.47.74.1,1.07.69.46,1.4-.51.6-1.34.98-2.13.79Z"/><path class="cls-30" d="m12.44,7.16c-.86-.19-.91-1.06-.17-1.65.49-.39,1.17-.54,1.78-.46.71.09,1.02.66.43,1.35-.49.57-1.28.92-2.04.76Z"/><path class="cls-29" d="m12.47,7.11c-.85-.17-.89-1.02-.17-1.58.49-.38,1.15-.52,1.73-.45.67.08.98.63.39,1.3-.47.54-1.22.87-1.96.72Z"/><path class="cls-27" d="m12.51,7.06c-.83-.14-.86-.97-.17-1.5.49-.37,1.14-.5,1.69-.44.64.08.94.6.36,1.25-.46.51-1.16.82-1.88.69Z"/><path class="cls-28" d="m12.54,7.01c-.81-.12-.84-.93-.17-1.43.49-.36,1.13-.48,1.64-.42.61.07.89.57.32,1.2-.44.48-1.1.76-1.79.66Z"/><path class="cls-41" d="m12.58,6.96c-.79-.1-.82-.89-.17-1.36.49-.36,1.11-.46,1.59-.41.57.06.85.53.28,1.15-.42.45-1.03.71-1.71.62Z"/><path class="cls-35" d="m12.62,6.91c-.78-.08-.8-.84-.17-1.29.49-.35,1.1-.44,1.55-.4.54.05.81.5.25,1.1-.4.43-.97.66-1.63.59Z"/><path class="cls-33" d="m12.65,6.86c-.76-.06-.77-.8-.17-1.22.49-.34,1.09-.42,1.5-.38.51.05.76.47.21,1.04-.38.4-.91.61-1.55.56Z"/><path class="cls-34" d="m12.69,6.82c-.74-.03-.75-.76-.17-1.15.49-.33,1.07-.4,1.45-.37.48.04.72.44.18.99-.37.37-.85.55-1.46.53Z"/><path class="cls-32" d="m12.73,6.77c-.72-.01-.73-.71-.17-1.08.49-.32,1.06-.38,1.41-.36.44.03.68.41.14.94-.35.34-.79.5-1.38.49Z"/><path class="cls-31" d="m12.76,6.72c-.7.01-.71-.67-.17-1.01.49-.31,1.05-.36,1.36-.34.41.03.63.38.1.89-.33.31-.73.45-1.3.46Z"/><path class="cls-42" d="m12.8,6.67c-.69.03-.68-.62-.17-.94.49-.3,1.04-.34,1.31-.33.38.02.59.35.07.84-.31.29-.67.4-1.22.43Z"/><path class="cls-5" d="m12.84,6.62c-.67.06-.66-.58-.17-.87.49-.29,1.02-.32,1.27-.32.35.01.55.32.03.79-.29.26-.61.35-1.13.39Z"/></g><g class="cls-6"><path class="cls-17" d="m10.83,4.88c-1.02.46-2.05-.39-2.01-1.69.02-.68.39-1.44,1.17-2.01.84-.62,1.99.07,2.13,1.17.14,1.08-.34,2.1-1.29,2.53Z"/><path class="cls-1" d="m10.81,4.82c-.99.46-2-.37-1.95-1.63.03-.67.4-1.42,1.14-1.97.81-.6,1.92.06,2.06,1.14.14,1.05-.33,2.03-1.25,2.46Z"/><path class="cls-2" d="m10.79,4.75c-.96.47-1.94-.35-1.89-1.57.03-.67.4-1.4,1.12-1.93.79-.58,1.85.05,1.98,1.11.13,1.01-.32,1.96-1.22,2.39Z"/><path class="cls-7" d="m10.78,4.68c-.93.47-1.89-.33-1.83-1.52.03-.66.4-1.37,1.1-1.88.76-.56,1.79.04,1.91,1.08.12.98-.32,1.89-1.18,2.32Z"/><path class="cls-8" d="m10.76,4.62c-.91.47-1.84-.31-1.77-1.46.04-.66.41-1.35,1.07-1.84.73-.55,1.72.03,1.84,1.05.11.95-.31,1.82-1.14,2.25Z"/><path class="cls-38" d="m10.74,4.55c-.88.47-1.78-.29-1.7-1.4.04-.65.41-1.33,1.05-1.8.7-.53,1.65.02,1.76,1.02.1.92-.3,1.75-1.11,2.18Z"/><path class="cls-37" d="m10.72,4.48c-.85.47-1.73-.26-1.64-1.35.05-.65.42-1.3,1.02-1.76.67-.51,1.59,0,1.69.99.09.88-.3,1.69-1.07,2.11Z"/><path class="cls-36" d="m10.7,4.42c-.82.47-1.67-.24-1.58-1.29.05-.64.42-1.28,1-1.71.65-.49,1.52,0,1.61.96.08.85-.29,1.62-1.03,2.04Z"/><path class="cls-40" d="m10.68,4.35c-.8.48-1.62-.22-1.52-1.23.06-.63.43-1.25.98-1.67.62-.47,1.46-.02,1.54.93.07.82-.28,1.55-1,1.98Z"/><path class="cls-39" d="m10.66,4.28c-.77.48-1.56-.2-1.46-1.18.06-.63.44-1.23.95-1.63.59-.45,1.39-.03,1.47.9.06.78-.27,1.48-.96,1.91Z"/><path class="cls-30" d="m10.64,4.22c-.74.48-1.51-.18-1.4-1.12.07-.62.44-1.21.93-1.59.56-.44,1.32-.04,1.39.87.06.75-.27,1.41-.92,1.84Z"/><path class="cls-29" d="m10.62,4.15c-.71.48-1.45-.16-1.34-1.06.08-.61.44-1.18.91-1.55.54-.42,1.26-.05,1.32.84.05.72-.26,1.35-.89,1.77Z"/><path class="cls-27" d="m10.6,4.08c-.69.49-1.39-.14-1.28-1.01.08-.61.45-1.16.88-1.5.51-.4,1.19-.06,1.25.81.04.69-.25,1.28-.85,1.7Z"/><path class="cls-28" d="m10.58,4.02c-.66.49-1.34-.12-1.22-.95.09-.6.45-1.14.86-1.46.48-.38,1.13-.08,1.17.78.03.65-.25,1.21-.81,1.63Z"/><path class="cls-41" d="m10.57,3.95c-.63.49-1.28-.09-1.16-.89.09-.6.46-1.11.84-1.42.45-.36,1.06-.09,1.1.75.03.62-.24,1.14-.78,1.56Z"/><path class="cls-35" d="m10.55,3.88c-.6.49-1.22-.07-1.1-.83.1-.59.46-1.09.81-1.37.42-.34,1-.1,1.02.72.02.58-.23,1.07-.74,1.49Z"/><path class="cls-33" d="m10.53,3.82c-.57.5-1.17-.05-1.03-.78.11-.58.47-1.07.79-1.33.4-.33.93-.11.95.69.01.55-.22,1.01-.7,1.42Z"/><path class="cls-34" d="m10.51,3.75c-.55.5-1.11-.03-.97-.72.11-.58.47-1.04.77-1.29.37-.31.87-.12.88.66,0,.52-.21.94-.67,1.36Z"/><path class="cls-32" d="m10.49,3.68c-.52.5-1.05,0-.91-.67.12-.57.48-1.02.74-1.25.34-.29.81-.13.8.63,0,.49-.21.87-.63,1.29Z"/><path class="cls-31" d="m10.47,3.62c-.49.51-.99.01-.85-.61.13-.57.48-1,.72-1.21.31-.27.74-.14.73.6,0,.45-.2.81-.59,1.22Z"/><path class="cls-42" d="m10.45,3.55c-.46.51-.93.04-.79-.55.14-.56.49-.97.69-1.16.28-.25.68-.15.65.57-.02.42-.19.74-.56,1.15Z"/><path class="cls-5" d="m10.43,3.48c-.43.51-.88.06-.73-.49.15-.55.49-.95.67-1.12.25-.24.62-.16.58.54-.02.39-.18.67-.52,1.08Z"/></g><g class="cls-6"><path class="cls-17" d="m7.61,3.68c-.32,1.07-1.39,1.21-2.34.33-.5-.46-.83-1.24-.75-2.2.09-1.04,1.29-1.2,2.22-.58.91.6,1.17,1.45.86,2.45Z"/><path class="cls-1" d="m7.56,3.65c-.3,1.05-1.35,1.19-2.27.32-.49-.46-.81-1.23-.73-2.16.08-1.01,1.25-1.17,2.15-.56.88.59,1.13,1.41.85,2.39Z"/><path class="cls-2" d="m7.51,3.62c-.28,1.03-1.31,1.17-2.2.32-.48-.46-.79-1.22-.71-2.11.08-.98,1.2-1.14,2.09-.53.85.57,1.09,1.37.83,2.33Z"/><path class="cls-7" d="m7.46,3.58c-.26,1.01-1.27,1.14-2.13.31-.48-.46-.77-1.21-.7-2.06.07-.94,1.15-1.1,2.02-.51.82.56,1.05,1.33.81,2.26Z"/><path class="cls-8" d="m7.41,3.55c-.24.99-1.23,1.12-2.06.31-.47-.46-.75-1.2-.68-2.02.07-.91,1.1-1.07,1.95-.49.78.54,1.01,1.29.79,2.2Z"/><path class="cls-38" d="m7.36,3.52c-.23.97-1.19,1.1-1.99.3-.46-.46-.73-1.18-.67-1.97.06-.88,1.05-1.04,1.88-.46.75.53.98,1.25.77,2.13Z"/><path class="cls-37" d="m7.31,3.48c-.21.95-1.15,1.07-1.91.3-.45-.46-.7-1.17-.65-1.93.06-.84,1-1.01,1.81-.44.72.51.94,1.2.75,2.07Z"/><path class="cls-36" d="m7.26,3.45c-.19.93-1.11,1.05-1.84.29-.45-.46-.68-1.16-.63-1.88.06-.81.95-.98,1.74-.41.69.5.9,1.16.73,2Z"/><path class="cls-40" d="m7.21,3.42c-.17.91-1.07,1.03-1.77.29-.44-.46-.66-1.15-.62-1.84.05-.78.9-.95,1.67-.39.66.48.86,1.12.71,1.94Z"/><path class="cls-39" d="m7.16,3.38c-.15.89-1.03,1-1.7.28-.43-.46-.64-1.14-.6-1.79.05-.74.86-.92,1.61-.37.63.47.83,1.08.7,1.88Z"/><path class="cls-30" d="m7.1,3.35c-.13.88-.99.98-1.63.28-.42-.46-.62-1.12-.58-1.74.04-.71.81-.89,1.54-.34.6.45.79,1.04.68,1.81Z"/><path class="cls-29" d="m7.05,3.32c-.11.86-.95.95-1.56.27-.41-.46-.6-1.12-.57-1.7.04-.68.76-.86,1.47-.32.57.44.75,1,.66,1.75Z"/><path class="cls-27" d="m7,3.29c-.09.84-.91.93-1.49.27-.41-.46-.58-1.1-.55-1.65.03-.64.71-.83,1.4-.3.54.42.71.95.64,1.68Z"/><path class="cls-28" d="m6.95,3.25c-.07.82-.87.9-1.42.26-.4-.46-.56-1.09-.53-1.61.03-.61.66-.8,1.33-.27.51.4.68.91.62,1.62Z"/><path class="cls-41" d="m6.9,3.22c-.05.8-.83.88-1.35.26-.39-.46-.54-1.08-.52-1.56.02-.58.61-.77,1.26-.25.48.39.64.87.6,1.55Z"/><path class="cls-35" d="m6.85,3.19c-.03.78-.79.85-1.28.25-.38-.46-.52-1.07-.5-1.52.02-.55.57-.74,1.2-.23.45.37.6.83.58,1.49Z"/><path class="cls-33" d="m6.8,3.15c0,.76-.75.83-1.21.25-.37-.47-.5-1.06-.48-1.47.01-.51.52-.71,1.13-.2.42.35.57.79.56,1.42Z"/><path class="cls-34" d="m6.75,3.12c.02.74-.7.8-1.14.25-.36-.47-.48-1.04-.47-1.42,0-.48.47-.68,1.06-.18.39.34.53.75.55,1.36Z"/><path class="cls-32" d="m6.7,3.09c.04.72-.66.77-1.06.24-.35-.47-.45-1.03-.45-1.38,0-.44.42-.65.99-.16.36.32.5.7.53,1.3Z"/><path class="cls-31" d="m6.65,3.05c.06.7-.62.75-.99.23-.34-.47-.43-1.02-.43-1.33,0-.41.38-.63.92-.13.34.3.46.66.51,1.23Z"/><path class="cls-42" d="m6.6,3.02c.08.68-.58.72-.92.23-.33-.47-.41-1.01-.42-1.29,0-.38.33-.6.85-.11.31.29.42.62.49,1.17Z"/><path class="cls-5" d="m6.55,2.99c.1.66-.53.7-.85.22-.32-.47-.39-1-.4-1.24-.01-.35.28-.57.78-.09.28.27.39.58.47,1.1Z"/></g><g class="cls-6"><path class="cls-17" d="m11.26,10.78c-.52-.99.14-1.84,1.44-1.87.68-.02,1.46.31,2.08,1.05.67.81.45,1.71-.64,1.92-1.07.21-2.39-.17-2.87-1.09Z"/><path class="cls-1" d="m11.32,10.77c-.52-.96.13-1.8,1.39-1.82.68-.01,1.44.31,2.03,1.03.65.78.44,1.65-.64,1.85-1.04.2-2.3-.16-2.79-1.06Z"/><path class="cls-2" d="m11.38,10.76c-.52-.93.12-1.75,1.35-1.77.67,0,1.42.32,1.99,1,.63.75.42,1.6-.63,1.79-1,.18-2.22-.17-2.7-1.03Z"/><path class="cls-7" d="m11.44,10.75c-.52-.91.11-1.72,1.3-1.71.66,0,1.39.33,1.95.99.61.72.41,1.55-.62,1.73-.97.17-2.14-.16-2.62-1Z"/><path class="cls-8" d="m11.5,10.73c-.52-.88.09-1.68,1.25-1.66.66.01,1.37.33,1.9.96.59.7.4,1.49-.62,1.67-.94.16-2.06-.16-2.54-.97Z"/><path class="cls-38" d="m11.56,10.72c-.52-.85.08-1.62,1.2-1.61.65,0,1.35.34,1.86.94.57.67.39,1.44-.61,1.6-.91.15-1.98-.16-2.45-.94Z"/><path class="cls-37" d="m11.62,10.71c-.52-.82.07-1.57,1.16-1.55.65.01,1.32.34,1.81.92.55.64.38,1.39-.6,1.54-.88.14-1.89-.16-2.37-.91Z"/><path class="cls-36" d="m11.68,10.7c-.52-.8.06-1.53,1.11-1.5.64.02,1.3.35,1.77.9.53.62.36,1.33-.6,1.48-.84.13-1.81-.16-2.28-.88Z"/><path class="cls-40" d="m11.74,10.69c-.52-.77.05-1.48,1.06-1.45.64.02,1.28.36,1.73.88.51.59.35,1.28-.59,1.42-.81.12-1.73-.16-2.2-.85Z"/><path class="cls-39" d="m11.8,10.67c-.52-.74.04-1.44,1.02-1.39.63.03,1.25.36,1.68.86.49.56.34,1.22-.58,1.36-.78.11-1.65-.16-2.12-.82Z"/><path class="cls-30" d="m11.85,10.66c-.52-.71.02-1.39.97-1.34.62.03,1.23.37,1.64.84.47.54.33,1.17-.58,1.29-.75.1-1.57-.16-2.03-.79Z"/><path class="cls-29" d="m11.91,10.65c-.52-.68.01-1.35.92-1.29.62.04,1.21.38,1.59.82.45.51.32,1.12-.57,1.23-.71.09-1.49-.16-1.95-.76Z"/><path class="cls-27" d="m11.97,10.64c-.52-.66,0-1.3.87-1.24.61.05,1.18.38,1.55.79.43.48.3,1.07-.56,1.17-.68.08-1.41-.16-1.86-.73Z"/><path class="cls-28" d="m12.03,10.63c-.53-.63-.01-1.25.83-1.18.61.05,1.16.39,1.51.77.41.46.29,1.01-.56,1.11-.65.07-1.33-.16-1.78-.7Z"/><path class="cls-41" d="m12.09,10.61c-.53-.6-.02-1.21.78-1.13.6.06,1.14.39,1.46.75.39.43.28.96-.55,1.05-.62.06-1.25-.15-1.7-.67Z"/><path class="cls-35" d="m12.15,10.6c-.53-.57-.04-1.16.73-1.08.6.06,1.12.4,1.42.73.37.4.27.91-.54.98-.58.05-1.16-.15-1.61-.64Z"/><path class="cls-33" d="m12.21,10.59c-.53-.55-.05-1.11.69-1.02.59.07,1.09.41,1.38.71.35.38.26.86-.54.92-.55.04-1.08-.15-1.53-.61Z"/><path class="cls-34" d="m12.27,10.58c-.53-.52-.06-1.07.64-.97.58.08,1.07.41,1.33.69.33.35.25.81-.53.86-.52.03-1-.15-1.44-.58Z"/><path class="cls-32" d="m12.33,10.57c-.53-.49-.07-1.02.59-.92.58.09,1.05.42,1.29.67.31.32.23.76-.52.8-.49.03-.92-.15-1.36-.55Z"/><path class="cls-31" d="m12.39,10.55c-.53-.46-.08-.97.54-.86.57.1,1.02.42,1.24.65.29.29.22.71-.51.73-.45.02-.84-.15-1.28-.52Z"/><path class="cls-42" d="m12.45,10.54c-.54-.43-.1-.92.5-.81.57.1,1,.43,1.2.63.27.27.21.66-.51.67-.42,0-.76-.14-1.19-.49Z"/><path class="cls-5" d="m12.51,10.53c-.54-.4-.11-.87.45-.76.56.11.98.44,1.16.6.25.24.2.61-.5.61-.39,0-.68-.14-1.11-.46Z"/></g><g class="cls-6"><path class="cls-17" d="m8.71,12.37c.34-1.06,1.41-1.18,2.35-.28.49.47.81,1.26.7,2.22-.11,1.04-.91,1.51-1.82.88-.9-.62-1.55-1.82-1.23-2.81Z"/><path class="cls-1" d="m8.75,12.39c.32-1.04,1.38-1.16,2.28-.28.48.47.78,1.24.69,2.16-.1,1.01-.88,1.47-1.77.85-.87-.6-1.49-1.76-1.19-2.73Z"/><path class="cls-2" d="m8.79,12.41c.3-1.02,1.34-1.14,2.21-.27.47.47.76,1.22.67,2.11-.1.98-.85,1.43-1.73.82-.83-.59-1.44-1.7-1.16-2.65Z"/><path class="cls-7" d="m8.83,12.43c.28-1,1.31-1.11,2.15-.27.47.47.74,1.2.65,2.05-.09.94-.82,1.39-1.68.78-.8-.57-1.38-1.64-1.12-2.57Z"/><path class="cls-8" d="m8.87,12.46c.26-.99,1.27-1.09,2.08-.26.46.47.71,1.18.63,2-.09.91-.8,1.35-1.63.75-.77-.56-1.32-1.58-1.08-2.49Z"/><path class="cls-38" d="m8.91,12.48c.24-.97,1.24-1.06,2.02-.25.45.47.69,1.16.62,1.94-.08.88-.77,1.31-1.59.72-.74-.54-1.27-1.53-1.04-2.41Z"/><path class="cls-37" d="m8.95,12.5c.22-.95,1.21-1.04,1.95-.25.44.47.67,1.14.6,1.89-.08.84-.75,1.27-1.54.69-.71-.53-1.21-1.47-1.01-2.33Z"/><path class="cls-36" d="m8.99,12.52c.2-.93,1.17-1.01,1.89-.24.44.47.64,1.12.58,1.84-.07.81-.72,1.23-1.5.65-.68-.51-1.15-1.41-.97-2.25Z"/><path class="cls-40" d="m9.03,12.54c.18-.91,1.14-.99,1.82-.24.43.47.62,1.1.56,1.78-.07.78-.69,1.2-1.45.62-.65-.5-1.1-1.35-.93-2.17Z"/><path class="cls-39" d="m9.07,12.56c.16-.89,1.1-.96,1.76-.23.42.47.6,1.08.54,1.73-.06.74-.67,1.16-1.4.59-.62-.48-1.04-1.29-.9-2.09Z"/><path class="cls-30" d="m9.11,12.58c.14-.87,1.06-.93,1.69-.22.41.47.58,1.05.53,1.67-.06.71-.64,1.12-1.36.56-.59-.46-.98-1.23-.86-2Z"/><path class="cls-29" d="m9.15,12.6c.12-.85,1.03-.91,1.62-.22.4.47.55,1.04.51,1.62-.05.68-.61,1.08-1.31.52-.56-.45-.93-1.17-.82-1.92Z"/><path class="cls-27" d="m9.19,12.62c.1-.84.99-.88,1.56-.21.4.47.53,1.01.49,1.56-.05.64-.59,1.04-1.27.49-.53-.43-.87-1.12-.78-1.84Z"/><path class="cls-28" d="m9.23,12.64c.08-.82.96-.86,1.49-.21.39.47.51.99.47,1.51-.04.61-.56,1-1.22.46-.5-.41-.82-1.06-.75-1.76Z"/><path class="cls-41" d="m9.27,12.67c.06-.8.92-.83,1.43-.2.38.47.48.97.46,1.46-.03.58-.54.96-1.17.43-.48-.4-.76-1-.71-1.68Z"/><path class="cls-35" d="m9.31,12.69c.04-.78.88-.8,1.36-.2.37.47.46.95.44,1.4-.03.54-.51.92-1.13.39-.45-.38-.71-.94-.67-1.6Z"/><path class="cls-33" d="m9.35,12.71c.02-.76.85-.78,1.3-.19.36.47.44.93.42,1.35-.02.51-.48.88-1.08.36-.42-.36-.65-.88-.63-1.52Z"/><path class="cls-34" d="m9.4,12.73c0-.74.81-.75,1.23-.19.35.47.42.91.4,1.29-.02.48-.46.84-1.04.33-.39-.35-.6-.82-.6-1.44Z"/><path class="cls-32" d="m9.44,12.75c-.02-.72.77-.72,1.17-.18.34.47.39.89.38,1.24-.01.45-.43.81-.99.3-.36-.33-.54-.76-.56-1.35Z"/><path class="cls-31" d="m9.48,12.77c-.05-.7.74-.7,1.1-.17.33.48.37.87.37,1.18,0,.41-.41.77-.94.26-.33-.31-.49-.71-.52-1.28Z"/><path class="cls-42" d="m9.52,12.79c-.07-.68.7-.67,1.03-.17.32.48.35.85.35,1.13,0,.38-.38.73-.9.23-.3-.29-.43-.65-.49-1.19Z"/><path class="cls-5" d="m9.56,12.81c-.09-.66.66-.64.97-.16.31.48.33.83.33,1.08,0,.35-.36.7-.85.2-.27-.28-.38-.59-.45-1.11Z"/></g><g class="cls-6"><path class="cls-17" d="m5.56,11.88c.97-.56,1.84.07,1.93,1.36.05.68-.24,1.47-.96,2.12-.78.7-1.69.52-1.94-.56-.25-1.06.07-2.39.97-2.92Z"/><path class="cls-1" d="m5.57,11.92c.93-.55,1.79.05,1.88,1.31.04.67-.25,1.45-.94,2.07-.75.68-1.64.51-1.88-.55-.24-1.03.07-2.32.94-2.83Z"/><path class="cls-2" d="m5.58,11.96c.9-.54,1.74.03,1.82,1.26.04.67-.25,1.43-.91,2.03-.72.66-1.58.5-1.82-.55-.23-1,.08-2.24.92-2.74Z"/><path class="cls-7" d="m5.59,12c.87-.52,1.69.02,1.76,1.21.04.66-.26,1.4-.89,1.98-.7.64-1.53.49-1.76-.54-.21-.96.08-2.16.89-2.65Z"/><path class="cls-8" d="m5.6,12.04c.83-.51,1.63,0,1.7,1.16.04.65-.26,1.38-.87,1.94-.67.62-1.48.48-1.7-.53-.2-.93.08-2.09.86-2.56Z"/><path class="cls-38" d="m5.61,12.08c.8-.5,1.58-.02,1.65,1.11.04.65-.26,1.36-.85,1.89-.65.6-1.43.47-1.63-.52-.19-.9.09-2.01.84-2.48Z"/><path class="cls-37" d="m5.62,12.12c.77-.49,1.53-.03,1.59,1.05.04.64-.27,1.33-.82,1.85-.62.57-1.37.46-1.57-.51-.18-.87.09-1.94.81-2.39Z"/><path class="cls-36" d="m5.63,12.16c.74-.47,1.48-.05,1.53,1,.03.63-.27,1.31-.8,1.8-.59.55-1.32.45-1.51-.5-.17-.84.1-1.86.78-2.3Z"/><path class="cls-40" d="m5.63,12.2c.7-.46,1.42-.06,1.47.95.03.63-.28,1.28-.78,1.75-.57.53-1.27.44-1.45-.49-.15-.81.1-1.79.76-2.21Z"/><path class="cls-39" d="m5.64,12.25c.67-.45,1.37-.08,1.42.9.03.62-.28,1.26-.76,1.71-.54.51-1.22.43-1.39-.49-.14-.77.11-1.71.73-2.13Z"/><path class="cls-30" d="m5.65,12.29c.64-.44,1.32-.1,1.36.85.03.61-.28,1.24-.73,1.66-.52.49-1.17.42-1.33-.48-.13-.74.11-1.64.7-2.04Z"/><path class="cls-29" d="m5.66,12.33c.6-.42,1.26-.11,1.3.8.03.61-.29,1.21-.71,1.62-.49.47-1.12.41-1.27-.47-.12-.71.12-1.56.68-1.95Z"/><path class="cls-27" d="m5.67,12.37c.57-.41,1.21-.13,1.25.75.02.6-.29,1.19-.69,1.57-.46.45-1.07.4-1.21-.46-.11-.68.12-1.49.65-1.86Z"/><path class="cls-28" d="m5.68,12.41c.54-.4,1.16-.15,1.19.7.02.59-.3,1.17-.67,1.53-.44.43-1.02.39-1.14-.45-.1-.65.13-1.41.62-1.78Z"/><path class="cls-41" d="m5.69,12.45c.51-.39,1.1-.16,1.13.65.02.59-.3,1.14-.64,1.48-.41.41-.96.38-1.08-.44-.09-.61.13-1.34.6-1.69Z"/><path class="cls-35" d="m5.69,12.49c.47-.37,1.05-.18,1.07.6.02.58-.3,1.12-.62,1.44-.39.38-.91.37-1.02-.43-.08-.58.14-1.26.57-1.6Z"/><path class="cls-33" d="m5.7,12.53c.44-.36,1-.19,1.02.55.01.57-.31,1.09-.6,1.39-.36.36-.86.36-.96-.43-.07-.55.14-1.18.54-1.51Z"/><path class="cls-34" d="m5.71,12.57c.41-.35.95-.21.96.5.01.56-.31,1.07-.58,1.34-.33.34-.81.35-.9-.42-.06-.52.14-1.11.52-1.43Z"/><path class="cls-32" d="m5.72,12.61c.38-.34.89-.23.9.45,0,.56-.31,1.05-.55,1.3-.31.32-.77.34-.84-.41-.05-.49.15-1.04.49-1.34Z"/><path class="cls-31" d="m5.73,12.65c.34-.32.84-.24.85.4,0,.55-.32,1.03-.53,1.25-.28.3-.72.33-.78-.4-.04-.45.15-.96.46-1.25Z"/><path class="cls-42" d="m5.74,12.69c.31-.31.78-.26.79.35,0,.54-.32,1-.51,1.21-.25.28-.67.33-.71-.39-.03-.42.16-.88.44-1.16Z"/><path class="cls-5" d="m5.75,12.73c.28-.3.73-.27.73.29,0,.54-.32.98-.49,1.16-.23.26-.62.32-.65-.38-.02-.39.16-.81.41-1.08Z"/></g><g class="cls-6"><path class="cls-17" d="m3.68,9.13c1.1.17,1.39,1.08.65,2.14-.39.56-1.27.84-2.23.89-1.04.05-1.64-.66-1.15-1.66.47-.98,1.7-1.53,2.73-1.37Z"/><path class="cls-1" d="m3.66,9.16c1.07.16,1.36,1.03.64,2.06-.39.55-1.25.83-2.17.88-1.01.05-1.59-.64-1.11-1.62.46-.95,1.65-1.47,2.65-1.32Z"/><path class="cls-2" d="m3.63,9.19c1.04.15,1.33.98.62,1.99-.39.54-1.23.81-2.12.86-.98.05-1.54-.61-1.07-1.57.45-.92,1.6-1.42,2.57-1.28Z"/><path class="cls-7" d="m3.61,9.22c1,.14,1.3.94.61,1.91-.38.54-1.21.8-2.07.85-.94.05-1.5-.59-1.03-1.53.44-.88,1.55-1.37,2.48-1.23Z"/><path class="cls-8" d="m3.58,9.25c.97.13,1.27.89.59,1.84-.38.53-1.19.79-2.01.83-.91.05-1.45-.56-.98-1.48.43-.85,1.5-1.31,2.4-1.19Z"/><path class="cls-38" d="m3.56,9.28c.94.12,1.24.85.58,1.76-.38.53-1.17.77-1.96.82-.88.05-1.4-.54-.94-1.43.42-.82,1.45-1.26,2.32-1.15Z"/><path class="cls-37" d="m3.53,9.31c.9.11,1.21.8.57,1.69-.38.52-1.15.76-1.91.81-.84.05-1.36-.51-.9-1.39.41-.79,1.4-1.2,2.24-1.1Z"/><path class="cls-36" d="m3.51,9.34c.87.1,1.17.76.55,1.61-.37.51-1.13.74-1.85.79-.81.05-1.31-.49-.86-1.34.4-.75,1.35-1.15,2.16-1.06Z"/><path class="cls-40" d="m3.48,9.37c.84.09,1.14.71.54,1.53-.37.51-1.11.73-1.8.78-.78.05-1.26-.46-.81-1.3.39-.72,1.3-1.09,2.08-1.01Z"/><path class="cls-39" d="m3.46,9.4c.8.07,1.11.67.53,1.46-.37.5-1.1.72-1.75.76-.74.05-1.22-.44-.77-1.25.38-.69,1.25-1.04,1.99-.97Z"/><path class="cls-30" d="m3.43,9.43c.77.06,1.08.62.51,1.38-.36.49-1.08.7-1.7.75-.71.05-1.17-.41-.73-1.21.37-.66,1.2-.99,1.91-.93Z"/><path class="cls-29" d="m3.41,9.46c.74.05,1.05.57.5,1.31-.36.49-1.06.69-1.64.74-.68.05-1.13-.39-.69-1.16.35-.63,1.15-.93,1.83-.88Z"/><path class="cls-27" d="m3.39,9.49c.7.04,1.01.53.49,1.23-.36.48-1.04.67-1.59.72-.64.05-1.08-.36-.65-1.12.34-.59,1.1-.88,1.75-.84Z"/><path class="cls-28" d="m3.36,9.52c.67.03.98.48.47,1.16-.36.47-1.02.66-1.54.71-.61.05-1.03-.34-.6-1.07.33-.56,1.05-.82,1.67-.79Z"/><path class="cls-41" d="m3.34,9.55c.64.02.95.44.46,1.08-.35.47-1,.65-1.48.69-.58.05-.99-.31-.56-1.03.32-.53,1-.77,1.58-.75Z"/><path class="cls-35" d="m3.31,9.58c.6,0,.92.39.45,1.01-.35.46-.98.63-1.43.68-.54.06-.94-.29-.52-.98.31-.5.95-.71,1.5-.71Z"/><path class="cls-33" d="m3.29,9.61c.57,0,.89.34.43.93-.35.45-.96.62-1.38.67-.51.06-.9-.26-.48-.94.29-.47.9-.66,1.42-.66Z"/><path class="cls-34" d="m3.26,9.64c.54-.01.85.3.42.86-.35.45-.94.61-1.32.65-.47.06-.86-.24-.43-.89.28-.44.85-.61,1.34-.62Z"/><path class="cls-32" d="m3.24,9.67c.5-.02.82.25.41.78-.34.44-.92.59-1.27.64-.44.06-.81-.22-.39-.85.27-.41.8-.55,1.26-.57Z"/><path class="cls-31" d="m3.21,9.7c.47-.04.79.2.39.7-.34.43-.91.58-1.22.62-.41.06-.77-.19-.35-.8.26-.37.75-.5,1.17-.53Z"/><path class="cls-42" d="m3.19,9.73c.44-.05.76.16.38.63-.34.42-.89.57-1.16.61-.37.06-.72-.17-.31-.75.24-.34.7-.45,1.09-.49Z"/><path class="cls-5" d="m3.16,9.76c.4-.06.72.11.36.55-.34.42-.87.55-1.11.6-.34.06-.68-.15-.27-.71.23-.31.65-.39,1.01-.44Z"/></g><g class="cls-6"><path class="cls-17" d="m11.69,9.51c-.95-.87-.56-2.05.83-2.6.73-.29,1.71-.24,2.66.33,1.04.61,1.15,1.68.05,2.33-1.08.64-2.65.75-3.54-.06Z"/><path class="cls-1" d="m11.75,9.47c-.94-.84-.56-2,.8-2.52.73-.28,1.69-.22,2.61.32,1.01.59,1.12,1.63.03,2.26-1.05.62-2.57.72-3.44-.06Z"/><path class="cls-2" d="m11.81,9.44c-.93-.81-.56-1.95.77-2.44.72-.27,1.66-.21,2.55.31.98.57,1.09,1.57.02,2.19-1.02.59-2.48.69-3.34-.06Z"/><path class="cls-7" d="m11.87,9.4c-.92-.78-.55-1.89.74-2.37.72-.26,1.64-.19,2.5.31.94.55,1.05,1.52,0,2.12-.99.57-2.39.66-3.23-.06Z"/><path class="cls-8" d="m11.93,9.37c-.91-.75-.55-1.84.71-2.29.72-.26,1.62-.18,2.44.3.91.53,1.02,1.46-.02,2.05-.96.54-2.3.63-3.13-.06Z"/><path class="cls-38" d="m11.99,9.33c-.9-.72-.54-1.79.68-2.22.71-.25,1.59-.16,2.38.3.88.5.98,1.41-.03,1.98-.93.52-2.21.6-3.03-.06Z"/><path class="cls-37" d="m12.05,9.29c-.89-.69-.54-1.74.65-2.14.71-.24,1.57-.14,2.33.29.85.49.95,1.36-.05,1.91-.89.5-2.12.57-2.93-.06Z"/><path class="cls-36" d="m12.11,9.26c-.88-.66-.53-1.68.62-2.06.7-.23,1.55-.13,2.27.29.81.46.92,1.3-.07,1.84-.86.47-2.03.53-2.82-.06Z"/><path class="cls-40" d="m12.17,9.22c-.87-.63-.53-1.63.59-1.99.7-.22,1.53-.11,2.22.28.78.44.88,1.25-.09,1.77-.83.45-1.94.5-2.72-.06Z"/><path class="cls-39" d="m12.23,9.18c-.86-.6-.52-1.58.56-1.91.7-.22,1.5-.1,2.16.27.75.42.85,1.2-.1,1.7-.8.42-1.85.47-2.62-.06Z"/><path class="cls-30" d="m12.29,9.15c-.85-.57-.52-1.52.53-1.84.69-.21,1.48-.08,2.11.27.72.4.81,1.15-.12,1.63-.77.4-1.77.44-2.51-.06Z"/><path class="cls-29" d="m12.35,9.11c-.84-.54-.51-1.47.5-1.76.69-.2,1.46-.07,2.05.26.68.38.78,1.09-.14,1.56-.74.38-1.68.41-2.41-.06Z"/><path class="cls-27" d="m12.41,9.08c-.83-.51-.51-1.41.47-1.68.68-.19,1.44-.05,1.99.26.65.36.75,1.04-.15,1.49-.71.35-1.59.38-2.31-.06Z"/><path class="cls-28" d="m12.47,9.04c-.82-.48-.5-1.36.44-1.61.68-.18,1.41-.03,1.94.25.62.34.71.99-.17,1.42-.68.33-1.5.35-2.21-.06Z"/><path class="cls-41" d="m12.53,9c-.81-.45-.5-1.3.41-1.53.68-.17,1.39-.02,1.88.24.59.31.68.94-.19,1.35-.64.31-1.41.32-2.1-.06Z"/><path class="cls-35" d="m12.59,8.97c-.8-.42-.49-1.25.38-1.45.67-.16,1.37,0,1.83.24.56.29.65.88-.2,1.28-.61.29-1.32.29-2-.06Z"/><path class="cls-33" d="m12.65,8.93c-.79-.38-.49-1.19.34-1.38.67-.15,1.35.01,1.77.23.52.27.61.83-.22,1.21-.58.26-1.24.26-1.9-.06Z"/><path class="cls-34" d="m12.71,8.89c-.78-.35-.48-1.13.31-1.3.67-.14,1.32.03,1.72.23.49.25.58.78-.24,1.14-.55.24-1.15.23-1.79-.06Z"/><path class="cls-32" d="m12.77,8.86c-.77-.32-.47-1.08.28-1.23.66-.13,1.3.04,1.66.22.46.23.55.73-.25,1.07-.52.22-1.06.2-1.69-.06Z"/><path class="cls-31" d="m12.83,8.82c-.76-.29-.47-1.02.25-1.15.66-.12,1.28.06,1.6.22.43.21.52.68-.27,1-.48.2-.97.17-1.59-.06Z"/><path class="cls-42" d="m12.89,8.79c-.75-.26-.46-.96.22-1.07.66-.11,1.26.08,1.55.21.4.18.48.63-.29.93-.45.17-.88.14-1.48-.06Z"/><path class="cls-5" d="m12.95,8.75c-.74-.22-.46-.9.19-1,.65-.1,1.23.09,1.49.2.37.16.45.58-.3.86-.42.15-.8.11-1.38-.06Z"/></g><g class="cls-6"><path class="cls-17" d="m11.56,6.44c-1.29,0-1.8-1.13-1.14-2.47.35-.71,1.1-1.33,2.18-1.56,1.18-.25,2.03.76,1.66,1.99-.36,1.2-1.49,2.04-2.7,2.04Z"/><path class="cls-1" d="m11.58,6.38c-1.26.02-1.76-1.09-1.12-2.4.35-.7,1.09-1.3,2.14-1.53,1.14-.24,1.97.73,1.6,1.94-.35,1.16-1.45,1.97-2.62,1.99Z"/><path class="cls-2" d="m11.6,6.31c-1.23.03-1.73-1.06-1.09-2.32.35-.69,1.08-1.28,2.09-1.49,1.1-.24,1.9.7,1.53,1.88-.35,1.13-1.4,1.9-2.54,1.93Z"/><path class="cls-7" d="m11.62,6.24c-1.2.05-1.69-1.02-1.06-2.25.35-.68,1.08-1.25,2.05-1.46,1.07-.23,1.84.67,1.47,1.83-.34,1.09-1.35,1.84-2.46,1.88Z"/><path class="cls-8" d="m11.64,6.17c-1.18.06-1.65-.99-1.03-2.17.35-.67,1.07-1.22,2-1.43,1.03-.23,1.78.64,1.41,1.77-.34,1.05-1.31,1.77-2.39,1.82Z"/><path class="cls-38" d="m11.66,6.11c-1.15.08-1.61-.95-1-2.09.36-.66,1.07-1.2,1.96-1.39.99-.22,1.71.61,1.35,1.72-.33,1.01-1.26,1.7-2.31,1.77Z"/><path class="cls-37" d="m11.67,6.04c-1.12.09-1.57-.92-.97-2.01.36-.66,1.06-1.17,1.91-1.36.95-.21,1.65.58,1.29,1.66-.32.97-1.21,1.63-2.23,1.71Z"/><path class="cls-36" d="m11.69,5.97c-1.09.11-1.53-.88-.94-1.94.36-.65,1.05-1.14,1.87-1.33.91-.21,1.59.55,1.22,1.61-.32.93-1.16,1.56-2.15,1.66Z"/><path class="cls-40" d="m11.71,5.91c-1.06.12-1.49-.84-.91-1.86.36-.64,1.05-1.12,1.82-1.29.88-.2,1.52.52,1.16,1.55-.31.89-1.12,1.49-2.07,1.6Z"/><path class="cls-39" d="m11.73,5.84c-1.04.14-1.45-.81-.88-1.79.37-.63,1.04-1.09,1.78-1.26.84-.2,1.46.49,1.1,1.5-.3.86-1.07,1.43-2,1.55Z"/><path class="cls-30" d="m11.75,5.77c-1.01.15-1.41-.77-.85-1.71.37-.62,1.04-1.06,1.73-1.23.8-.19,1.4.45,1.04,1.44-.3.82-1.03,1.36-1.92,1.49Z"/><path class="cls-29" d="m11.77,5.7c-.98.17-1.37-.73-.82-1.63.37-.61,1.03-1.04,1.69-1.19.76-.18,1.34.42.98,1.39-.29.78-.98,1.29-1.84,1.44Z"/><path class="cls-27" d="m11.79,5.64c-.95.18-1.33-.7-.79-1.56.37-.6,1.02-1.01,1.64-1.16.72-.18,1.27.39.91,1.33-.28.74-.93,1.22-1.76,1.38Z"/><path class="cls-28" d="m11.81,5.57c-.93.2-1.29-.66-.77-1.48.38-.59,1.02-.98,1.6-1.13.68-.17,1.21.36.85,1.28-.27.7-.89,1.16-1.68,1.33Z"/><path class="cls-41" d="m11.83,5.5c-.9.22-1.25-.62-.74-1.4.38-.58,1.01-.95,1.55-1.09.65-.17,1.15.33.79,1.22-.27.66-.84,1.09-1.61,1.27Z"/><path class="cls-35" d="m11.85,5.44c-.87.23-1.2-.59-.71-1.33.39-.57,1.01-.93,1.51-1.06.61-.16,1.09.3.73,1.17-.26.62-.79,1.02-1.53,1.22Z"/><path class="cls-33" d="m11.87,5.37c-.84.25-1.16-.55-.68-1.25.39-.57,1-.9,1.46-1.03.57-.16,1.03.27.67,1.11-.25.59-.75.95-1.45,1.16Z"/><path class="cls-34" d="m11.89,5.3c-.81.27-1.12-.51-.65-1.17.39-.55.99-.87,1.42-.99.53-.15.97.24.6,1.06-.24.55-.7.89-1.37,1.11Z"/><path class="cls-32" d="m11.91,5.24c-.78.28-1.08-.47-.62-1.1.4-.55.99-.85,1.37-.96.49-.15.91.21.54,1-.23.51-.65.82-1.29,1.05Z"/><path class="cls-31" d="m11.93,5.17c-.76.3-1.03-.43-.59-1.02.4-.53.98-.82,1.33-.93.45-.14.85.18.48.95-.23.47-.61.75-1.22,1Z"/><path class="cls-42" d="m11.95,5.1c-.73.32-.99-.4-.56-.94.41-.52.98-.79,1.28-.89.42-.13.79.15.42.89-.22.43-.56.69-1.14.94Z"/><path class="cls-5" d="m11.97,5.03c-.7.34-.95-.36-.53-.87.42-.51.97-.77,1.24-.86.38-.13.73.12.36.84-.21.4-.51.62-1.06.89Z"/></g><g class="cls-6"><path class="cls-17" d="m9.67,4.2c-.88.94-2.29.61-2.82-.79-.28-.74-.22-1.71.36-2.66.63-1.03,2.18-1,2.83.11.63,1.09.46,2.46-.36,3.34Z"/><path class="cls-1" d="m9.63,4.14c-.85.93-2.23.6-2.73-.76-.27-.73-.2-1.69.35-2.6.6-1,2.11-.97,2.73.12.61,1.05.44,2.38-.35,3.25Z"/><path class="cls-2" d="m9.58,4.09c-.82.92-2.16.6-2.65-.73-.26-.73-.19-1.67.34-2.55.58-.97,2.03-.95,2.64.13.58,1.03.43,2.3-.34,3.15Z"/><path class="cls-7" d="m9.53,4.03c-.79.91-2.1.59-2.56-.71-.26-.72-.17-1.64.34-2.49.56-.94,1.95-.92,2.54.14.56.99.41,2.22-.32,3.06Z"/><path class="cls-8" d="m9.49,3.97c-.76.9-2.04.58-2.47-.68-.25-.72-.16-1.62.33-2.44.54-.9,1.87-.89,2.45.15.53.96.39,2.14-.31,2.97Z"/><path class="cls-38" d="m9.44,3.91c-.73.89-1.97.58-2.39-.65-.24-.71-.14-1.6.32-2.38.52-.87,1.8-.87,2.36.16.51.93.37,2.06-.29,2.87Z"/><path class="cls-37" d="m9.39,3.86c-.7.88-1.91.57-2.3-.62-.23-.71-.13-1.57.32-2.33.49-.84,1.72-.84,2.26.17.49.9.36,1.98-.28,2.78Z"/><path class="cls-36" d="m9.35,3.8c-.67.87-1.84.56-2.21-.59-.22-.71-.11-1.55.31-2.27.47-.81,1.64-.81,2.17.18.46.87.34,1.9-.27,2.69Z"/><path class="cls-40" d="m9.3,3.74c-.64.86-1.78.55-2.13-.57-.22-.7-.1-1.53.3-2.21.45-.78,1.57-.78,2.08.19.44.84.32,1.82-.25,2.59Z"/><path class="cls-39" d="m9.25,3.69c-.61.85-1.71.55-2.04-.54-.21-.7-.08-1.5.3-2.16.43-.75,1.49-.76,1.98.2.42.81.3,1.74-.24,2.5Z"/><path class="cls-30" d="m9.21,3.63c-.58.84-1.65.54-1.95-.51-.2-.69-.06-1.48.29-2.1.41-.71,1.41-.73,1.89.21.39.77.28,1.66-.23,2.41Z"/><path class="cls-29" d="m9.16,3.57c-.55.83-1.58.53-1.86-.48-.19-.69-.05-1.46.29-2.05.39-.68,1.34-.7,1.79.22.37.74.27,1.59-.21,2.31Z"/><path class="cls-27" d="m9.11,3.52c-.52.82-1.52.52-1.78-.46-.18-.69-.03-1.44.28-1.99.37-.65,1.26-.68,1.7.23.35.71.25,1.51-.2,2.22Z"/><path class="cls-28" d="m9.07,3.46c-.49.81-1.45.51-1.69-.43-.17-.68-.02-1.41.27-1.94.34-.62,1.18-.65,1.61.24.32.68.23,1.43-.19,2.13Z"/><path class="cls-41" d="m9.02,3.4c-.46.8-1.39.5-1.6-.4-.16-.68,0-1.39.27-1.88.32-.58,1.11-.63,1.51.25.3.65.22,1.35-.17,2.03Z"/><path class="cls-35" d="m8.97,3.34c-.43.79-1.32.5-1.52-.37-.15-.67.01-1.37.26-1.82.3-.55,1.03-.6,1.42.26.28.62.2,1.27-.16,1.94Z"/><path class="cls-33" d="m8.93,3.29c-.39.78-1.25.49-1.43-.34-.14-.67.03-1.34.25-1.77.28-.52.96-.57,1.32.27.26.58.18,1.19-.15,1.85Z"/><path class="cls-34" d="m8.88,3.23c-.36.77-1.18.48-1.34-.32-.13-.67.04-1.32.25-1.71.25-.49.88-.55,1.23.28.23.55.17,1.11-.13,1.75Z"/><path class="cls-32" d="m8.83,3.17c-.33.77-1.11.47-1.26-.29-.12-.66.06-1.3.24-1.66.23-.46.81-.52,1.14.29.21.52.15,1.03-.12,1.66Z"/><path class="cls-31" d="m8.79,3.12c-.3.76-1.05.46-1.17-.26-.11-.66.07-1.28.23-1.6.21-.43.73-.5,1.04.3.19.49.13.96-.11,1.57Z"/><path class="cls-42" d="m8.74,3.06c-.27.75-.98.45-1.08-.23-.1-.66.09-1.25.23-1.55.19-.4.66-.47.95.3.17.45.12.88-.09,1.47Z"/><path class="cls-5" d="m8.69,3c-.23.74-.91.45-1-.2-.09-.65.1-1.23.22-1.49.16-.36.59-.45.85.31.15.42.1.8-.08,1.38Z"/></g><g class="cls-6"><path class="cls-17" d="m6.69,5.76c-.31,1.25-1.53,1.48-2.68.52-.6-.51-1.03-1.38-.99-2.49.04-1.21.92-1.82,2.02-1.16,1.08.64,1.93,1.97,1.65,3.14Z"/><path class="cls-1" d="m6.63,5.73c-.28,1.23-1.49,1.45-2.59.51-.59-.51-1.01-1.37-.97-2.44.04-1.17.89-1.76,1.97-1.12,1.05.62,1.87,1.91,1.6,3.05Z"/><path class="cls-2" d="m6.57,5.69c-.26,1.2-1.44,1.42-2.51.5-.59-.51-.98-1.36-.95-2.39.03-1.13.86-1.71,1.92-1.07,1.01.61,1.79,1.84,1.55,2.96Z"/><path class="cls-7" d="m6.51,5.66c-.24,1.18-1.4,1.39-2.43.49-.58-.5-.96-1.35-.93-2.34.03-1.09.83-1.65,1.86-1.02.97.59,1.72,1.78,1.5,2.87Z"/><path class="cls-8" d="m6.45,5.62c-.22,1.16-1.35,1.36-2.35.48-.57-.51-.93-1.33-.91-2.29.03-1.05.8-1.59,1.81-.97.94.58,1.65,1.71,1.45,2.78Z"/><path class="cls-38" d="m6.39,5.59c-.2,1.13-1.31,1.34-2.27.47-.56-.51-.91-1.32-.89-2.24.02-1.01.77-1.54,1.76-.92.9.56,1.58,1.65,1.4,2.69Z"/><path class="cls-37" d="m6.33,5.55c-.18,1.11-1.27,1.31-2.19.46-.55-.51-.88-1.31-.86-2.18.02-.98.74-1.48,1.7-.87.86.55,1.51,1.59,1.35,2.6Z"/><path class="cls-36" d="m6.27,5.52c-.16,1.09-1.22,1.28-2.11.45-.54-.51-.86-1.3-.84-2.13.02-.94.7-1.43,1.65-.82.83.53,1.44,1.53,1.3,2.51Z"/><path class="cls-40" d="m6.21,5.48c-.14,1.06-1.18,1.25-2.03.44-.53-.51-.83-1.29-.82-2.08.01-.9.67-1.37,1.59-.77.79.52,1.37,1.46,1.25,2.42Z"/><path class="cls-39" d="m6.15,5.45c-.12,1.04-1.13,1.22-1.94.43-.52-.51-.81-1.27-.8-2.03,0-.86.64-1.32,1.54-.73.76.5,1.3,1.4,1.2,2.33Z"/><path class="cls-30" d="m6.09,5.41c-.09,1.01-1.09,1.19-1.86.42-.51-.51-.78-1.26-.78-1.98,0-.82.61-1.26,1.49-.68.72.48,1.24,1.34,1.15,2.24Z"/><path class="cls-29" d="m6.03,5.38c-.07.99-1.04,1.15-1.78.41-.5-.51-.76-1.25-.75-1.92,0-.78.58-1.21,1.43-.63.69.47,1.17,1.27,1.1,2.15Z"/><path class="cls-27" d="m5.96,5.34c-.05.97-1,1.12-1.7.4-.5-.51-.73-1.24-.73-1.87,0-.74.55-1.16,1.38-.58.65.45,1.1,1.21,1.05,2.06Z"/><path class="cls-28" d="m5.9,5.3c-.03.95-.95,1.09-1.62.39-.49-.51-.71-1.22-.71-1.82,0-.71.52-1.1,1.33-.53.61.43,1.03,1.15,1,1.96Z"/><path class="cls-41" d="m5.84,5.27c0,.92-.9,1.06-1.54.38-.48-.51-.68-1.21-.69-1.77,0-.67.49-1.05,1.27-.48.58.42.96,1.09.95,1.88Z"/><path class="cls-35" d="m5.78,5.24c.02.9-.86,1.03-1.46.37-.47-.51-.66-1.2-.67-1.72-.01-.63.46-.99,1.22-.44.54.4.89,1.02.9,1.79Z"/><path class="cls-33" d="m5.72,5.2c.04.88-.81,1-1.38.36-.46-.51-.63-1.19-.65-1.67-.01-.59.43-.94,1.17-.39.51.38.82.96.86,1.69Z"/><path class="cls-34" d="m5.66,5.17c.06.85-.76.96-1.29.35-.45-.52-.61-1.18-.62-1.62-.02-.55.4-.88,1.11-.34.47.37.75.9.81,1.6Z"/><path class="cls-32" d="m5.6,5.13c.09.83-.72.93-1.21.34-.43-.52-.59-1.16-.6-1.56-.02-.51.38-.83,1.06-.29.44.35.69.83.76,1.51Z"/><path class="cls-31" d="m5.54,5.09c.11.81-.67.9-1.13.33-.42-.52-.56-1.15-.58-1.51-.03-.47.35-.78,1.01-.24.4.33.62.77.71,1.42Z"/><path class="cls-42" d="m5.48,5.06c.14.78-.62.87-1.05.32-.41-.52-.54-1.14-.56-1.46-.03-.44.32-.73.95-.19.37.31.55.71.66,1.33Z"/><path class="cls-5" d="m5.42,5.02c.16.76-.57.83-.97.31-.4-.53-.51-1.13-.54-1.41-.03-.4.29-.68.9-.14.34.3.48.64.61,1.24Z"/></g><g class="cls-6"><path class="cls-17" d="m3.58,14.5c-1.29.07-1.86-1.04-1.27-2.41.31-.72,1.03-1.39,2.1-1.67,1.17-.31,2.17.43,1.86,1.68-.3,1.22-1.49,2.34-2.69,2.4Z"/><path class="cls-1" d="m3.59,14.43c-1.26.08-1.81-1-1.24-2.34.31-.71,1.02-1.36,2.06-1.64,1.13-.3,2.1.42,1.79,1.64-.29,1.18-1.44,2.26-2.61,2.33Z"/><path class="cls-2" d="m3.61,14.37c-1.23.1-1.78-.97-1.2-2.26.31-.71,1.02-1.33,2.01-1.6,1.09-.3,2.03.4,1.72,1.6-.29,1.14-1.39,2.18-2.53,2.26Z"/><path class="cls-7" d="m3.62,14.3c-1.2.11-1.74-.93-1.17-2.19.32-.7,1.01-1.31,1.97-1.57,1.05-.29,1.96.38,1.65,1.56-.29,1.1-1.34,2.09-2.45,2.2Z"/><path class="cls-8" d="m3.64,14.23c-1.17.12-1.7-.9-1.14-2.11.32-.69,1.01-1.28,1.93-1.53,1.01-.28,1.89.37,1.58,1.52-.28,1.06-1.3,2.01-2.37,2.12Z"/><path class="cls-38" d="m3.66,14.16c-1.14.14-1.66-.87-1.11-2.04.32-.68,1-1.25,1.88-1.49.98-.27,1.82.35,1.51,1.48-.28,1.03-1.25,1.93-2.29,2.06Z"/><path class="cls-37" d="m3.67,14.09c-1.11.15-1.62-.83-1.07-1.96.32-.67,1-1.22,1.84-1.46.94-.26,1.75.33,1.44,1.43-.27.99-1.2,1.85-2.21,1.99Z"/><path class="cls-36" d="m3.69,14.03c-1.09.16-1.57-.8-1.04-1.89.33-.66.99-1.2,1.8-1.42.9-.26,1.68.32,1.37,1.39-.27.95-1.15,1.77-2.13,1.92Z"/><path class="cls-40" d="m3.71,13.96c-1.06.18-1.53-.77-1.01-1.81.33-.66.99-1.17,1.75-1.39.86-.25,1.61.3,1.31,1.35-.26.91-1.1,1.69-2.05,1.85Z"/><path class="cls-39" d="m3.72,13.89c-1.03.19-1.49-.73-.97-1.74.33-.65.98-1.14,1.71-1.35.83-.24,1.54.28,1.24,1.31-.26.87-1.06,1.61-1.97,1.78Z"/><path class="cls-30" d="m3.74,13.82c-1,.21-1.45-.7-.94-1.66.34-.64.98-1.11,1.67-1.32.79-.23,1.47.26,1.17,1.27-.25.83-1.01,1.53-1.89,1.71Z"/><path class="cls-29" d="m3.75,13.75c-.97.22-1.41-.66-.91-1.59.34-.63.98-1.09,1.62-1.28.75-.22,1.4.25,1.1,1.23-.25.79-.96,1.45-1.81,1.64Z"/><path class="cls-27" d="m3.77,13.69c-.94.23-1.36-.63-.87-1.51.34-.62.97-1.06,1.58-1.25.71-.22,1.34.23,1.03,1.19-.24.75-.91,1.37-1.73,1.57Z"/><path class="cls-28" d="m3.79,13.62c-.91.25-1.32-.59-.84-1.44.35-.61.97-1.03,1.54-1.21.67-.21,1.27.21.96,1.15-.24.71-.86,1.29-1.65,1.5Z"/><path class="cls-41" d="m3.8,13.55c-.88.26-1.28-.56-.81-1.36.35-.6.96-1,1.49-1.17.64-.2,1.2.2.89,1.11-.23.68-.82,1.2-1.57,1.43Z"/><path class="cls-35" d="m3.82,13.48c-.86.28-1.23-.52-.77-1.29.36-.59.96-.98,1.45-1.14.6-.19,1.13.18.82,1.06-.23.64-.77,1.12-1.49,1.36Z"/><path class="cls-33" d="m3.83,13.41c-.83.29-1.19-.49-.74-1.21.36-.58.95-.95,1.41-1.1.56-.19,1.06.16.75,1.02-.22.6-.72,1.04-1.41,1.29Z"/><path class="cls-34" d="m3.85,13.35c-.8.31-1.14-.45-.71-1.14.36-.57.95-.92,1.36-1.07.52-.18,1,.15.68.98-.21.56-.67.96-1.33,1.22Z"/><path class="cls-32" d="m3.87,13.28c-.77.32-1.1-.42-.68-1.06.37-.57.94-.9,1.32-1.03.48-.17.93.13.61.94-.21.52-.62.89-1.25,1.15Z"/><path class="cls-31" d="m3.88,13.21c-.74.34-1.05-.38-.64-.99.38-.55.94-.87,1.28-.99.45-.16.86.12.54.9-.2.48-.58.81-1.17,1.08Z"/><path class="cls-42" d="m3.9,13.14c-.71.36-1.01-.34-.61-.91.38-.54.93-.84,1.23-.96.41-.16.8.1.47.86-.19.45-.53.73-1.09,1.01Z"/><path class="cls-5" d="m3.91,13.07c-.68.37-.96-.31-.58-.84.39-.53.93-.82,1.19-.92.37-.15.73.09.4.82-.19.41-.48.65-1.01.94Z"/></g><g class="cls-6"><path class="cls-17" d="m.79,9.89c-1.13-.62-1.03-1.86.2-2.72.65-.45,1.6-.63,2.67-.31,1.15.35,1.51,1.36.59,2.26-.9.88-2.4,1.35-3.46.77Z"/><path class="cls-1" d="m.84,9.84c-1.11-.59-1.01-1.81.19-2.64.64-.44,1.59-.61,2.61-.3,1.12.34,1.47,1.32.56,2.19-.88.85-2.33,1.3-3.36.74Z"/><path class="cls-2" d="m.89,9.79c-1.09-.57-1-1.76.18-2.56.64-.43,1.57-.59,2.56-.29,1.08.33,1.42,1.27.53,2.13-.85.82-2.25,1.25-3.26.72Z"/><path class="cls-7" d="m.94,9.74c-1.08-.54-.98-1.71.16-2.48.64-.42,1.55-.57,2.5-.29,1.05.31,1.38,1.23.5,2.06-.83.78-2.17,1.2-3.16.7Z"/><path class="cls-8" d="m.99,9.69c-1.06-.52-.96-1.66.15-2.4.64-.42,1.53-.55,2.44-.28,1.01.3,1.33,1.19.46,2-.8.75-2.09,1.15-3.06.67Z"/><path class="cls-38" d="m1.04,9.64c-1.04-.49-.95-1.61.14-2.31.63-.41,1.51-.53,2.39-.27.97.29,1.29,1.14.43,1.94-.78.72-2.01,1.1-2.96.65Z"/><path class="cls-37" d="m1.09,9.59c-1.02-.46-.93-1.56.13-2.23.63-.4,1.49-.51,2.33-.26.94.27,1.24,1.1.4,1.87-.75.69-1.93,1.05-2.86.62Z"/><path class="cls-36" d="m1.13,9.54c-1.01-.44-.91-1.51.12-2.15.63-.39,1.48-.49,2.28-.25.9.26,1.19,1.05.36,1.81-.73.66-1.85,1-2.76.6Z"/><path class="cls-40" d="m1.18,9.49c-.99-.41-.9-1.46.11-2.07.63-.38,1.46-.47,2.22-.25.86.25,1.15,1.01.33,1.74-.71.63-1.77.94-2.66.58Z"/><path class="cls-39" d="m1.23,9.44c-.97-.38-.88-1.41.09-1.99.62-.37,1.44-.45,2.17-.24.83.23,1.11.97.3,1.68-.68.6-1.69.89-2.56.55Z"/><path class="cls-30" d="m1.28,9.4c-.96-.36-.86-1.36.08-1.91.62-.36,1.42-.43,2.11-.23.79.22,1.06.92.27,1.61-.66.57-1.61.84-2.46.53Z"/><path class="cls-29" d="m1.33,9.35c-.94-.33-.84-1.31.07-1.83.62-.35,1.4-.41,2.05-.23.76.21,1.02.88.23,1.55-.63.54-1.53.79-2.36.5Z"/><path class="cls-27" d="m1.38,9.3c-.92-.3-.82-1.25.06-1.75.62-.34,1.38-.38,2-.22.72.19.97.84.2,1.49-.6.51-1.46.74-2.26.48Z"/><path class="cls-28" d="m1.43,9.25c-.91-.27-.81-1.2.05-1.66.62-.34,1.37-.36,1.94-.21.68.18.93.79.17,1.42-.58.48-1.38.69-2.16.46Z"/><path class="cls-41" d="m1.48,9.2c-.89-.25-.79-1.15.04-1.58.62-.33,1.35-.34,1.89-.2.65.17.88.75.13,1.36-.56.45-1.3.64-2.06.43Z"/><path class="cls-35" d="m1.53,9.15c-.87-.22-.77-1.1.02-1.5.62-.32,1.33-.32,1.83-.2.61.15.84.71.1,1.29-.53.42-1.22.59-1.96.41Z"/><path class="cls-33" d="m1.58,9.1c-.86-.19-.75-1.04.01-1.42.62-.31,1.31-.3,1.78-.19.57.14.79.66.07,1.23-.5.39-1.14.54-1.86.38Z"/><path class="cls-34" d="m1.63,9.05c-.84-.16-.73-.99,0-1.34.61-.29,1.29-.28,1.72-.18.54.13.75.62.04,1.16-.48.36-1.06.49-1.76.36Z"/><path class="cls-32" d="m1.68,9c-.82-.13-.71-.93-.01-1.26.61-.28,1.27-.26,1.67-.17.5.11.71.58,0,1.1-.45.33-.98.44-1.66.33Z"/><path class="cls-31" d="m1.73,8.95c-.81-.1-.69-.88-.02-1.18.61-.27,1.26-.24,1.61-.17.47.1.66.54-.03,1.03-.43.3-.91.39-1.56.31Z"/><path class="cls-42" d="m1.78,8.9c-.79-.07-.67-.83-.03-1.1.61-.26,1.24-.22,1.55-.16.43.08.62.5-.06.97-.4.28-.83.34-1.46.29Z"/><path class="cls-5" d="m1.83,8.85c-.77-.04-.66-.77-.05-1.02.61-.25,1.22-.2,1.5-.15.39.07.58.46-.1.91-.37.25-.75.3-1.36.26Z"/></g><g class="cls-6"><path class="cls-17" d="m10.07,12.33c-.2-1.27.84-1.95,2.27-1.51.75.23,1.48.88,1.88,1.92.43,1.13-.15,2.03-1.42,1.85-1.24-.17-2.54-1.07-2.73-2.26Z"/><path class="cls-1" d="m10.12,12.34c-.21-1.24.81-1.92,2.2-1.48.74.24,1.45.87,1.84,1.88.41,1.09-.13,1.96-1.38,1.79-1.2-.17-2.46-1.03-2.66-2.19Z"/><path class="cls-2" d="m10.18,12.34c-.22-1.21.79-1.88,2.13-1.45.73.24,1.43.86,1.79,1.84.4,1.06-.12,1.9-1.34,1.73-1.16-.16-2.38-.99-2.58-2.12Z"/><path class="cls-7" d="m10.24,12.34c-.23-1.18.76-1.85,2.06-1.42.73.24,1.4.86,1.75,1.8.38,1.02-.1,1.83-1.3,1.66-1.12-.16-2.29-.96-2.51-2.05Z"/><path class="cls-8" d="m10.3,12.34c-.24-1.15.73-1.82,2-1.38.72.25,1.37.85,1.7,1.77.36.99-.08,1.76-1.27,1.6-1.08-.15-2.21-.92-2.43-1.98Z"/><path class="cls-38" d="m10.36,12.34c-.25-1.12.71-1.78,1.93-1.35.71.25,1.34.84,1.66,1.73.35.95-.07,1.7-1.23,1.53-1.04-.15-2.13-.88-2.36-1.91Z"/><path class="cls-37" d="m10.41,12.34c-.26-1.09.68-1.75,1.86-1.32.7.25,1.31.83,1.61,1.69.33.92-.05,1.63-1.19,1.47-1-.14-2.05-.84-2.28-1.84Z"/><path class="cls-36" d="m10.47,12.35c-.27-1.06.66-1.71,1.79-1.29.69.26,1.28.83,1.57,1.65.31.88-.04,1.56-1.15,1.41-.96-.14-1.96-.81-2.21-1.77Z"/><path class="cls-40" d="m10.53,12.35c-.28-1.03.63-1.67,1.73-1.26.69.26,1.25.82,1.52,1.62.29.85-.02,1.5-1.11,1.34-.92-.13-1.88-.77-2.14-1.7Z"/><path class="cls-39" d="m10.59,12.35c-.3-1,.6-1.64,1.66-1.23.68.26,1.22.81,1.48,1.58.28.81,0,1.43-1.07,1.28-.88-.13-1.8-.73-2.06-1.63Z"/><path class="cls-30" d="m10.64,12.35c-.31-.97.58-1.6,1.59-1.2.67.27,1.19.8,1.43,1.54.26.78,0,1.36-1.04,1.21-.84-.12-1.72-.7-1.99-1.56Z"/><path class="cls-29" d="m10.7,12.35c-.32-.94.55-1.57,1.52-1.16.66.27,1.16.8,1.39,1.5.24.74.02,1.3-1,1.15-.8-.12-1.63-.66-1.91-1.49Z"/><path class="cls-27" d="m10.76,12.36c-.33-.91.52-1.53,1.45-1.13.65.28,1.13.79,1.34,1.46.23.71.04,1.23-.96,1.09-.76-.11-1.55-.62-1.84-1.42Z"/><path class="cls-28" d="m10.82,12.36c-.34-.88.5-1.49,1.39-1.1.64.28,1.1.78,1.3,1.43.21.67.06,1.16-.92,1.02-.72-.1-1.47-.58-1.76-1.35Z"/><path class="cls-41" d="m10.87,12.36c-.35-.85.47-1.45,1.32-1.07.64.29,1.07.78,1.26,1.39.19.64.07,1.1-.88.96-.68-.1-1.39-.55-1.69-1.28Z"/><path class="cls-35" d="m10.93,12.36c-.36-.82.44-1.42,1.25-1.04.63.29,1.04.77,1.21,1.35.18.6.09,1.03-.85.89-.64-.09-1.31-.51-1.62-1.21Z"/><path class="cls-33" d="m10.99,12.36c-.38-.79.42-1.38,1.18-1.01.62.3,1.01.76,1.17,1.31.16.57.1.96-.81.83-.6-.09-1.23-.47-1.54-1.14Z"/><path class="cls-34" d="m11.05,12.37c-.39-.76.39-1.34,1.11-.98.61.3.98.75,1.12,1.28.14.53.12.9-.77.76-.56-.08-1.14-.43-1.47-1.07Z"/><path class="cls-32" d="m11.11,12.37c-.4-.73.36-1.3,1.05-.94.6.31.95.75,1.08,1.24.13.5.13.83-.73.7-.52-.08-1.06-.4-1.39-1Z"/><path class="cls-31" d="m11.16,12.37c-.41-.7.33-1.26.98-.91.59.32.92.74,1.03,1.2.11.46.15.76-.69.64-.48-.07-.98-.36-1.32-.93Z"/><path class="cls-42" d="m11.22,12.37c-.43-.67.3-1.22.91-.88.58.32.89.73.99,1.16.09.43.16.7-.66.57-.44-.07-.9-.32-1.24-.86Z"/><path class="cls-5" d="m11.28,12.37c-.44-.64.27-1.18.84-.85.57.33.87.72.94,1.13.08.39.18.63-.62.51-.4-.06-.82-.28-1.17-.79Z"/></g><g class="cls-6"><path class="cls-17" d="m9.37,12.09c-.92-.91-2.08-.46-2.55.96-.25.75-.15,1.72.46,2.64.67,1.01,1.73,1.07,2.33-.07.59-1.11.62-2.69-.24-3.54Z"/><path class="cls-1" d="m9.34,12.14c-.88-.9-2.03-.46-2.49.92-.24.74-.14,1.69.45,2.59.65.97,1.67,1.04,2.26-.07.57-1.08.6-2.6-.23-3.44Z"/><path class="cls-2" d="m9.31,12.19c-.86-.89-1.99-.46-2.42.89-.24.74-.13,1.66.45,2.53.63.94,1.61,1.01,2.18-.08.55-1.04.58-2.51-.21-3.34Z"/><path class="cls-7" d="m9.28,12.24c-.82-.88-1.95-.46-2.36.85-.23.73-.12,1.63.44,2.47.61.91,1.54.99,2.11-.09.53-1,.56-2.42-.2-3.23Z"/><path class="cls-8" d="m9.24,12.29c-.79-.87-1.9-.46-2.29.81-.22.73-.11,1.6.44,2.41.59.87,1.48.96,2.04-.09.51-.97.55-2.33-.18-3.13Z"/><path class="cls-38" d="m9.21,12.33c-.76-.86-1.86-.47-2.23.78-.21.72-.1,1.58.43,2.35.57.84,1.42.94,1.96-.1.49-.93.53-2.24-.17-3.03Z"/><path class="cls-37" d="m9.18,12.38c-.73-.85-1.82-.47-2.16.74-.21.72-.09,1.55.43,2.3.55.8,1.35.91,1.89-.11.47-.9.51-2.16-.16-2.93Z"/><path class="cls-36" d="m9.15,12.43c-.7-.84-1.77-.47-2.09.7-.2.71-.08,1.52.43,2.24.53.77,1.29.88,1.81-.11.45-.86.49-2.07-.14-2.83Z"/><path class="cls-40" d="m9.12,12.48c-.67-.83-1.73-.47-2.03.67-.19.71-.06,1.49.42,2.18.52.74,1.23.86,1.74-.12.43-.83.47-1.98-.13-2.73Z"/><path class="cls-39" d="m9.08,12.53c-.64-.82-1.68-.47-1.96.63-.18.7-.05,1.46.42,2.12.5.7,1.17.83,1.66-.13.42-.79.46-1.89-.12-2.62Z"/><path class="cls-30" d="m9.05,12.57c-.61-.82-1.64-.47-1.9.59-.17.7-.04,1.43.41,2.06.48.67,1.1.8,1.59-.13.4-.76.44-1.8-.1-2.52Z"/><path class="cls-29" d="m9.02,12.62c-.58-.81-1.59-.47-1.83.55-.16.7-.03,1.41.41,2.01.46.63,1.04.78,1.52-.14.38-.72.42-1.71-.09-2.42Z"/><path class="cls-27" d="m8.99,12.67c-.55-.8-1.55-.47-1.77.52-.16.69-.02,1.38.4,1.95.44.6.98.75,1.44-.15.36-.68.4-1.62-.08-2.32Z"/><path class="cls-28" d="m8.95,12.72c-.52-.79-1.5-.47-1.7.48-.15.69,0,1.35.4,1.89.42.56.91.72,1.37-.15.34-.65.38-1.53-.06-2.22Z"/><path class="cls-41" d="m8.92,12.77c-.49-.78-1.45-.47-1.64.45-.14.68,0,1.32.39,1.83.4.53.85.7,1.29-.16.32-.61.37-1.45-.05-2.12Z"/><path class="cls-35" d="m8.89,12.81c-.45-.78-1.41-.47-1.57.41-.13.68.01,1.29.39,1.77.39.5.79.67,1.22-.17.3-.58.35-1.36-.04-2.02Z"/><path class="cls-33" d="m8.86,12.86c-.42-.77-1.36-.47-1.51.37-.12.68.03,1.26.38,1.71.37.46.72.65,1.15-.17.28-.54.33-1.27-.02-1.91Z"/><path class="cls-34" d="m8.83,12.91c-.39-.76-1.31-.47-1.44.34-.11.67.04,1.24.38,1.66.35.43.66.62,1.07-.18.26-.51.32-1.18,0-1.81Z"/><path class="cls-32" d="m8.79,12.96c-.36-.75-1.27-.47-1.38.3-.1.67.05,1.21.38,1.6.33.39.6.59,1-.19.24-.47.3-1.09,0-1.71Z"/><path class="cls-31" d="m8.76,13c-.33-.74-1.22-.47-1.31.26-.09.66.06,1.18.37,1.54.31.36.53.57.92-.19.22-.43.28-1.01.02-1.61Z"/><path class="cls-42" d="m8.73,13.05c-.29-.74-1.17-.47-1.25.22-.08.66.07,1.15.37,1.48.29.33.47.54.85-.2.2-.4.27-.92.03-1.51Z"/><path class="cls-5" d="m8.7,13.1c-.26-.73-1.12-.47-1.18.19-.06.66.08,1.12.36,1.42.27.29.41.51.77-.21.19-.36.25-.83.05-1.41Z"/></g></g><g><path class="cls-4" d="m8.75,2.08c0,.92-.85,1.67-.85,1.67,0,0-.85-.75-.85-1.67s.85-1.67.85-1.67c0,0,.85.75.85,1.67Z"/><path class="cls-4" d="m8.75,13.73c0,.92-.85,1.67-.85,1.67,0,0-.85-.75-.85-1.67s.85-1.67.85-1.67c0,0,.85.75.85,1.67Z"/><path class="cls-4" d="m2.07,7.05c.92,0,1.67.85,1.67.85,0,0-.75.85-1.67.85s-1.67-.85-1.67-.85c0,0,.75-.85,1.67-.85Z"/><path class="cls-4" d="m13.72,7.05c.92,0,1.67.85,1.67.85,0,0-.75.85-1.67.85s-1.67-.85-1.67-.85c0,0,.75-.85,1.67-.85Z"/><path class="cls-4" d="m3.18,11.42c.65-.65,1.78-.58,1.78-.58,0,0,.08,1.13-.58,1.78-.65.65-1.78.58-1.78.58,0,0-.07-1.13.58-1.78Z"/><path class="cls-4" d="m11.41,3.18c.65-.65,1.78-.58,1.78-.58,0,0,.07,1.13-.58,1.78-.65.65-1.78.58-1.78.58,0,0-.07-1.13.58-1.78Z"/><path class="cls-4" d="m11.41,12.62c-.65-.65-.58-1.78-.58-1.78,0,0,1.13-.08,1.78.58.65.65.58,1.78.58,1.78,0,0-1.13.07-1.78-.58Z"/><path class="cls-4" d="m3.18,4.39c-.65-.65-.58-1.78-.58-1.78,0,0,1.13-.07,1.78.58.65.65.58,1.78.58,1.78,0,0-1.13.08-1.78-.58Z"/></g><g><path class="cls-4" d="m13.01,10.76c-.68-.28-.97-1.14-.97-1.14,0,0,.81-.4,1.49-.12.68.28.97,1.14.97,1.14,0,0-.81.4-1.49.12Z"/><path class="cls-4" d="m2.26,6.31c-.68-.28-.97-1.14-.97-1.14,0,0,.81-.4,1.49-.12.68.28.97,1.14.97,1.14,0,0-.81.4-1.49.12Z"/><path class="cls-4" d="m6.3,2.26c.28.68-.12,1.49-.12,1.49,0,0-.86-.29-1.14-.97-.28-.68.12-1.49.12-1.49,0,0,.86.29,1.14.97Z"/><path class="cls-4" d="m10.75,13.02c.28.68-.12,1.49-.12,1.49,0,0-.86-.29-1.14-.97-.28-.68.12-1.49.12-1.49,0,0,.86.29,1.14.97Z"/><path class="cls-4" d="m2.26,9.5c.68-.28,1.49.12,1.49.12,0,0-.29.86-.97,1.14-.68.28-1.49-.12-1.49-.12,0,0,.29-.86.97-1.14Z"/><path class="cls-4" d="m13.01,5.05c.68-.28,1.49.12,1.49.12,0,0-.29.86-.97,1.14-.68.28-1.49-.12-1.49-.12,0,0,.29-.86.97-1.14Z"/><path class="cls-4" d="m5.04,13.02c.28-.68,1.14-.97,1.14-.97,0,0,.4.81.12,1.49-.28.68-1.14.97-1.14.97,0,0-.4-.81-.12-1.49Z"/><path class="cls-4" d="m9.5,2.26c.28-.68,1.14-.97,1.14-.97,0,0,.4.81.12,1.49-.28.68-1.14.97-1.14.97,0,0-.4-.81-.12-1.49Z"/></g><g><path class="cls-3" d="m8.83,2.16c0,.92-.85,1.67-.85,1.67,0,0-.85-.75-.85-1.67s.85-1.67.85-1.67c0,0,.85.75.85,1.67Z"/><path class="cls-13" d="m8.83,13.8c0,.92-.85,1.67-.85,1.67,0,0-.85-.75-.85-1.67s.85-1.67.85-1.67c0,0,.85.75.85,1.67Z"/><path class="cls-11" d="m2.15,7.13c.92,0,1.67.85,1.67.85,0,0-.75.85-1.67.85s-1.67-.85-1.67-.85c0,0,.75-.85,1.67-.85Z"/><path class="cls-12" d="m13.8,7.13c.92,0,1.67.85,1.67.85,0,0-.75.85-1.67.85s-1.67-.85-1.67-.85c0,0,.75-.85,1.67-.85Z"/><path class="cls-16" d="m3.26,11.5c.65-.65,1.78-.58,1.78-.58,0,0,.07,1.13-.58,1.78-.65.65-1.78.58-1.78.58,0,0-.07-1.13.58-1.78Z"/><path class="cls-14" d="m11.49,3.26c.65-.65,1.78-.58,1.78-.58,0,0,.07,1.13-.58,1.78-.65.65-1.78.58-1.78.58,0,0-.08-1.13.58-1.78Z"/><path class="cls-15" d="m11.49,12.7c-.65-.65-.58-1.78-.58-1.78,0,0,1.13-.08,1.78.58.65.65.58,1.78.58,1.78,0,0-1.13.08-1.78-.58Z"/><path class="cls-9" d="m3.26,4.47c-.65-.65-.58-1.78-.58-1.78,0,0,1.13-.08,1.78.58.65.65.58,1.78.58,1.78,0,0-1.13.07-1.78-.58Z"/></g><g><path class="cls-10" d="m13.09,10.84c-.68-.28-.97-1.14-.97-1.14,0,0,.81-.4,1.49-.12s.97,1.14.97,1.14c0,0-.81.4-1.49.12Z"/><path class="cls-24" d="m2.33,6.38c-.68-.28-.97-1.14-.97-1.14,0,0,.81-.4,1.49-.12.68.28.97,1.14.97,1.14,0,0-.81.4-1.49.12Z"/><path class="cls-25" d="m6.38,2.34c.28.68-.12,1.49-.12,1.49,0,0-.86-.29-1.14-.97-.28-.68.12-1.49.12-1.49,0,0,.86.29,1.14.97Z"/><path class="cls-23" d="m10.83,13.1c.28.68-.12,1.49-.12,1.49,0,0-.86-.29-1.14-.97-.28-.68.12-1.49.12-1.49,0,0,.86.29,1.14.97Z"/><path class="cls-22" d="m2.34,9.58c.68-.28,1.49.12,1.49.12,0,0-.29.86-.97,1.14-.68.28-1.49-.12-1.49-.12,0,0,.29-.86.97-1.14Z"/><path class="cls-18" d="m13.09,5.12c.68-.28,1.49.12,1.49.12,0,0-.29.86-.97,1.14-.68.28-1.49-.12-1.49-.12,0,0,.29-.86.97-1.14Z"/><path class="cls-19" d="m5.12,13.1c.28-.68,1.14-.97,1.14-.97,0,0,.4.81.12,1.49-.28.68-1.14.97-1.14.97,0,0-.4-.81-.12-1.49Z"/><path class="cls-20" d="m9.57,2.34c.28-.68,1.14-.97,1.14-.97,0,0,.4.81.12,1.49-.28.68-1.14.97-1.14.97,0,0-.4-.81-.12-1.49Z"/></g><g class="cls-6"><path class="cls-17" d="m13.27,13.96c-2.41,2-5.7,2.43-8.62.6-3.89-2.43-3-5.71-1.21-5.78,1.75-.07,3.24.51,4.36-.67,1.31-1.38,1.32-2.89,1.67-4.48.39-1.77,2.63-2.33,5.04.24,2.63,2.8,1.79,7.58-1.25,10.09Z"/><path class="cls-1" d="m13.2,13.81c-2.34,1.96-5.53,2.39-8.38.66-3.81-2.31-3.01-5.5-1.28-5.58,1.69-.08,3.21.55,4.39-.7,1.31-1.39,1.31-2.88,1.63-4.45.36-1.72,2.54-2.27,4.87.25,2.52,2.71,1.74,7.34-1.22,9.82Z"/><path class="cls-2" d="m13.13,13.66c-2.27,1.92-5.36,2.36-8.14.72-3.73-2.19-3.02-5.29-1.35-5.38,1.63-.09,3.19.6,4.41-.72,1.31-1.41,1.29-2.87,1.59-4.41.33-1.68,2.44-2.2,4.69.26,2.41,2.63,1.68,7.11-1.2,9.54Z"/><path class="cls-7" d="m13.05,13.51c-2.21,1.88-5.19,2.32-7.9.77-3.65-2.08-3.04-5.08-1.42-5.18,1.56-.1,3.16.64,4.43-.75,1.3-1.42,1.27-2.86,1.54-4.38.3-1.64,2.35-2.13,4.52.27,2.3,2.54,1.63,6.87-1.17,9.26Z"/><path class="cls-8" d="m12.98,13.36c-2.14,1.84-5.02,2.29-7.66.83-3.57-1.96-3.05-4.87-1.49-4.99,1.5-.11,3.14.68,4.45-.77,1.3-1.43,1.25-2.85,1.5-4.34.27-1.59,2.26-2.07,4.34.28,2.19,2.46,1.58,6.64-1.15,8.99Z"/><path class="cls-38" d="m12.91,13.21c-2.07,1.79-4.85,2.25-7.42.89-3.49-1.85-3.07-4.67-1.56-4.79,1.43-.11,3.11.73,4.48-.8,1.29-1.45,1.23-2.84,1.46-4.3.24-1.55,2.16-2,4.17.29,2.08,2.37,1.53,6.4-1.12,8.71Z"/><path class="cls-37" d="m12.84,13.06c-2.01,1.75-4.68,2.22-7.18.94-3.41-1.73-3.08-4.46-1.63-4.59,1.37-.12,3.09.77,4.5-.82,1.29-1.46,1.21-2.83,1.42-4.27.21-1.51,2.07-1.93,3.99.3,1.97,2.29,1.48,6.17-1.1,8.43Z"/><path class="cls-36" d="m12.76,12.92c-1.94,1.71-4.51,2.18-6.94,1-3.33-1.62-3.1-4.25-1.7-4.39,1.3-.13,3.07.82,4.52-.84,1.29-1.47,1.2-2.82,1.37-4.23.18-1.46,1.98-1.87,3.82.31,1.86,2.2,1.43,5.94-1.07,8.15Z"/><path class="cls-40" d="m12.69,12.77c-1.87,1.67-4.33,2.15-6.7,1.06-3.25-1.5-3.11-4.04-1.77-4.19,1.24-.14,3.05.86,4.54-.87,1.29-1.48,1.18-2.8,1.33-4.2.16-1.42,1.89-1.8,3.64.32,1.75,2.12,1.37,5.7-1.05,7.88Z"/><path class="cls-39" d="m12.62,12.62c-1.8,1.63-4.16,2.11-6.46,1.11-3.18-1.38-3.12-3.83-1.84-3.99,1.17-.14,3.02.9,4.57-.89,1.28-1.5,1.16-2.79,1.29-4.16.13-1.38,1.79-1.74,3.47.33,1.64,2.03,1.32,5.47-1.02,7.6Z"/><path class="cls-30" d="m12.55,12.47c-1.74,1.59-3.99,2.08-6.22,1.17-3.1-1.27-3.14-3.62-1.91-3.79,1.11-.15,3,.95,4.59-.92,1.28-1.51,1.14-2.78,1.25-4.13.1-1.33,1.7-1.67,3.29.34,1.53,1.94,1.27,5.23-.99,7.32Z"/><path class="cls-29" d="m12.47,12.32c-1.67,1.55-3.82,2.05-5.98,1.23-3.02-1.15-3.15-3.41-1.98-3.59,1.04-.16,2.98,1,4.61-.94,1.28-1.52,1.13-2.77,1.2-4.09.07-1.29,1.61-1.61,3.12.35,1.43,1.85,1.22,5-.97,7.04Z"/><path class="cls-27" d="m12.4,12.17c-1.6,1.51-3.66,2.01-5.74,1.28-2.94-1.03-3.17-3.2-2.05-3.39.98-.16,2.96,1.04,4.63-.96,1.28-1.53,1.11-2.76,1.16-4.06.05-1.24,1.52-1.54,2.94.36,1.32,1.77,1.17,4.77-.94,6.77Z"/><path class="cls-28" d="m12.33,12.02c-1.53,1.47-3.49,1.98-5.5,1.34-2.86-.91-3.18-2.99-2.12-3.19.91-.17,2.94,1.09,4.66-.99,1.28-1.54,1.09-2.75,1.12-4.02.02-1.2,1.43-1.48,2.77.37,1.21,1.68,1.12,4.54-.92,6.49Z"/><path class="cls-41" d="m12.26,11.87c-1.46,1.43-3.32,1.95-5.26,1.4-2.79-.79-3.2-2.78-2.19-2.99.85-.17,2.91,1.13,4.68-1.01,1.28-1.55,1.08-2.73,1.08-3.99,0-1.15,1.34-1.42,2.59.38,1.1,1.59,1.07,4.3-.89,6.21Z"/><path class="cls-35" d="m12.18,11.72c-1.4,1.38-3.15,1.92-5.02,1.45-2.71-.67-3.21-2.57-2.26-2.79.78-.18,2.89,1.18,4.7-1.04,1.27-1.56,1.07-2.72,1.03-3.95-.03-1.11,1.25-1.35,2.41.39,1,1.5,1.01,4.06-.87,5.93Z"/><path class="cls-33" d="m12.11,11.57c-1.33,1.34-2.98,1.89-4.78,1.51-2.63-.55-3.23-2.36-2.33-2.59.72-.18,2.87,1.22,4.72-1.06,1.27-1.57,1.05-2.71.99-3.92-.05-1.06,1.16-1.29,2.24.4.89,1.41.96,3.83-.84,5.66Z"/><path class="cls-34" d="m12.04,11.42c-1.27,1.3-2.81,1.86-4.54,1.57-2.56-.43-3.24-2.15-2.4-2.39.65-.19,2.85,1.27,4.75-1.09,1.27-1.58,1.04-2.7.95-3.88-.08-1.02,1.08-1.23,2.06.41.79,1.32.91,3.6-.82,5.38Z"/><path class="cls-32" d="m11.97,11.27c-1.2,1.26-2.64,1.83-4.3,1.62-2.48-.31-3.25-1.94-2.47-2.19.59-.19,2.83,1.32,4.77-1.11,1.27-1.59,1.02-2.69.91-3.84-.1-.97.99-1.17,1.89.42.69,1.23.86,3.36-.79,5.1Z"/><path class="cls-31" d="m11.89,11.13c-1.13,1.22-2.47,1.8-4.06,1.68-2.4-.18-3.27-1.72-2.54-1.99.52-.19,2.81,1.36,4.79-1.14,1.27-1.61,1.01-2.68.86-3.81-.12-.93.91-1.11,1.71.43.59,1.13.81,3.13-.77,4.83Z"/><path class="cls-42" d="m11.82,10.98c-1.07,1.18-2.3,1.77-3.82,1.73-2.33-.06-3.28-1.51-2.61-1.79.46-.2,2.79,1.41,4.81-1.16,1.27-1.61,1-2.66.82-3.77-.15-.89.83-1.06,1.54.44.49,1.04.75,2.89-.74,4.55Z"/><path class="cls-5" d="m11.75,10.83c-1,1.13-2.13,1.75-3.58,1.79-2.25.07-3.29-1.29-2.68-1.59.4-.2,2.77,1.46,4.84-1.18,1.27-1.63.99-2.65.78-3.74-.17-.84.76-1,1.36.45.39.95.7,2.66-.72,4.27Z"/></g><path class="cls-4" d="m12.64,7.9c0,2.62-2.12,4.75-4.75,4.75s-4.75-2.12-4.75-4.75S5.28,3.16,7.9,3.16s4.75,2.12,4.75,4.75Z"/><path class="cls-21" d="m12.72,7.98c0,2.62-2.12,4.75-4.75,4.75s-4.75-2.13-4.75-4.75S5.35,3.24,7.97,3.24s4.75,2.12,4.75,4.75Z"/></g></g></g></g></svg>